<svg width="31" height="31" viewBox="0 0 31 31" fill="none" xmlns="http://www.w3.org/2000/svg">
<path d="M29.9655 15.7916V15.7935C29.9653 19.5248 28.4437 23.1033 25.7355 25.7418C23.0272 28.3803 19.354 29.8627 15.524 29.8628H15.5221C11.692 29.8627 8.01885 28.3803 5.31058 25.7418C2.60231 23.1033 1.08074 19.5248 1.08057 15.7935V15.7916C1.08074 12.0602 2.60231 8.48173 5.31058 5.84325C8.01885 3.20476 11.692 1.7224 15.5221 1.72223H15.524C19.354 1.7224 23.0272 3.20476 25.7355 5.84325C28.4437 8.48173 29.9653 12.0602 29.9655 15.7916ZM23.1262 13.2264L20.9095 10.9843L13.2264 18.1957L9.87722 15.0556L7.66138 17.2976L13.2273 22.5178L23.1262 13.2264Z" fill="#00ACEA"/>
<path d="M20.9095 10.9843L23.1262 13.2264L13.2273 22.5178L7.66138 17.2976L9.87722 15.0555L13.2264 18.1957L20.9095 10.9843Z" fill="#00EFD1"/>
<path d="M21.5862 10.3491C21.5006 10.2626 21.3983 10.1932 21.2852 10.1452C21.1721 10.0971 21.0504 10.0712 20.927 10.0689C20.8036 10.0667 20.681 10.0882 20.5661 10.1321C20.4512 10.176 20.3463 10.2416 20.2575 10.325L13.226 16.9246L10.529 14.3958C10.3494 14.2275 10.1086 14.1355 9.85946 14.1402C9.61031 14.1448 9.37326 14.2457 9.20043 14.4206L6.98458 16.6626C6.89899 16.7492 6.83174 16.8514 6.78668 16.9633C6.74162 17.0753 6.71963 17.1947 6.72197 17.3149C6.72431 17.4352 6.75093 17.5537 6.80031 17.6639C6.84969 17.7741 6.92086 17.8737 7.00977 17.9571L12.5757 23.1772C12.7508 23.3415 12.9845 23.4333 13.2276 23.4333C13.4707 23.4333 13.7043 23.3415 13.8794 23.1772L23.7785 13.8858C23.9579 13.7173 24.0614 13.4863 24.066 13.2436C24.0706 13.0008 23.9761 12.7662 23.8032 12.5914L21.5862 10.3491ZM13.227 21.2466L8.99012 17.2733L9.90249 16.3502L12.5747 18.8556C12.7498 19.0198 12.9835 19.1116 13.2265 19.1116C13.4696 19.1116 13.7032 19.0198 13.8783 18.8556L20.8846 12.2796L21.7976 13.2028L13.227 21.2466Z" fill="#083863"/>
<path d="M15.5221 0.806702C7.0409 0.806702 0.140869 7.54304 0.140869 15.8076C0.140869 24.0703 7.0409 30.8067 15.5221 30.8067H15.524C24.0052 30.8067 30.9052 24.0703 30.9052 15.8058C30.9052 7.54304 24.0052 0.806702 15.5221 0.806702ZM15.524 28.9757H15.5221C8.07722 28.9757 2.0203 23.0607 2.0203 15.8058C2.0203 8.55265 8.07722 2.64475 15.524 2.64475C22.9689 2.64475 29.0258 8.55622 29.0258 15.8111C29.0258 23.0642 22.9689 28.9757 15.524 28.9757Z" fill="#083863"/>
</svg>
