<svg width="771" height="574" viewBox="0 0 771 574" fill="none" xmlns="http://www.w3.org/2000/svg">
<path d="M771 504.422H0V504.808H771V504.422Z" fill="#E0E0E0"/>
<path d="M582.352 520.738H529.307V521.123H582.352V520.738Z" fill="#E0E0E0"/>
<path d="M171.224 520.923H141.371V521.308H171.224V520.923Z" fill="#E0E0E0"/>
<path d="M387.042 520.03H326.534V520.415H387.042V520.03Z" fill="#E0E0E0"/>
<path d="M324.992 514.545H297.945V514.93H324.992V514.545Z" fill="#E0E0E0"/>
<path d="M654.672 514.745H572.961V515.13H654.672V514.745Z" fill="#E0E0E0"/>
<path d="M365.454 435.708H67.7093C65.3768 435.703 63.1412 434.775 61.4933 433.125C59.8455 431.476 58.9199 429.241 58.9199 426.91V8.72031C58.9402 6.40315 59.8747 4.18757 61.5204 2.5548C63.1661 0.922039 65.3901 0.00396942 67.7093 0H365.454C367.789 0 370.029 0.926861 371.68 2.57668C373.331 4.22651 374.259 6.46415 374.259 8.79735V426.91C374.259 429.243 373.331 431.481 371.68 433.131C370.029 434.781 367.789 435.708 365.454 435.708V435.708ZM67.7093 0.308139C65.4791 0.312221 63.3415 1.2003 61.7659 2.77745C60.1903 4.35459 59.3054 6.49193 59.3054 8.72031V426.91C59.3054 429.139 60.1903 431.276 61.7659 432.853C63.3415 434.43 65.4791 435.318 67.7093 435.322H365.454C367.686 435.318 369.825 434.431 371.403 432.854C372.981 431.277 373.869 429.14 373.873 426.91V8.72031C373.869 6.49052 372.981 4.35321 371.403 2.77651C369.825 1.1998 367.686 0.312212 365.454 0.308139H67.7093Z" fill="#E0E0E0"/>
<path d="M699.004 435.708H401.244C398.91 435.703 396.673 434.775 395.022 433.126C393.372 431.477 392.443 429.242 392.439 426.91V8.72031C392.463 6.40175 393.401 4.18618 395.049 2.55384C396.698 0.921501 398.923 0.00392613 401.244 0H699.004C701.321 0.00801852 703.541 0.92788 705.183 2.56021C706.825 4.19254 707.758 6.40581 707.778 8.72031V426.91C707.778 429.238 706.855 431.471 705.21 433.12C703.565 434.769 701.334 435.699 699.004 435.708V435.708ZM401.244 0.308139C399.012 0.312212 396.873 1.1998 395.295 2.77651C393.717 4.35321 392.829 6.49052 392.824 8.72031V426.91C392.829 429.14 393.717 431.277 395.295 432.854C396.873 434.431 399.012 435.318 401.244 435.322H699.004C701.236 435.318 703.375 434.431 704.953 432.854C706.531 431.277 707.419 429.14 707.423 426.91V8.72031C707.419 6.49052 706.531 4.35321 704.953 2.77651C703.375 1.1998 701.236 0.312212 699.004 0.308139H401.244Z" fill="#E0E0E0"/>
<path d="M677.416 311.574C658.449 282.717 675.766 251.703 672.882 219.595C669.999 187.487 639.467 180.492 645.25 153.345C651.942 121.792 634.101 91.5171 613.885 91.5171C593.67 91.5171 575.844 121.715 582.537 153.299C588.319 180.492 557.865 187.502 554.904 219.549C551.943 251.595 569.337 282.717 550.355 311.528C531.373 340.339 536.369 378.594 547.055 397.56C549.898 402.592 553.324 407.272 557.263 411.503C564.505 419.271 573.271 425.466 583.014 429.702C592.757 433.938 603.268 436.124 613.893 436.124C624.518 436.124 635.03 433.938 644.773 429.702C654.515 425.466 663.281 419.271 670.523 411.503C674.452 407.268 677.873 402.589 680.716 397.56C691.417 378.64 696.398 340.493 677.416 311.574Z" fill="#E0E0E0"/>
<path d="M613.885 333.467C615.145 333.467 616.392 333.715 617.556 334.197C618.719 334.678 619.777 335.384 620.667 336.274C621.558 337.164 622.264 338.22 622.746 339.383C623.228 340.546 623.476 341.792 623.476 343.05V504.422H604.294V343.05C604.294 341.792 604.542 340.546 605.024 339.383C605.506 338.22 606.212 337.164 607.103 336.274C607.994 335.384 609.051 334.678 610.215 334.197C611.378 333.715 612.626 333.467 613.885 333.467V333.467Z" fill="#F0F0F0"/>
<path d="M493.301 504.422H467.226V343.066C467.234 339.607 468.613 336.293 471.06 333.847C473.508 331.402 476.825 330.024 480.287 330.016V330.016C483.748 330.024 487.066 331.402 489.513 333.847C491.961 336.293 493.339 339.607 493.348 343.066L493.301 504.422Z" fill="#E0E0E0"/>
<path d="M480.241 460.898C524.67 460.898 560.687 424.911 560.687 380.52C560.687 336.129 524.67 300.142 480.241 300.142C435.811 300.142 399.794 336.129 399.794 380.52C399.794 424.911 435.811 460.898 480.241 460.898Z" fill="#F0F0F0"/>
<path d="M574.77 356.401C578.991 339.422 568.638 322.239 551.645 318.022C534.652 313.805 517.454 324.149 513.233 341.128C509.012 358.106 519.366 375.289 536.359 379.507C553.352 383.724 570.549 373.379 574.77 356.401Z" fill="#F0F0F0"/>
<path d="M433.689 333.019C435.355 322.799 428.413 313.164 418.183 311.499C407.954 309.835 398.311 316.771 396.645 326.992C394.979 337.212 401.921 346.847 412.15 348.512C422.38 350.177 432.023 343.24 433.689 333.019Z" fill="#F0F0F0"/>
<path d="M435.584 333.467C442.857 333.467 448.753 327.576 448.753 320.31C448.753 313.043 442.857 307.152 435.584 307.152C428.311 307.152 422.416 313.043 422.416 320.31C422.416 327.576 428.311 333.467 435.584 333.467Z" fill="#F0F0F0"/>
<path d="M314.568 408.114C302.059 409.975 290.104 414.533 279.534 421.472C279.441 409.269 277.205 397.699 271.469 388.347C262.741 396.836 255.664 407.836 249.881 419.669C247.769 397.498 241.924 375.929 228.987 362.263C209.604 374.45 199.612 394.756 194.863 416.264C187.016 401.762 175.628 389.477 161.756 380.551C149.898 393.03 146.104 410.286 146.428 427.973C132.951 412.289 117.994 400.056 103.407 398.623C99.8136 423.413 107.462 446.801 117.192 465.289C123.509 477.151 132.946 487.066 144.487 493.964C156.027 500.863 169.233 504.484 182.681 504.438H246.042C273.042 504.438 298.362 490.048 311.021 466.213C319.024 451.114 322.849 431.686 314.568 408.114Z" fill="#E0E0E0"/>
<path d="M296.465 88.0351C304.283 65.1251 298.007 48.8091 278.932 48.8091C266.935 48.8091 252.055 55.2338 237.56 65.6797C235.926 59.7172 231.315 56.1582 223.898 56.1582C210.837 56.1582 192.842 67.1896 178.733 82.7506C174.761 78.9797 169.502 76.8591 164.022 76.8189C151.517 76.1102 136.39 82.4578 123.236 92.7651C122.577 91.8434 121.707 91.0926 120.699 90.5753C119.69 90.058 118.572 89.7893 117.439 89.7915C110.237 89.3909 100.477 95.8002 95.6501 104.089C95.3571 104.598 95.0949 105.106 94.8174 105.63H300.258C300.875 98.3886 299.595 92.3491 296.465 88.0351Z" fill="#F0F0F0"/>
<path d="M297.097 227.144C300.921 215.959 297.883 207.993 288.539 207.993C282.664 207.993 275.401 211.075 268.323 216.236C267.942 214.798 267.061 213.543 265.837 212.696C264.613 211.849 263.128 211.466 261.646 211.614C255.278 211.614 246.489 217.006 239.58 224.617C237.644 222.769 235.073 221.733 232.395 221.721C226.227 221.367 218.902 224.463 212.472 229.501C212.16 229.056 211.748 228.69 211.269 228.433C210.789 228.176 210.256 228.035 209.712 228.022C206.196 227.822 201.431 230.95 199.072 235.002L198.656 235.741H299.009C299.429 232.739 298.75 229.686 297.097 227.144V227.144Z" fill="#F0F0F0"/>
<path d="M528.551 142.499C527.759 142.387 526.961 142.331 526.161 142.329C526.901 131.159 522.63 124.01 513.486 124.01C506.902 124.01 498.806 127.739 490.572 134.04C492.931 112.347 485.375 98.2499 468.259 98.2499C454.474 98.2499 437.003 107.494 419.748 122.377C418.206 113.872 413.148 108.757 404.605 108.757C389.602 108.757 368.276 124.534 351.175 146.782C349.226 144.216 346.727 142.119 343.862 140.645C340.996 139.171 337.836 138.356 334.614 138.262C320.335 137.26 302.587 146.319 286.812 161.079C286.238 159.835 285.325 158.777 284.176 158.027C283.028 157.278 281.691 156.867 280.32 156.842C272.502 156.288 261.816 164.438 255.479 175.331H541.119C547.826 158.814 542.491 144.363 528.551 142.499Z" fill="#F0F0F0"/>
<path d="M385.5 574C550.621 574 684.478 566.191 684.478 556.559C684.478 546.927 550.621 539.119 385.5 539.119C220.379 539.119 86.5215 546.927 86.5215 556.559C86.5215 566.191 220.379 574 385.5 574Z" fill="#F5F5F5"/>
<path d="M75.3423 147.229L426.872 197.794L474.042 245.355L75.3423 147.229Z" fill="#18A0FB"/>
<path opacity="0.6" d="M75.3423 147.229L426.872 197.794L474.042 245.355L75.3423 147.229Z" fill="white"/>
<path d="M75.3423 147.229L426.872 197.794L410.558 266.57L75.3423 147.229Z" fill="#18A0FB"/>
<path opacity="0.2" d="M75.3423 147.229L426.872 197.794L410.558 266.57L75.3423 147.229Z" fill="black"/>
<path d="M403.341 67.6057L423.742 163.129C424.272 165.623 423.791 168.226 422.403 170.366C421.016 172.506 418.835 174.009 416.34 174.545L234.261 213.371C231.765 213.897 229.162 213.414 227.021 212.028C224.879 210.642 223.374 208.466 222.834 205.975L202.418 110.452C201.892 107.956 202.377 105.353 203.767 103.214C205.158 101.074 207.339 99.572 209.835 99.0358L391.915 60.2104C394.413 59.6848 397.018 60.1695 399.159 61.5584C401.301 62.9473 402.804 65.1272 403.341 67.6211V67.6057Z" fill="#18A0FB"/>
<path opacity="0.4" d="M403.341 67.6057L423.742 163.129C424.272 165.623 423.791 168.226 422.403 170.366C421.016 172.506 418.835 174.009 416.34 174.545L234.261 213.371C231.765 213.897 229.162 213.414 227.021 212.028C224.879 210.642 223.374 208.466 222.834 205.975L202.418 110.452C201.892 107.956 202.377 105.353 203.767 103.214C205.158 101.074 207.339 99.572 209.835 99.0358L391.915 60.2104C394.413 59.6848 397.018 60.1695 399.159 61.5584C401.301 62.9473 402.804 65.1272 403.341 67.6211V67.6057Z" fill="black"/>
<path d="M398.853 61.3503L338.021 135.966C332.38 142.884 324.543 147.67 315.809 149.533C307.074 151.396 297.965 150.225 289.988 146.212L203.96 102.918C205.352 100.921 207.452 99.5269 209.835 99.0202L391.914 60.1948C394.29 59.6895 396.77 60.1024 398.853 61.3503V61.3503Z" fill="#18A0FB"/>
<path d="M75.3423 147.229L365.285 216.082L410.558 266.57L75.3423 147.229Z" fill="#18A0FB"/>
<path opacity="0.6" d="M75.3423 147.229L365.285 216.082L410.558 266.57L75.3423 147.229Z" fill="white"/>
<path d="M181.106 213.594L180.327 214.923L212.593 233.807L213.372 232.478L181.106 213.594Z" fill="#18A0FB"/>
<path d="M227.617 240.803L226.838 242.133L238.44 248.923L239.22 247.594L227.617 240.803Z" fill="#18A0FB"/>
<path d="M75.3423 147.229L365.285 216.082L308.924 283.949L75.3423 147.229Z" fill="#18A0FB"/>
<path d="M463.155 308.539C462.765 308.54 462.377 308.467 462.014 308.323L414.798 289.65C414.043 289.346 413.438 288.756 413.117 288.008C412.795 287.261 412.783 286.416 413.082 285.659C413.382 284.903 413.968 284.295 414.714 283.969C415.461 283.643 416.305 283.625 417.065 283.919L464.296 302.592C464.965 302.856 465.519 303.344 465.866 303.974C466.212 304.603 466.327 305.333 466.192 306.038C466.056 306.743 465.679 307.378 465.125 307.835C464.57 308.292 463.874 308.541 463.155 308.539V308.539Z" fill="#18A0FB"/>
<path opacity="0.3" d="M463.155 308.539C462.765 308.54 462.377 308.467 462.014 308.323L414.798 289.65C414.043 289.346 413.438 288.756 413.117 288.008C412.795 287.261 412.783 286.416 413.082 285.659C413.382 284.903 413.968 284.295 414.714 283.969C415.461 283.643 416.305 283.625 417.065 283.919L464.296 302.592C464.965 302.856 465.519 303.344 465.866 303.974C466.212 304.603 466.327 305.333 466.192 306.038C466.056 306.743 465.679 307.378 465.125 307.835C464.57 308.292 463.874 308.541 463.155 308.539V308.539Z" fill="black"/>
<path d="M460.364 281.484C459.977 281.482 459.595 281.403 459.238 281.253L433.872 271.162C433.493 271.015 433.147 270.795 432.853 270.513C432.559 270.232 432.324 269.896 432.161 269.524C431.998 269.151 431.911 268.75 431.903 268.344C431.896 267.938 431.969 267.534 432.119 267.156C432.268 266.778 432.491 266.434 432.774 266.142C433.058 265.851 433.396 265.618 433.77 265.457C434.143 265.297 434.545 265.212 434.952 265.207C435.358 265.203 435.762 265.279 436.139 265.43L461.505 275.476C462.265 275.775 462.876 276.363 463.202 277.111C463.529 277.859 463.545 278.706 463.248 279.466C463.03 280.056 462.638 280.566 462.122 280.927C461.607 281.288 460.993 281.482 460.364 281.484Z" fill="#18A0FB"/>
<path opacity="0.5" d="M460.364 281.484C459.977 281.482 459.595 281.403 459.238 281.253L433.872 271.162C433.493 271.015 433.147 270.795 432.853 270.513C432.559 270.232 432.324 269.896 432.161 269.524C431.998 269.151 431.911 268.75 431.903 268.344C431.896 267.938 431.969 267.534 432.119 267.156C432.268 266.778 432.491 266.434 432.774 266.142C433.058 265.851 433.396 265.618 433.77 265.457C434.143 265.297 434.545 265.212 434.952 265.207C435.358 265.203 435.762 265.279 436.139 265.43L461.505 275.476C462.265 275.775 462.876 276.363 463.202 277.111C463.529 277.859 463.545 278.706 463.248 279.466C463.03 280.056 462.638 280.566 462.122 280.927C461.607 281.288 460.993 281.482 460.364 281.484Z" fill="white"/>
<path d="M407.334 308.138C406.949 308.134 406.568 308.061 406.209 307.923L360.149 289.65C359.77 289.503 359.424 289.283 359.13 289.002C358.836 288.721 358.601 288.384 358.438 288.012C358.275 287.64 358.188 287.239 358.18 286.832C358.173 286.426 358.246 286.022 358.396 285.644C358.545 285.266 358.768 284.922 359.051 284.63C359.334 284.339 359.673 284.106 360.046 283.946C360.42 283.785 360.822 283.7 361.228 283.696C361.635 283.691 362.039 283.767 362.416 283.919L408.476 302.13C409.144 302.393 409.699 302.882 410.045 303.511C410.391 304.14 410.506 304.87 410.371 305.575C410.236 306.28 409.858 306.916 409.304 307.373C408.75 307.829 408.053 308.078 407.334 308.077V308.138Z" fill="#18A0FB"/>
<path opacity="0.3" d="M407.334 308.138C406.949 308.134 406.568 308.061 406.209 307.923L360.149 289.65C359.77 289.503 359.424 289.283 359.13 289.002C358.836 288.721 358.601 288.384 358.438 288.012C358.275 287.64 358.188 287.239 358.18 286.832C358.173 286.426 358.246 286.022 358.396 285.644C358.545 285.266 358.768 284.922 359.051 284.63C359.334 284.339 359.673 284.106 360.046 283.946C360.42 283.785 360.822 283.7 361.228 283.696C361.635 283.691 362.039 283.767 362.416 283.919L408.476 302.13C409.144 302.393 409.699 302.882 410.045 303.511C410.391 304.14 410.506 304.87 410.371 305.575C410.236 306.28 409.858 306.916 409.304 307.373C408.75 307.829 408.053 308.078 407.334 308.077V308.138Z" fill="black"/>
<path d="M574.087 169.199C578.173 177.164 581.92 185.145 585.482 193.311C589.044 201.476 592.359 209.75 595.258 218.424L596.307 221.705C596.492 222.291 596.754 223.246 596.908 223.924C597.062 224.602 597.201 225.372 597.278 226.019C597.631 228.505 597.812 231.012 597.818 233.523C597.841 238.153 597.625 242.781 597.17 247.389C596.309 256.309 594.909 265.169 592.976 273.92L584.511 272.98C584.403 264.306 584.325 255.539 584.017 246.988C583.878 242.736 583.632 238.468 583.2 234.462C583.004 232.581 582.695 230.714 582.275 228.87C582.197 228.438 582.074 228.115 581.982 227.76C581.889 227.406 581.797 227.283 581.642 226.821L580.47 223.909C577.248 216.113 573.624 208.255 569.923 200.429L558.728 176.948L574.087 169.199Z" fill="#E4897B"/>
<path d="M584.634 270.268L580.687 277.648L593.3 281.161C593.3 281.161 595.706 275.229 592.837 270.545L584.634 270.268Z" fill="#E4897B"/>
<path d="M575.86 288.279L587.456 289.203L593.3 281.161L580.687 277.648L575.86 288.279Z" fill="#E4897B"/>
<path d="M520.995 115.952C520.826 116.861 520.194 117.493 519.608 117.37C519.022 117.247 518.698 116.43 518.883 115.536C519.068 114.643 519.685 113.996 520.271 114.119C520.857 114.242 521.196 115.059 520.995 115.952Z" fill="#263238"/>
<path d="M520.287 117.493C518.658 120.014 516.692 122.3 514.442 124.288C514.968 124.846 515.607 125.284 516.318 125.571C517.029 125.858 517.794 125.988 518.56 125.952L520.287 117.493Z" fill="#DE5753"/>
<path d="M525.282 111.654C525.136 111.65 524.998 111.589 524.897 111.484C524.454 110.978 523.898 110.583 523.273 110.332C522.649 110.08 521.974 109.979 521.304 110.036C521.176 110.037 521.052 109.993 520.954 109.912C520.855 109.83 520.789 109.716 520.767 109.591C520.745 109.465 520.768 109.335 520.832 109.225C520.897 109.115 520.998 109.031 521.119 108.989C521.976 108.88 522.847 108.985 523.654 109.294C524.461 109.603 525.18 110.107 525.745 110.76C525.844 110.861 525.899 110.997 525.899 111.138C525.899 111.279 525.844 111.414 525.745 111.515C525.683 111.572 525.609 111.613 525.529 111.637C525.449 111.661 525.365 111.667 525.282 111.654Z" fill="#263238"/>
<path d="M546.501 128.54C544.881 136.829 543.262 151.989 549.06 157.52C549.06 157.52 546.793 165.917 531.389 165.917C514.427 165.917 523.309 157.52 523.309 157.52C532.561 155.317 532.299 148.461 530.695 142.036L546.501 128.54Z" fill="#E4897B"/>
<path d="M551.388 162.743C552.607 158.691 553.948 154.054 551.172 152.59C548.088 151.049 531.327 149.355 525.544 152.359C519.762 155.363 521.412 163.606 521.412 163.606L551.388 162.743Z" fill="#263238"/>
<path d="M586.947 546.945C586.468 547.009 585.981 546.977 585.515 546.85C585.049 546.723 584.613 546.504 584.233 546.206C584.099 546.02 584.026 545.796 584.026 545.567C584.026 545.337 584.099 545.113 584.233 544.927C584.321 544.768 584.442 544.629 584.589 544.52C584.735 544.411 584.903 544.334 585.081 544.295C586.746 543.926 589.861 546.052 590 546.144C590.04 546.178 590.071 546.221 590.09 546.269C590.108 546.318 590.115 546.37 590.108 546.422C590.099 546.472 590.075 546.518 590.039 546.553C590.003 546.589 589.957 546.613 589.907 546.622C588.934 546.832 587.942 546.94 586.947 546.945V546.945ZM585.528 544.788H585.204C585.1 544.81 585.002 544.854 584.916 544.918C584.831 544.982 584.761 545.064 584.711 545.158C584.464 545.59 584.618 545.774 584.711 545.836C585.189 546.483 587.502 546.483 589.198 546.206C588.093 545.477 586.839 545.003 585.528 544.819V544.788Z" fill="#18A0FB"/>
<path d="M589.846 546.668H589.723C588.551 546.021 586.284 543.587 586.515 542.293C586.555 542.093 586.662 541.913 586.82 541.783C586.978 541.654 587.175 541.584 587.379 541.584C587.582 541.562 587.788 541.581 587.984 541.639C588.179 541.697 588.362 541.794 588.52 541.923C589.831 543.001 590.062 546.268 590.062 546.406C590.068 546.455 590.06 546.504 590.038 546.548C590.016 546.592 589.981 546.629 589.939 546.653C589.909 546.665 589.878 546.67 589.846 546.668ZM587.564 542.046H587.502C587.148 542.046 587.117 542.262 587.101 542.323C586.963 543.078 588.412 544.943 589.569 545.821C589.491 544.534 589.029 543.3 588.243 542.277C588.139 542.196 588.02 542.137 587.893 542.102C587.766 542.068 587.633 542.059 587.502 542.077L587.564 542.046Z" fill="#18A0FB"/>
<path d="M518.929 546.945C517.48 546.945 516.077 546.745 515.599 546.098C515.478 545.927 515.413 545.722 515.413 545.513C515.413 545.303 515.478 545.098 515.599 544.927C515.692 544.769 515.817 544.631 515.966 544.523C516.114 544.414 516.283 544.337 516.462 544.295C518.328 543.787 522.306 546.036 522.476 546.129C522.521 546.158 522.557 546.2 522.579 546.249C522.601 546.298 522.608 546.353 522.599 546.406C522.59 546.46 522.565 546.51 522.526 546.549C522.487 546.587 522.437 546.613 522.383 546.622C521.245 546.836 520.088 546.944 518.929 546.945V546.945ZM517.125 544.758C516.957 544.733 516.785 544.733 516.616 544.758C516.508 544.779 516.405 544.823 516.315 544.887C516.224 544.95 516.149 545.032 516.092 545.127C515.892 545.466 515.969 545.62 516.092 545.713C516.601 546.422 519.469 546.468 521.597 546.175C520.211 545.427 518.692 544.956 517.125 544.788V544.758Z" fill="#18A0FB"/>
<path d="M522.352 546.668H522.244C520.872 546.067 518.174 543.587 518.374 542.339C518.374 542.031 518.636 541.661 519.376 541.584C519.652 541.542 519.933 541.562 520.199 541.642C520.466 541.722 520.712 541.86 520.918 542.046C522.368 543.217 522.661 546.268 522.676 546.406C522.682 546.453 522.675 546.501 522.656 546.544C522.637 546.588 522.607 546.625 522.568 546.653C522.536 546.67 522.499 546.681 522.462 546.684C522.425 546.686 522.387 546.681 522.352 546.668V546.668ZM519.592 542.046H519.423C518.945 542.046 518.914 542.293 518.898 542.354C518.775 543.124 520.625 545.05 521.982 545.882C521.849 544.588 521.309 543.369 520.44 542.4C520.22 542.21 519.944 542.097 519.654 542.077L519.592 542.046Z" fill="#18A0FB"/>
<path d="M534.812 546.391H523.478L522.353 520.184H533.686L534.812 546.391Z" fill="#E4897B"/>
<path d="M602.829 546.391H591.496L585.806 520.184H597.124L602.829 546.391Z" fill="#E4897B"/>
<path d="M590.694 545.081H603.416C603.643 545.083 603.863 545.162 604.039 545.304C604.216 545.447 604.338 545.645 604.387 545.867L606.623 555.928C606.674 556.173 606.669 556.426 606.609 556.669C606.548 556.912 606.434 557.138 606.274 557.33C606.114 557.523 605.912 557.677 605.684 557.781C605.456 557.885 605.208 557.936 604.958 557.931C600.517 557.854 598.358 557.592 592.76 557.592C589.322 557.592 582.229 557.961 577.464 557.961C572.699 557.961 572.098 553.339 574.041 552.831C582.768 550.92 586.053 548.286 588.844 545.79C589.351 545.332 590.011 545.079 590.694 545.081V545.081Z" fill="#263238"/>
<path d="M523.556 545.081H535.892C536.119 545.083 536.339 545.162 536.515 545.304C536.692 545.447 536.814 545.645 536.863 545.867L539.099 555.928C539.153 556.17 539.15 556.422 539.093 556.664C539.035 556.906 538.924 557.131 538.767 557.324C538.609 557.517 538.411 557.671 538.185 557.776C537.96 557.881 537.713 557.934 537.465 557.931C533.008 557.854 526.563 557.592 520.95 557.592C514.396 557.592 508.722 557.961 501.027 557.961C496.401 557.961 495.09 553.339 497.033 552.831C505.9 550.89 513.132 550.689 520.796 545.975C521.612 545.42 522.569 545.11 523.556 545.081V545.081Z" fill="#263238"/>
<path d="M518.112 177.395C508.639 176.662 499.214 175.412 489.878 173.651C485.252 172.758 480.533 171.756 475.846 170.493C471.041 169.264 466.322 167.72 461.721 165.871C460.534 165.378 459.331 164.839 458.144 164.33C456.807 163.672 455.519 162.921 454.289 162.081C452.068 160.617 450.156 159.092 448.259 157.582C444.482 154.501 440.981 151.419 437.465 148.261C430.573 141.882 424.035 135.288 417.728 128.355L423.402 122.023L445.777 138.092C449.462 140.742 453.194 143.346 456.864 145.796C458.683 147.013 460.549 148.153 462.261 149.124C462.976 149.531 463.718 149.892 464.481 150.202C465.391 150.556 466.316 150.911 467.288 151.25C475.622 153.814 484.144 155.72 492.777 156.95C501.582 158.337 510.68 159.477 519.469 160.401L518.112 177.395Z" fill="#E4897B"/>
<path d="M569.337 160.078C579.962 162.512 590.694 193.526 590.694 193.526L568.844 209.195C568.844 209.195 562.676 194.743 556.724 182.11C550.494 168.875 558.481 157.597 569.337 160.078Z" fill="#18A0FB"/>
<path opacity="0.4" d="M569.337 160.078C579.962 162.512 590.694 193.526 590.694 193.526L568.844 209.195C568.844 209.195 562.676 194.743 556.724 182.11C550.494 168.875 558.481 157.597 569.337 160.078Z" fill="black"/>
<path d="M563.216 177.025L558.883 186.716C563.37 196.392 567.472 205.975 568.567 208.533C568.412 197.085 566.238 182.88 563.216 177.025Z" fill="#18A0FB"/>
<path opacity="0.6" d="M563.216 177.025L558.883 186.716C563.37 196.392 567.472 205.975 568.567 208.533C568.412 197.085 566.238 182.88 563.216 177.025Z" fill="black"/>
<path d="M505.884 160.663C505.884 160.663 493.826 174.268 505.206 258.497H565.791C566.222 249.253 560.378 203.864 569.337 160.078C562.64 158.789 555.867 157.935 549.06 157.52C540.483 157.027 531.885 157.027 523.309 157.52C517.427 158.112 511.601 159.163 505.884 160.663V160.663Z" fill="#18A0FB"/>
<path opacity="0.4" d="M505.884 160.663C505.884 160.663 493.826 174.268 505.206 258.497H565.791C566.222 249.253 560.378 203.864 569.337 160.078C562.64 158.789 555.867 157.935 549.06 157.52C540.483 157.027 531.885 157.027 523.309 157.52C517.427 158.112 511.601 159.163 505.884 160.663V160.663Z" fill="black"/>
<path d="M501.397 177.025C500.996 180.215 500.688 183.989 500.487 188.442C506.47 186.648 512.155 183.979 517.357 180.523L501.397 177.025Z" fill="#18A0FB"/>
<path opacity="0.6" d="M501.397 177.025C500.996 180.215 500.688 183.989 500.487 188.442C506.47 186.648 512.155 183.979 517.357 180.523L501.397 177.025Z" fill="black"/>
<path d="M527.364 178.72C519.253 185.9 488.29 185.176 488.29 185.176L487.272 155.225C497.728 156.713 508.275 157.475 518.837 157.505C536.092 157.15 536.215 170.801 527.364 178.72Z" fill="#18A0FB"/>
<path opacity="0.4" d="M527.364 178.72C519.253 185.9 488.29 185.176 488.29 185.176L487.272 155.225C497.728 156.713 508.275 157.475 518.837 157.505C536.092 157.15 536.215 170.801 527.364 178.72Z" fill="black"/>
<path d="M423.695 122.084L415.985 113.01L407.674 122.254C407.674 122.254 412.794 130.851 420.92 129.495L423.695 122.084Z" fill="#E4897B"/>
<path d="M404.945 102.425L401.953 114.273L407.612 122.192L415.924 113.01L404.945 102.425Z" fill="#E4897B"/>
<path d="M522.353 520.199L522.939 533.695H534.272L533.686 520.199H522.353Z" fill="#CE6F64"/>
<path d="M597.139 520.199H585.806L588.735 533.695H600.069L597.139 520.199Z" fill="#CE6F64"/>
<path d="M529.168 104.767C519.006 100.145 515.799 79.6075 545.035 84.738C545.035 84.738 540.625 89.6066 549.569 92.688C558.512 95.7694 551.034 114.797 529.168 104.767Z" fill="#263238"/>
<path d="M551.249 120.174C548.335 130.959 547.194 137.522 540.455 142.036C530.371 148.815 517.834 141.035 517.433 129.526C517.079 119.188 521.905 103.18 533.547 100.992C536.117 100.489 538.773 100.652 541.262 101.465C543.751 102.279 545.99 103.716 547.765 105.639C549.54 107.563 550.792 109.908 551.402 112.453C552.012 114.997 551.96 117.655 551.249 120.174Z" fill="#E4897B"/>
<path d="M544.634 90.1304C551.558 93.9821 560.933 96.2932 560.054 101.778C558.897 108.48 565.713 104.289 564.125 114.258C563.092 120.775 551.064 140.526 542.537 139.571C529.8 138.031 531.419 118.679 531.373 108.48C531.342 102.456 531.064 82.5348 544.634 90.1304Z" fill="#263238"/>
<path d="M529.847 98.7737C526.763 99.4978 522.676 117.262 534.627 118.895C548.366 120.759 529.847 98.7737 529.847 98.7737Z" fill="#263238"/>
<path d="M530.155 105.075C526.377 105.414 517.819 100.869 518.867 94.0284C518.867 93.9822 524.28 102.025 530.155 105.075Z" fill="#263238"/>
<path d="M535.768 120.313C534.609 122.853 532.64 124.938 530.171 126.244C526.917 127.939 525.082 125.474 525.822 122.208C526.485 119.28 528.983 114.859 532.329 114.504C535.675 114.15 537.11 117.231 535.768 120.313Z" fill="#E4897B"/>
<path d="M552.73 107.848C555.035 106.849 557.055 105.295 558.611 103.324C560.166 101.353 561.208 99.0272 561.643 96.5552C561.643 96.5552 566.732 110.683 552.73 107.848Z" fill="#263238"/>
<path d="M565.59 107.617C564.517 106.897 563.282 106.454 561.996 106.328C560.71 106.202 559.412 106.396 558.219 106.893C558.219 106.893 562.969 100.746 565.59 107.617Z" fill="#263238"/>
<path d="M526.701 258.497C526.701 258.497 539.561 344.992 546.608 377.392C554.318 412.828 583.462 531.092 583.462 531.092H604.202C604.202 531.092 585.004 415.74 580.594 380.551C575.813 342.419 565.79 258.436 565.79 258.436L526.701 258.497Z" fill="#18A0FB"/>
<path opacity="0.5" d="M526.701 258.497C526.701 258.497 539.561 344.992 546.608 377.392C554.318 412.828 583.462 531.092 583.462 531.092H604.202C604.202 531.092 585.004 415.74 580.594 380.551C575.813 342.419 565.79 258.436 565.79 258.436L526.701 258.497Z" fill="white"/>
<path d="M580.147 523.45C580.054 523.45 582.29 531.415 582.29 531.415H605.636L605.204 524.313L580.147 523.45Z" fill="#18A0FB"/>
<path opacity="0.1" d="M580.147 523.45C580.054 523.45 582.29 531.415 582.29 531.415H605.636L605.204 524.313L580.147 523.45Z" fill="black"/>
<path d="M534.827 289.311C549.692 292.223 548.119 347.611 546.331 376.098C542.044 355.961 535.768 317.213 531.481 289.712C532.518 289.201 533.699 289.06 534.827 289.311Z" fill="#18A0FB"/>
<path opacity="0.4" d="M534.827 289.311C549.692 292.223 548.119 347.611 546.331 376.098C542.044 355.961 535.768 317.213 531.481 289.712C532.518 289.201 533.699 289.06 534.827 289.311Z" fill="white"/>
<path d="M505.205 258.497C505.205 258.497 503.663 343.112 504.882 377.639C506.162 413.537 518.76 531.092 518.76 531.092H537.942C537.942 531.092 538.651 415.632 539.484 380.381C540.425 341.941 545.066 258.497 545.066 258.497H505.205Z" fill="#18A0FB"/>
<path opacity="0.5" d="M505.205 258.497C505.205 258.497 503.663 343.112 504.882 377.639C506.162 413.537 518.76 531.092 518.76 531.092H537.942C537.942 531.092 538.651 415.632 539.484 380.381C540.425 341.941 545.066 258.497 545.066 258.497H505.205Z" fill="white"/>
<path d="M522.738 517.318C522.691 517.318 522.647 517.301 522.612 517.269C522.578 517.238 522.557 517.195 522.553 517.149C519.16 484.609 511.188 405.88 510.217 377.639C509.184 348.813 510.124 284.134 510.433 264.999C510.433 264.95 510.452 264.903 510.487 264.868C510.522 264.834 510.569 264.814 510.618 264.814C510.668 264.814 510.717 264.833 510.754 264.867C510.792 264.901 510.814 264.949 510.818 264.999C510.51 284.134 509.569 348.813 510.602 377.624C511.605 405.864 519.577 484.563 522.938 517.102C522.939 517.155 522.92 517.205 522.886 517.245C522.852 517.285 522.805 517.311 522.753 517.318H522.738Z" fill="#18A0FB"/>
<path opacity="0.4" d="M522.738 517.318C522.691 517.318 522.647 517.301 522.612 517.269C522.578 517.238 522.557 517.195 522.553 517.149C519.16 484.609 511.188 405.88 510.217 377.639C509.184 348.813 510.124 284.134 510.433 264.999C510.433 264.95 510.452 264.903 510.487 264.868C510.522 264.834 510.569 264.814 510.618 264.814C510.668 264.814 510.717 264.833 510.754 264.867C510.792 264.901 510.814 264.949 510.818 264.999C510.51 284.134 509.569 348.813 510.602 377.624C511.605 405.864 519.577 484.563 522.938 517.102C522.939 517.155 522.92 517.205 522.886 517.245C522.852 517.285 522.805 517.311 522.753 517.318H522.738Z" fill="white"/>
<path d="M515.028 523.45C514.951 523.45 516.123 531.415 516.123 531.415H539.454L540.086 524.313L515.028 523.45Z" fill="#18A0FB"/>
<path opacity="0.1" d="M515.028 523.45C514.951 523.45 516.123 531.415 516.123 531.415H539.454L540.086 524.313L515.028 523.45Z" fill="black"/>
</svg>
