<svg width="411" height="392" viewBox="0 0 411 392" fill="none" xmlns="http://www.w3.org/2000/svg">
<g style="mix-blend-mode:multiply">
<path d="M399.205 261.448C414.033 221.526 414.903 178.098 401.687 137.664C388.47 97.2309 361.878 61.9684 325.89 37.1564C289.903 12.3445 246.457 -0.681958 202.058 0.0275177C157.658 0.736994 114.694 15.1442 79.5984 41.092C44.5026 67.0398 19.1633 103.132 7.37431 143.965C-4.41467 184.798 -2.01898 228.175 14.2027 267.6C30.4244 307.026 59.5992 340.379 97.3591 362.667C135.119 384.954 179.432 394.976 223.664 391.233L212.155 267.527C195.95 268.898 179.715 265.227 165.881 257.061C152.047 248.896 141.358 236.676 135.415 222.232C129.472 207.788 128.594 191.896 132.913 176.936C137.232 161.976 146.516 148.753 159.374 139.247C172.232 129.741 187.972 124.462 204.239 124.202C220.505 123.942 236.422 128.715 249.607 137.805C262.792 146.895 272.534 159.814 277.376 174.628C282.218 189.441 281.899 205.352 276.467 219.978L399.205 261.448Z" fill="#D9D9D9" fill-opacity="0.3"/>
</g>
</svg>
