<svg width="24" height="24" viewBox="0 0 24 24" fill="none" xmlns="http://www.w3.org/2000/svg">
<path d="M4.99991 9.18V2C4.99991 1.73478 4.89456 1.48043 4.70702 1.29289C4.51948 1.10536 4.26513 1 3.99991 1C3.7347 1 3.48034 1.10536 3.29281 1.29289C3.10527 1.48043 2.99991 1.73478 2.99991 2V9.18C2.42076 9.3902 1.92037 9.77363 1.56676 10.2782C1.21314 10.7827 1.02344 11.3839 1.02344 12C1.02344 12.6161 1.21314 13.2173 1.56676 13.7218C1.92037 14.2264 2.42076 14.6098 2.99991 14.82V22C2.99991 22.2652 3.10527 22.5196 3.29281 22.7071C3.48034 22.8946 3.7347 23 3.99991 23C4.26513 23 4.51948 22.8946 4.70702 22.7071C4.89456 22.5196 4.99991 22.2652 4.99991 22V14.82C5.57907 14.6098 6.07945 14.2264 6.43307 13.7218C6.78669 13.2173 6.97639 12.6161 6.97639 12C6.97639 11.3839 6.78669 10.7827 6.43307 10.2782C6.07945 9.77363 5.57907 9.3902 4.99991 9.18ZM3.99991 13C3.7347 13 3.48034 12.8946 3.29281 12.7071C3.10527 12.5196 2.99991 12.2652 2.99991 12C2.99991 11.7348 3.10527 11.4804 3.29281 11.2929C3.48034 11.1054 3.7347 11 3.99991 11C4.26513 11 4.51948 11.1054 4.70702 11.2929C4.89456 11.4804 4.99991 11.7348 4.99991 12C4.99991 12.2652 4.89456 12.5196 4.70702 12.7071C4.51948 12.8946 4.26513 13 3.99991 13Z" fill="black"/>
<path d="M12.9999 16.18V2C12.9999 1.73478 12.8946 1.48043 12.707 1.29289C12.5195 1.10536 12.2651 1 11.9999 1C11.7347 1 11.4803 1.10536 11.2928 1.29289C11.1053 1.48043 10.9999 1.73478 10.9999 2V16.18C10.4208 16.3902 9.92037 16.7736 9.56676 17.2782C9.21314 17.7827 9.02344 18.3839 9.02344 19C9.02344 19.6161 9.21314 20.2173 9.56676 20.7218C9.92037 21.2264 10.4208 21.6098 10.9999 21.82C10.9999 22.0852 11.1053 22.3396 11.2928 22.5271C11.4803 22.7146 11.7347 22.82 11.9999 22.82C12.2651 22.82 12.5195 22.7146 12.707 22.5271C12.8946 22.3396 12.9999 22.0852 12.9999 21.82C13.5791 21.6098 14.0795 21.2264 14.4331 20.7218C14.7867 20.2173 14.9764 19.6161 14.9764 19C14.9764 18.3839 14.7867 17.7827 14.4331 17.2782C14.0795 16.7736 13.5791 16.3902 12.9999 16.18ZM11.9999 20C11.7347 20 11.4803 19.8946 11.2928 19.7071C11.1053 19.5196 10.9999 19.2652 10.9999 19C10.9999 18.7348 11.1053 18.4804 11.2928 18.2929C11.4803 18.1054 11.7347 18 11.9999 18C12.2651 18 12.5195 18.1054 12.707 18.2929C12.8946 18.4804 12.9999 18.7348 12.9999 19C12.9999 19.2652 12.8946 19.5196 12.707 19.7071C12.5195 19.8946 12.2651 20 11.9999 20Z" fill="black"/>
<path d="M20.9999 3.18V2C20.9999 1.73478 20.8946 1.48043 20.707 1.29289C20.5195 1.10536 20.2651 1 19.9999 1C19.7347 1 19.4803 1.10536 19.2928 1.29289C19.1053 1.48043 18.9999 1.73478 18.9999 2V3.18C18.4208 3.3902 17.9204 3.77363 17.5668 4.27817C17.2131 4.7827 17.0234 5.38388 17.0234 6C17.0234 6.61612 17.2131 7.2173 17.5668 7.72183C17.9204 8.22637 18.4208 8.6098 18.9999 8.82V22C18.9999 22.2652 19.1053 22.5196 19.2928 22.7071C19.4803 22.8946 19.7347 23 19.9999 23C20.2651 23 20.5195 22.8946 20.707 22.7071C20.8946 22.5196 20.9999 22.2652 20.9999 22V8.82C21.5791 8.6098 22.0795 8.22637 22.4331 7.72183C22.7867 7.2173 22.9764 6.61612 22.9764 6C22.9764 5.38388 22.7867 4.7827 22.4331 4.27817C22.0795 3.77363 21.5791 3.3902 20.9999 3.18ZM19.9999 7C19.7347 7 19.4803 6.89464 19.2928 6.70711C19.1053 6.51957 18.9999 6.26522 18.9999 6C18.9999 5.73478 19.1053 5.48043 19.2928 5.29289C19.4803 5.10536 19.7347 5 19.9999 5C20.2651 5 20.5195 5.10536 20.707 5.29289C20.8946 5.48043 20.9999 5.73478 20.9999 6C20.9999 6.26522 20.8946 6.51957 20.707 6.70711C20.5195 6.89464 20.2651 7 19.9999 7Z" fill="black"/>
</svg>
