<svg width="482" height="370" viewBox="0 0 482 370" fill="none" xmlns="http://www.w3.org/2000/svg">
<g clip-path="url(#clip0_192_247)">
<path d="M438.746 337.771C429.506 347.443 418.919 355.795 407.296 362.579C407.029 362.739 406.758 362.89 406.486 363.045L387.67 346.762C387.868 346.583 388.086 346.381 388.322 346.16C402.342 333.144 471.944 242.136 476.582 219.974C476.262 221.821 480.767 294.225 438.746 337.771Z" fill="#33F022"/>
<path d="M410.927 365.721C410.571 365.804 410.209 365.882 409.846 365.953L395.729 353.737C396.005 353.643 396.327 353.531 396.696 353.407C402.753 351.31 420.792 344.98 438.745 337.77C458.034 330.02 477.232 321.262 481.361 315.653C480.475 316.956 453.193 356.48 410.927 365.721Z" fill="#33F022"/>
<path d="M438.485 96.902H436.475V43.0571C436.475 38.9646 435.65 34.9121 434.049 31.1311C432.447 27.3501 430.099 23.9146 427.139 21.0208C424.179 18.127 420.666 15.8314 416.798 14.2653C412.931 12.6991 408.787 11.8931 404.601 11.8931H287.924C283.738 11.8931 279.594 12.6991 275.726 14.2653C271.859 15.8314 268.346 18.1269 265.386 21.0207C262.426 23.9146 260.078 27.3501 258.476 31.131C256.874 34.912 256.05 38.9645 256.05 43.057V338.454C256.05 342.547 256.874 346.599 258.476 350.38C260.078 354.161 262.426 357.597 265.386 360.491C268.345 363.385 271.859 365.68 275.726 367.246C279.593 368.812 283.738 369.618 287.924 369.618H404.601C408.786 369.618 412.931 368.812 416.798 367.246C420.665 365.68 424.179 363.385 427.139 360.491C430.099 357.597 432.447 354.162 434.048 350.381C435.65 346.6 436.475 342.547 436.475 338.455V135.23H438.485V96.902Z" fill="#837D7D"/>
<path d="M429.69 43.2711V338.239C429.69 341.295 429.074 344.321 427.877 347.145C426.681 349.968 424.927 352.534 422.716 354.695C420.506 356.855 417.881 358.569 414.993 359.738C412.105 360.907 409.009 361.508 405.883 361.507H288.645C285.519 361.507 282.425 360.905 279.537 359.736C276.65 358.567 274.026 356.853 271.816 354.692C269.606 352.532 267.853 349.966 266.657 347.143C265.461 344.32 264.846 341.294 264.846 338.239V43.2711C264.846 40.2154 265.461 37.1896 266.657 34.3665C267.853 31.5434 269.606 28.9782 271.816 26.8175C274.026 24.6569 276.65 22.943 279.537 21.7737C282.425 20.6045 285.519 20.0028 288.645 20.003H302.872C302.174 21.682 301.908 23.503 302.098 25.3059C302.289 27.1088 302.929 28.8384 303.963 30.3425C304.998 31.8467 306.394 33.0793 308.03 33.9319C309.666 34.7845 311.491 35.2311 313.345 35.2323H380.186C382.041 35.234 383.868 34.7893 385.505 33.9375C387.143 33.0857 388.541 31.8529 389.576 30.3479C390.611 28.8429 391.251 27.112 391.44 25.3079C391.629 23.5037 391.361 21.6819 390.659 20.003H405.883C409.009 20.0019 412.105 20.6029 414.993 21.7718C417.881 22.9406 420.506 24.6543 422.716 26.8151C424.927 28.9758 426.681 31.5413 427.877 34.3649C429.074 37.1884 429.69 40.2148 429.69 43.2711V43.2711Z" fill="white"/>
<path d="M393.221 196.552H290.172C288.367 196.55 286.637 195.848 285.36 194.6C284.084 193.352 283.366 191.66 283.364 189.896V186.583C283.366 184.818 284.084 183.126 285.36 181.878C286.637 180.63 288.367 179.928 290.172 179.926H393.221C395.026 179.928 396.757 180.63 398.033 181.878C399.309 183.126 400.027 184.818 400.029 186.583V189.896C400.027 191.66 399.309 193.352 398.033 194.6C396.757 195.848 395.026 196.55 393.221 196.552Z" fill="#F0F0F0"/>
<path d="M393.221 225.112H290.172C288.367 225.11 286.637 224.408 285.36 223.16C284.084 221.913 283.366 220.221 283.364 218.456V215.143C283.366 213.378 284.084 211.686 285.36 210.438C286.637 209.19 288.367 208.488 290.172 208.486H393.221C395.026 208.488 396.757 209.19 398.033 210.438C399.309 211.686 400.027 213.378 400.029 215.143V218.456C400.027 220.221 399.309 221.913 398.033 223.16C396.757 224.408 395.026 225.11 393.221 225.112V225.112Z" fill="#F0F0F0"/>
<path d="M398.376 190.165H295.327C293.432 190.162 291.615 189.425 290.275 188.115C288.935 186.805 288.181 185.028 288.179 183.175V179.862C288.181 178.009 288.935 176.233 290.275 174.923C291.615 173.612 293.432 172.875 295.327 172.873H398.376C400.271 172.875 402.088 173.612 403.428 174.923C404.768 176.233 405.522 178.009 405.524 179.862V183.175C405.522 185.028 404.768 186.805 403.428 188.115C402.088 189.425 400.271 190.162 398.376 190.165V190.165ZM295.327 174.204C293.793 174.206 292.322 174.803 291.237 175.863C290.152 176.924 289.542 178.362 289.54 179.862V183.175C289.542 184.676 290.152 186.114 291.237 187.174C292.322 188.235 293.793 188.832 295.327 188.833H398.376C399.91 188.832 401.381 188.235 402.466 187.174C403.551 186.114 404.161 184.676 404.163 183.175V179.862C404.161 178.362 403.551 176.924 402.466 175.863C401.381 174.803 399.91 174.206 398.376 174.204H295.327Z" fill="#3F3D56"/>
<path d="M398.376 218.725H295.327C293.432 218.723 291.615 217.986 290.275 216.675C288.935 215.365 288.181 213.589 288.179 211.736V208.422C288.181 206.569 288.935 204.793 290.275 203.483C291.615 202.172 293.432 201.435 295.327 201.433H398.376C400.271 201.435 402.088 202.172 403.428 203.483C404.768 204.793 405.522 206.569 405.524 208.422V211.736C405.522 213.589 404.768 215.365 403.428 216.675C402.088 217.986 400.271 218.723 398.376 218.725V218.725ZM295.327 202.765C293.793 202.766 292.322 203.363 291.237 204.424C290.152 205.484 289.542 206.922 289.54 208.422V211.736C289.542 213.236 290.152 214.674 291.237 215.734C292.322 216.795 293.793 217.392 295.327 217.393H398.376C399.91 217.392 401.381 216.795 402.466 215.734C403.551 214.674 404.161 213.236 404.163 211.736V208.422C404.161 206.922 403.551 205.484 402.466 204.424C401.381 203.363 399.91 202.766 398.376 202.765H295.327Z" fill="#3F3D56"/>
<path d="M429.69 43.2711V107.431C419.263 110.113 408.346 110.42 397.778 108.33C387.21 106.24 377.274 101.807 368.733 95.3731C360.193 88.9392 353.275 80.6754 348.514 71.2175C343.752 61.7597 341.273 51.3599 341.267 40.8183C341.267 38.9367 341.344 37.0747 341.499 35.2323H380.186C382.041 35.234 383.868 34.7893 385.505 33.9375C387.143 33.0857 388.541 31.8529 389.576 30.3479C390.611 28.8429 391.251 27.112 391.44 25.3079C391.629 23.5037 391.361 21.6819 390.659 20.003H405.883C409.009 20.0019 412.105 20.6029 414.993 21.7718C417.881 22.9406 420.506 24.6543 422.717 26.8151C424.927 28.9758 426.681 31.5413 427.878 34.3649C429.074 37.1884 429.69 40.2148 429.69 43.2711V43.2711Z" fill="#F0F0F0"/>
<path d="M324.084 357.5C324.084 358.852 324.033 360.188 323.921 361.507H288.645C285.519 361.507 282.425 360.905 279.537 359.736C276.65 358.567 274.026 356.853 271.816 354.692C269.606 352.531 267.853 349.966 266.657 347.143C265.461 344.32 264.846 341.294 264.846 338.239V306.688C272.241 305.748 279.755 306.359 286.889 308.482C294.023 310.604 300.612 314.189 306.217 318.997C311.822 323.805 316.315 329.726 319.396 336.365C322.477 343.004 324.075 350.209 324.084 357.5H324.084Z" fill="#18A0FB"/>
<path d="M39.5685 302.14C40.5597 302.566 41.6834 302.591 42.693 302.208C43.7027 301.826 44.5159 301.067 44.9542 300.099L76.7331 229.68C77.4604 228.068 77.6827 226.282 77.3717 224.547C77.0607 222.812 76.2305 221.206 74.986 219.932C73.7416 218.659 72.1387 217.775 70.3803 217.392C68.6218 217.009 66.7867 217.144 65.1069 217.781H65.1069C63.1662 218.506 61.5423 219.865 60.5114 221.628C60.3474 221.907 60.1987 222.195 60.0659 222.489L28.287 292.908C28.0705 293.388 27.9527 293.905 27.9404 294.429C27.9281 294.954 28.0216 295.475 28.2155 295.964C28.4095 296.453 28.7 296.9 29.0706 297.279C29.4412 297.659 29.8845 297.963 30.3753 298.174L39.5685 302.14Z" fill="#18A0FB"/>
<path d="M75.4284 258.59L43.9951 251.76L51.7752 231.637C53.1006 226.718 56.185 222.427 60.4691 219.542C64.7531 216.656 69.9531 215.368 75.1256 215.909L75.4285 215.942L75.4284 258.59Z" fill="#837D7D"/>
<path d="M138.919 303.147C137.994 303.146 137.09 302.883 136.315 302.389C135.541 301.896 134.929 301.193 134.554 300.367L102.775 229.948C101.764 227.707 101.67 225.173 102.512 222.867C103.354 220.561 105.068 218.658 107.302 217.55C109.535 216.441 112.118 216.212 114.519 216.909C116.92 217.606 118.957 219.177 120.209 221.297V221.297C120.386 221.596 120.545 221.904 120.688 222.221L152.467 292.64C152.977 293.77 153.007 295.053 152.55 296.205C152.093 297.357 151.187 298.285 150.03 298.784L140.526 302.884L140.521 302.873C140.007 303.054 139.465 303.147 138.919 303.147V303.147Z" fill="#18A0FB"/>
<path d="M94.9605 278.966C93.8775 278.967 92.8392 279.388 92.0735 280.137C91.3077 280.886 90.8769 281.901 90.8757 282.96V364.841C90.8769 365.9 91.3077 366.915 92.0735 367.664C92.8392 368.412 93.8775 368.834 94.9605 368.835H105.009C106.092 368.834 107.13 368.412 107.896 367.664C108.661 366.915 109.092 365.9 109.093 364.841V282.96C109.092 281.901 108.661 280.886 107.896 280.137C107.13 279.388 106.092 278.967 105.009 278.966H94.9605Z" fill="#18A0FB"/>
<path d="M75.0866 278.966C74.0036 278.967 72.9653 279.388 72.1996 280.137C71.4338 280.886 71.003 281.901 71.0018 282.96V364.841C71.003 365.9 71.4338 366.915 72.1996 367.664C72.9653 368.412 74.0036 368.834 75.0866 368.835H85.1349C86.2178 368.834 87.2561 368.412 88.0219 367.664C88.7877 366.915 89.2184 365.9 89.2196 364.841V282.96C89.2184 281.901 88.7877 280.886 88.0219 280.137C87.2561 279.388 86.2178 278.967 85.1349 278.966H75.0866Z" fill="#18A0FB"/>
<path d="M89.7474 193.181C108.923 193.181 124.468 177.982 124.468 159.234C124.468 140.485 108.923 125.287 89.7474 125.287C70.5719 125.287 55.0271 140.485 55.0271 159.234C55.0271 177.982 70.5719 193.181 89.7474 193.181Z" fill="#18A0FB"/>
<path d="M101.302 173.484C103.552 173.423 106.353 173.347 108.511 171.805C109.154 171.328 109.682 170.718 110.058 170.02C110.434 169.322 110.65 168.552 110.69 167.763C110.729 167.203 110.635 166.642 110.415 166.123C110.195 165.604 109.856 165.142 109.423 164.772C108.296 163.841 106.65 163.623 104.877 164.133L106.714 151.003L105.365 150.822L103.205 166.258L104.332 165.752C105.638 165.167 107.43 164.869 108.544 165.789C108.818 166.03 109.031 166.329 109.167 166.663C109.303 166.997 109.359 167.358 109.329 167.716C109.296 168.303 109.134 168.876 108.855 169.396C108.575 169.916 108.184 170.371 107.708 170.73C106.029 171.93 103.796 172.084 101.264 172.154L101.302 173.484Z" fill="#2F2E41"/>
<path d="M120.719 152.135H113.386V153.466H120.719V152.135Z" fill="#2F2E41"/>
<path d="M97.572 152.135H90.2388V153.466H97.572V152.135Z" fill="#2F2E41"/>
<path d="M124.15 303.561L111.654 214.367C111.52 213.411 111.036 212.534 110.292 211.899C109.548 211.265 108.594 210.915 107.606 210.915H98.1738C98.2131 210.695 98.2335 210.473 98.235 210.25V206.922C98.2349 205.862 97.8046 204.847 97.0385 204.098C96.2725 203.349 95.2335 202.928 94.1502 202.928H85.9807C84.8974 202.928 83.8584 203.349 83.0924 204.098C82.3263 204.847 81.896 205.862 81.896 206.922V210.25C81.8974 210.473 81.9178 210.695 81.9571 210.915H72.5245C71.5371 210.915 70.5832 211.265 69.8392 211.9C69.0951 212.534 68.6113 213.411 68.4773 214.367L55.9807 303.561C55.9015 304.126 55.947 304.701 56.1141 305.247C56.2812 305.794 56.5661 306.299 56.9495 306.728C57.3329 307.158 57.8059 307.503 58.3369 307.739C58.8678 307.975 59.4443 308.097 60.0275 308.097H120.103C120.687 308.097 121.263 307.975 121.794 307.739C122.325 307.503 122.798 307.158 123.181 306.728C123.565 306.299 123.85 305.794 124.017 305.247C124.184 304.701 124.229 304.126 124.15 303.561V303.561Z" fill="#837D7D"/>
<path d="M104.702 258.59V215.942L105.005 215.909C110.184 215.368 115.39 216.661 119.677 219.553C123.963 222.446 127.047 226.745 128.367 231.672L136.136 251.76L104.702 258.59Z" fill="#837D7D"/>
<path d="M87.999 194.24L63.9838 185.126C60.0568 183.636 56.1078 182.191 52.2016 180.65C50.5284 180.08 48.9871 179.191 47.6665 178.036C46.5168 176.846 45.7332 175.364 45.4056 173.758C44.5726 170.316 44.7232 166.553 44.7826 163.04C44.8287 159.197 45.1522 155.362 45.7505 151.564C46.7993 144.427 49.2622 137.558 53.0011 131.342C59.736 120.538 71.3397 112.409 84.6871 113.058C90.8665 113.358 97.0813 115.526 101.672 119.657C102.151 120.217 102.689 120.726 103.276 121.176C103.684 121.326 104.128 121.355 104.553 121.26C105.113 121.225 105.674 121.198 106.235 121.18C108.182 121.099 110.133 121.179 112.066 121.419C115.59 121.791 118.929 123.147 121.686 125.324C123.98 127.254 125.847 129.978 126.039 133.005C126.132 134.395 125.897 135.787 125.352 137.074C124.808 138.361 123.968 139.508 122.898 140.427C120.033 142.788 115.945 141.959 112.508 141.781L99.9177 141.128L93.5386 140.798C92.2251 140.73 92.2289 142.727 93.5386 142.795L110.494 143.673C113.218 143.814 116.026 144.16 118.753 144C120.849 143.908 122.849 143.121 124.426 141.769C125.867 140.475 126.94 138.839 127.541 137.019C128.142 135.199 128.25 133.257 127.855 131.384C126.981 127.299 123.871 123.92 120.226 121.909C115.266 119.174 109.341 118.911 103.791 119.316L104.513 119.608C98.2348 113.02 88.6178 110.238 79.5893 111.212C70.0567 112.239 61.5782 117.439 55.4865 124.549C48.6947 132.476 44.9935 142.361 43.5546 152.525C42.8059 158.013 42.5593 163.555 42.818 169.086C42.8074 171.525 43.2342 173.947 44.079 176.242C45.043 178.476 46.7859 180.303 48.9978 181.398C51.5337 182.595 54.1408 183.642 56.805 184.534L65.6527 187.891L83.0322 194.487L87.456 196.166C88.682 196.631 89.2131 194.701 87.999 194.24Z" fill="#2F2E41"/>
<path d="M50.2392 126.381C48.1521 126.381 46.1119 125.776 44.3766 124.642C42.6413 123.508 41.2888 121.897 40.4901 120.012C39.6915 118.127 39.4825 116.052 39.8897 114.051C40.2968 112.049 41.3018 110.211 42.7776 108.768C44.2533 107.325 46.1336 106.343 48.1805 105.945C50.2275 105.546 52.3491 105.751 54.2773 106.532C56.2055 107.313 57.8535 108.635 59.013 110.332C60.1725 112.028 60.7914 114.023 60.7914 116.064C60.7883 118.799 59.6755 121.421 57.6973 123.356C55.719 125.29 53.0368 126.378 50.2392 126.381ZM50.2392 107.743C48.5561 107.743 46.9108 108.231 45.5113 109.145C44.1119 110.06 43.0211 111.359 42.377 112.88C41.733 114.4 41.5644 116.073 41.8928 117.687C42.2211 119.301 43.0316 120.783 44.2218 121.947C45.4119 123.111 46.9282 123.903 48.579 124.224C50.2297 124.545 51.9408 124.38 53.4957 123.751C55.0507 123.121 56.3798 122.054 57.3149 120.686C58.2499 119.318 58.749 117.709 58.749 116.064C58.7465 113.858 57.8491 111.743 56.2538 110.183C54.6584 108.623 52.4953 107.746 50.2392 107.743V107.743Z" fill="#2F2E41"/>
<path d="M226.635 190.318L203.795 173.238L186.327 195.569L209.166 212.649L226.635 190.318Z" fill="#F0F0F0"/>
<path d="M97.5541 37.8525C101.163 37.8497 104.722 38.6732 107.947 40.2569C111.172 41.8407 113.972 44.1408 116.124 46.973L129.461 29.9238L89.4448 0L58.8395 39.1248L76.0863 52.0219C77.8122 47.8368 80.7783 44.2516 84.6036 41.7268C88.4289 39.202 92.9388 37.8528 97.5541 37.8525V37.8525Z" fill="#F0F0F0"/>
<path d="M481.319 370H0.680791C0.500234 370 0.327072 369.93 0.199399 369.805C0.0717255 369.68 0 369.511 0 369.334C0 369.158 0.0717255 368.989 0.199399 368.864C0.327072 368.739 0.500234 368.669 0.680791 368.669H481.319C481.5 368.669 481.673 368.739 481.801 368.864C481.928 368.989 482 369.158 482 369.334C482 369.511 481.928 369.68 481.801 369.805C481.673 369.93 481.5 370 481.319 370Z" fill="#3F3D56"/>
<path d="M364.01 259.552H315.087C313.282 259.55 311.552 258.848 310.276 257.6C308.999 256.353 308.281 254.661 308.279 252.896V249.583C308.281 247.818 308.999 246.126 310.276 244.878C311.552 243.63 313.282 242.928 315.087 242.926H364.01C365.815 242.928 367.546 243.63 368.822 244.878C370.098 246.126 370.816 247.818 370.818 249.583V252.896C370.816 254.661 370.098 256.353 368.822 257.6C367.546 258.848 365.815 259.55 364.01 259.552V259.552Z" fill="#18A0FB"/>
<path d="M369.165 253.165H320.242C318.347 253.163 316.53 252.426 315.19 251.116C313.85 249.805 313.096 248.029 313.094 246.176V242.863C313.096 241.01 313.85 239.233 315.19 237.923C316.53 236.613 318.347 235.876 320.242 235.874H369.165C371.06 235.876 372.877 236.613 374.217 237.923C375.558 239.233 376.311 241.01 376.314 242.863V246.176C376.311 248.029 375.558 249.805 374.217 251.116C372.877 252.426 371.06 253.163 369.165 253.165V253.165ZM320.242 237.205C318.708 237.207 317.237 237.803 316.152 238.864C315.067 239.925 314.457 241.363 314.455 242.863V246.176C314.457 247.676 315.067 249.114 316.152 250.175C317.237 251.235 318.708 251.832 320.242 251.834H369.165C370.699 251.832 372.17 251.235 373.255 250.175C374.34 249.114 374.95 247.676 374.952 246.176V242.863C374.95 241.363 374.34 239.925 373.255 238.864C372.17 237.803 370.699 237.207 369.165 237.205H320.242Z" fill="#3F3D56"/>
</g>
<defs>
<clipPath id="clip0_192_247">
<rect width="482" height="370" fill="white"/>
</clipPath>
</defs>
</svg>
