<svg width="144" height="32" viewBox="0 0 144 32" fill="none" xmlns="http://www.w3.org/2000/svg">
<path d="M52.2057 25.2844C50.9352 25.2844 49.7974 24.9905 48.7924 24.4027C47.7874 23.8148 46.9909 23.0184 46.4031 22.0133C45.8152 21.0083 45.5213 19.88 45.5213 18.6284C45.5213 18.3061 45.6256 18.0406 45.8342 17.832C46.0428 17.6234 46.3083 17.5191 46.6306 17.5191C46.953 17.5191 47.2185 17.6234 47.4271 17.832C47.6357 18.0406 47.74 18.3061 47.74 18.6284C47.74 19.4818 47.9391 20.2593 48.3373 20.9609C48.7355 21.6436 49.2665 22.184 49.9302 22.5822C50.6128 22.9804 51.3714 23.1796 52.2057 23.1796C53.0401 23.1796 53.7891 22.9804 54.4528 22.5822C55.1355 22.165 55.6665 21.6151 56.0457 20.9324C56.444 20.2498 56.6431 19.4818 56.6431 18.6284V3.89422C56.6431 3.57185 56.7474 3.30637 56.956 3.09777C57.1646 2.88918 57.43 2.78489 57.7524 2.78489C58.0748 2.78489 58.3403 2.88918 58.5488 3.09777C58.7574 3.30637 58.8617 3.57185 58.8617 3.89422V18.6284C58.8617 19.88 58.5678 21.0083 57.98 22.0133C57.3921 23.0184 56.5957 23.8148 55.5906 24.4027C54.5856 24.9905 53.4573 25.2844 52.2057 25.2844ZM70.9295 25.1422C69.4125 25.1422 68.0566 24.8009 66.862 24.1182C65.6673 23.4356 64.7286 22.4969 64.046 21.3022C63.3633 20.1076 63.022 18.7517 63.022 17.2347C63.022 15.6987 63.3633 14.3333 64.046 13.1387C64.7286 11.944 65.6673 11.0053 66.862 10.3227C68.0566 9.64 69.4125 9.29866 70.9295 9.29866C72.4466 9.29866 73.7929 9.64 74.9686 10.3227C76.1633 11.0053 77.102 11.944 77.7846 13.1387C78.4673 14.3333 78.8181 15.6987 78.8371 17.2347C78.8371 18.7517 78.4863 20.1076 77.7846 21.3022C77.102 22.4969 76.1633 23.4356 74.9686 24.1182C73.7929 24.8009 72.4466 25.1422 70.9295 25.1422ZM70.9295 23.1511C72.0294 23.1511 73.0154 22.8951 73.8877 22.3831C74.76 21.8711 75.4427 21.1695 75.9357 20.2782C76.4288 19.387 76.6753 18.3724 76.6753 17.2347C76.6753 16.0969 76.4288 15.0824 75.9357 14.1911C75.4427 13.2809 74.76 12.5698 73.8877 12.0578C73.0154 11.5458 72.0294 11.2898 70.9295 11.2898C69.8297 11.2898 68.8436 11.5458 67.9713 12.0578C67.099 12.5698 66.4068 13.2809 65.8948 14.1911C65.4018 15.0824 65.1553 16.0969 65.1553 17.2347C65.1553 18.3724 65.4018 19.387 65.8948 20.2782C66.4068 21.1695 67.099 21.8711 67.9713 22.3831C68.8436 22.8951 69.8297 23.1511 70.9295 23.1511ZM89.7529 25.1422C88.2548 25.1422 86.9084 24.8009 85.7137 24.1182C84.5191 23.4166 83.5709 22.4684 82.8693 21.2738C82.1866 20.0791 81.8453 18.7233 81.8453 17.2062C81.8453 15.7081 82.1771 14.3618 82.8409 13.1671C83.5235 11.9724 84.4432 11.0338 85.6 10.3511C86.7567 9.64948 88.0651 9.29866 89.5253 9.29866C90.7958 9.29866 91.9431 9.57363 92.9671 10.1236C93.9911 10.6545 94.816 11.3656 95.4417 12.2569V3.89422C95.4417 3.55289 95.546 3.2874 95.7546 3.09777C95.9632 2.88918 96.2287 2.78489 96.5511 2.78489C96.8734 2.78489 97.1389 2.88918 97.3475 3.09777C97.5561 3.2874 97.6604 3.55289 97.6604 3.89422V17.32C97.6225 18.7991 97.2527 20.136 96.5511 21.3307C95.8684 22.5064 94.9297 23.4356 93.7351 24.1182C92.5594 24.8009 91.232 25.1422 89.7529 25.1422ZM89.7529 23.1511C90.8527 23.1511 91.8293 22.8951 92.6826 22.3831C93.5549 21.8521 94.2376 21.141 94.7306 20.2498C95.2426 19.3585 95.4986 18.344 95.4986 17.2062C95.4986 16.0874 95.2426 15.0824 94.7306 14.1911C94.2376 13.2809 93.5549 12.5698 92.6826 12.0578C91.8293 11.5458 90.8527 11.2898 89.7529 11.2898C88.672 11.2898 87.6954 11.5458 86.8231 12.0578C85.9508 12.5698 85.2586 13.2809 84.7466 14.1911C84.2346 15.0824 83.9786 16.0874 83.9786 17.2062C83.9786 18.344 84.2346 19.3585 84.7466 20.2498C85.2586 21.141 85.9508 21.8521 86.8231 22.3831C87.6954 22.8951 88.672 23.1511 89.7529 23.1511ZM103.919 25C103.578 25 103.303 24.9052 103.094 24.7156C102.905 24.507 102.81 24.232 102.81 23.8907V10.5502C102.81 10.2089 102.905 9.94341 103.094 9.75378C103.303 9.54518 103.578 9.44089 103.919 9.44089C104.241 9.44089 104.497 9.54518 104.687 9.75378C104.896 9.94341 105 10.2089 105 10.5502V23.8907C105 24.232 104.896 24.507 104.687 24.7156C104.497 24.9052 104.241 25 103.919 25ZM103.891 6.48266C103.473 6.48266 103.113 6.33096 102.81 6.02755C102.506 5.72415 102.355 5.35437 102.355 4.91822C102.355 4.44415 102.506 4.07437 102.81 3.80889C103.132 3.52444 103.502 3.38222 103.919 3.38222C104.317 3.38222 104.668 3.52444 104.972 3.80889C105.294 4.07437 105.455 4.44415 105.455 4.91822C105.455 5.35437 105.303 5.72415 105 6.02755C104.697 6.33096 104.327 6.48266 103.891 6.48266ZM111.26 31.656C110.918 31.656 110.643 31.5517 110.435 31.3431C110.245 31.1535 110.15 30.888 110.15 30.5467V17.1209C110.169 15.6418 110.52 14.3144 111.203 13.1387C111.904 11.944 112.843 11.0053 114.019 10.3227C115.213 9.64 116.55 9.29866 118.029 9.29866C119.546 9.29866 120.902 9.64948 122.097 10.3511C123.292 11.0338 124.23 11.9724 124.913 13.1671C125.614 14.3618 125.965 15.7176 125.965 17.2347C125.965 18.7327 125.624 20.0791 124.941 21.2738C124.278 22.4684 123.367 23.4166 122.211 24.1182C121.054 24.8009 119.745 25.1422 118.285 25.1422C117.015 25.1422 115.858 24.8767 114.815 24.3458C113.791 23.7959 112.966 23.0753 112.34 22.184V30.5467C112.34 30.888 112.236 31.1535 112.028 31.3431C111.838 31.5517 111.582 31.656 111.26 31.656ZM118.029 23.1511C119.129 23.1511 120.115 22.8951 120.988 22.3831C121.86 21.8711 122.542 21.1695 123.036 20.2782C123.548 19.368 123.804 18.3535 123.804 17.2347C123.804 16.0969 123.548 15.0824 123.036 14.1911C122.542 13.2999 121.86 12.5982 120.988 12.0862C120.115 11.5553 119.129 11.2898 118.029 11.2898C116.948 11.2898 115.972 11.5553 115.1 12.0862C114.227 12.5982 113.545 13.2999 113.052 14.1911C112.558 15.0824 112.312 16.0969 112.312 17.2347C112.312 18.3535 112.558 19.368 113.052 20.2782C113.545 21.1695 114.227 21.8711 115.1 22.3831C115.972 22.8951 116.948 23.1511 118.029 23.1511ZM130.745 15.4142C130.802 14.2385 131.105 13.1861 131.655 12.2569C132.224 11.3277 132.954 10.5976 133.845 10.0667C134.756 9.5357 135.761 9.27022 136.86 9.27022C137.733 9.27022 138.406 9.39348 138.88 9.64C139.354 9.88652 139.534 10.2468 139.42 10.7209C139.345 11.0053 139.212 11.195 139.022 11.2898C138.852 11.3846 138.633 11.4225 138.368 11.4036C138.121 11.3846 137.837 11.3656 137.515 11.3467C136.453 11.2519 135.505 11.3656 134.67 11.688C133.855 11.9914 133.201 12.4655 132.708 13.1102C132.233 13.755 131.996 14.523 131.996 15.4142H130.745ZM130.916 25C130.574 25 130.309 24.9052 130.119 24.7156C129.929 24.5259 129.835 24.2604 129.835 23.9191V10.5218C129.835 10.1804 129.929 9.91496 130.119 9.72533C130.309 9.5357 130.574 9.44089 130.916 9.44089C131.257 9.44089 131.522 9.5357 131.712 9.72533C131.902 9.91496 131.996 10.1804 131.996 10.5218V23.9191C131.996 24.2604 131.902 24.5259 131.712 24.7156C131.522 24.9052 131.257 25 130.916 25Z" fill="black"/>
<path fill-rule="evenodd" clip-rule="evenodd" d="M18.6926 2.96301H8.58307e-06L7.87056 9.63517H26.5631L18.6926 2.96301ZM7.87055 9.63517V25.4815L0 18.8094V2.96302L7.87055 9.63517Z" fill="#CCCCCC"/>
<path fill-rule="evenodd" clip-rule="evenodd" d="M7.87054 25.4814L26.5631 25.4814L18.6925 18.8093L-9.53674e-06 18.8093L7.87054 25.4814ZM18.6926 18.8093L18.6926 2.96292L26.5631 9.63508L26.5631 25.4814L18.6926 18.8093Z" fill="black"/>
</svg>
