<svg width="481" height="350" viewBox="0 0 481 350" fill="none" xmlns="http://www.w3.org/2000/svg">
<g clip-path="url(#clip0_192_296)">
<path d="M478.711 114.253C472.076 137.931 452.702 154.506 432.493 168.586C429.672 170.552 426.849 172.473 424.025 174.349C424.006 174.358 423.986 174.376 423.967 174.385C423.831 174.475 423.695 174.565 423.569 174.655C422.986 175.042 422.403 175.428 421.825 175.81L422.142 175.957C422.142 175.957 422.454 176.127 422.113 175.984C422.012 175.941 421.905 175.901 421.804 175.857C410.064 170.987 398.115 165.757 389.118 156.632C379.785 147.157 374.33 132.295 379.384 119.848C380.048 118.217 380.887 116.668 381.886 115.229C382.296 114.625 382.737 114.048 383.197 113.481C385.985 109.981 389.628 107.308 393.753 105.737C397.878 104.166 402.335 103.753 406.667 104.541C410.998 105.33 415.047 107.29 418.398 110.222C421.748 113.154 424.279 116.95 425.73 121.222C427.215 107.002 415.816 95.0901 404.846 86.3012C393.872 77.5166 381.402 67.9502 379.28 53.8089C378.095 45.9409 380.755 38.3161 385.6 32.1951C385.75 32.0091 385.9 31.8234 386.054 31.6425C391.952 24.5134 400.248 19.9355 409.283 18.8232C426.112 17.0241 442.457 26.1869 454.683 38.2226C474.359 57.5872 486.254 87.3313 478.711 114.253Z" fill="#F2F2F2"/>
<path d="M447.081 83.2825C450.31 88.4513 452.79 94.077 454.441 99.9819C455.838 105.26 456.459 110.723 456.285 116.189C455.983 127.426 452.621 138.407 447.333 148.187C443.242 155.603 438.256 162.457 432.493 168.586C429.671 170.552 426.849 172.473 424.025 174.349C424.006 174.358 423.986 174.376 423.967 174.385C423.831 174.475 423.695 174.565 423.569 174.655C422.986 175.042 422.403 175.428 421.825 175.81C421.825 175.81 422.454 176.127 422.113 175.984C422.012 175.941 421.905 175.901 421.804 175.857C422.856 166.983 421.825 157.979 418.798 149.599C415.77 141.219 410.834 133.707 404.404 127.694C397.957 121.772 390.242 117.501 381.886 115.229C382.296 114.625 382.737 114.048 383.197 113.481C386.424 114.412 389.565 115.635 392.583 117.135C403.371 122.464 412.204 131.224 417.775 142.119C422.774 152.012 424.926 163.167 423.977 174.274C424.46 173.825 424.942 173.365 425.411 172.91C434.332 164.354 442.256 154.533 447.619 143.199C452.271 133.601 454.558 122.973 454.277 112.252C453.84 100.561 449.311 89.7328 442.755 80.306C435.732 70.2171 426.928 61.2912 417.526 53.5586C407.895 45.6242 397.358 38.9318 386.147 33.6307C385.894 33.5093 385.696 33.2926 385.595 33.0254C385.493 32.7582 385.495 32.4609 385.6 32.1951C385.675 31.9566 385.838 31.758 386.054 31.6425C386.166 31.5932 386.286 31.5703 386.407 31.5756C386.528 31.5809 386.647 31.6142 386.754 31.6731C388.138 32.3286 389.512 32.993 390.876 33.6862C402.232 39.4603 412.848 46.6634 422.478 55.1299C431.78 63.2879 440.537 72.6084 447.081 83.2825Z" fill="white"/>
<path d="M370.428 249.83C384.019 249.83 395.037 238.496 395.037 224.514C395.037 210.533 384.019 199.199 370.428 199.199C356.836 199.199 345.818 210.533 345.818 224.514C345.818 238.496 356.836 249.83 370.428 249.83Z" fill="#2F2E41"/>
<path d="M351.218 210.865C355.195 206.774 356.001 200.971 353.019 197.902C350.036 194.834 344.394 195.663 340.417 199.754C336.441 203.845 335.635 209.649 338.617 212.717C341.6 215.785 347.242 214.956 351.218 210.865Z" fill="#2F2E41"/>
<path d="M396.078 202.826C397.735 198.835 394.885 193.758 389.713 191.486C384.541 189.213 379.005 190.606 377.348 194.596C375.691 198.586 378.541 203.663 383.713 205.936C388.885 208.208 394.421 206.816 396.078 202.826Z" fill="#2F2E41"/>
<path d="M422.545 333.21C418.317 336.232 413.848 338.882 409.187 341.133L408.498 339.88L401.902 327.971L401.325 326.926L397.951 320.835L397.944 320.828L387.292 301.576L381.816 291.692L398.076 279.961L404.4 293.717L407.83 301.189L421.947 331.9L422.545 333.21Z" fill="#A0616A"/>
<path d="M408.018 286.761L405.98 283.475L396.963 268.925C395.732 266.098 393.461 263.889 390.649 262.78C387.838 261.672 384.713 261.755 381.961 263.011C379.208 264.268 377.052 266.595 375.965 269.484C374.878 272.373 374.948 275.587 376.16 278.423L381.733 298.849C381.89 299.427 382.166 299.963 382.541 300.423C382.917 300.882 383.383 301.253 383.91 301.512C384.436 301.77 385.011 301.909 385.594 301.92C386.177 301.931 386.756 301.814 387.292 301.576C387.313 301.568 387.327 301.561 387.347 301.554L404.401 293.717L406.237 292.873C406.773 292.624 407.252 292.26 407.639 291.805C408.027 291.35 408.315 290.814 408.484 290.235C408.652 289.655 408.698 289.045 408.618 288.446C408.538 287.846 408.333 287.272 408.018 286.761H408.018Z" fill="#6C63FF"/>
<path d="M359.023 287.219L354.278 298.24L353.249 300.638L335.681 341.462L335.117 342.771C330.36 340.731 325.779 338.279 321.425 335.443L321.898 334.069L336.237 292.45L339.758 282.23L347.467 284.227L359.023 287.219Z" fill="#A0616A"/>
<path d="M389.535 240.863C395.068 230.451 391.348 217.397 381.226 211.706C371.105 206.014 358.415 209.841 352.882 220.252C347.349 230.664 351.069 243.718 361.19 249.41C371.311 255.101 384.002 251.275 389.535 240.863Z" fill="#A0616A"/>
<path d="M407.615 291.835C407.313 289.004 406.765 286.206 405.979 283.475C403.611 275.253 399.083 267.863 392.893 262.119C390.618 260.019 387.669 258.859 384.613 258.862H355.189C353.075 258.857 350.994 259.409 349.146 260.466C347.298 261.523 345.743 263.049 344.632 264.9C343.52 266.75 342.888 268.863 342.796 271.036C342.704 273.209 343.155 275.37 344.106 277.313L347.467 284.227L354.278 298.24L355.913 301.597L363.198 316.591L363.775 317.779L400.754 328.243L400.915 327.878C401.054 327.556 401.193 327.241 401.325 326.926C401.527 326.446 401.728 325.981 401.916 325.509C405.646 316.412 407.406 308.318 407.83 301.189C408.021 298.07 407.949 294.941 407.615 291.835V291.835Z" fill="#18A0FB"/>
<path d="M360.526 262.785C357.804 261.473 354.688 261.324 351.86 262.37C349.032 263.416 346.722 265.573 345.435 268.367L342.812 272.439L334.046 286.052C333.72 286.557 333.505 287.128 333.413 287.727C333.322 288.326 333.357 288.937 333.516 289.521C333.675 290.104 333.955 290.645 334.335 291.108C334.716 291.57 335.189 291.943 335.723 292.2L336.237 292.45L353.249 300.638L354.459 301.218C354.916 301.439 355.409 301.568 355.913 301.597C356.585 301.652 357.26 301.531 357.875 301.246C358.412 300.999 358.89 300.636 359.278 300.182C359.666 299.727 359.954 299.192 360.123 298.613L366.009 278.351C367.286 275.539 367.426 272.32 366.398 269.401C365.37 266.483 363.258 264.103 360.526 262.785V262.785Z" fill="#18A0FB"/>
<path d="M401.916 325.509C401.792 325.063 401.592 324.644 401.325 324.271C400.373 322.958 399.236 321.8 397.951 320.835L397.944 320.828C393.47 317.343 384.564 313.27 367.386 313.163H367.358C366.571 313.162 365.8 313.395 365.137 313.833C364.475 314.27 363.949 314.895 363.622 315.632L363.198 316.591L360.463 322.775C360.231 323.307 359.864 323.765 359.399 324.099C356.929 325.895 349.067 332.408 345.004 344.847C344.858 345.291 344.718 345.742 344.586 346.207C361.959 351.428 380.443 351.256 397.721 345.713L398.104 344.088L401.903 327.971L401.965 327.706C402.138 326.982 402.121 326.224 401.916 325.509V325.509Z" fill="#2F2E41"/>
<path d="M349.262 217.044C354.034 220.428 359.699 222.229 365.496 222.205C363.428 223.68 361.074 224.676 358.596 225.125C366.303 226.825 374.268 226.871 381.994 225.26C383.711 224.977 385.368 224.391 386.891 223.529C387.651 223.093 388.313 222.497 388.833 221.781C389.354 221.064 389.723 220.243 389.915 219.37C390.428 216.354 388.143 213.613 385.768 211.766C382.133 208.981 377.94 207.062 373.495 206.149C369.05 205.235 364.463 205.349 360.066 206.483C357.195 207.246 354.319 208.536 352.454 210.908C350.589 213.28 350.037 216.936 351.814 219.378L349.262 217.044Z" fill="#2F2E41"/>
<path d="M378.074 21.8142H0.755615V23.3699H378.074V21.8142Z" fill="#3F3D56"/>
<path d="M13.6101 16.3382C16.1158 16.3382 18.147 14.2487 18.147 11.6712C18.147 9.09375 16.1158 7.00427 13.6101 7.00427C11.1045 7.00427 9.07324 9.09375 9.07324 11.6712C9.07324 14.2487 11.1045 16.3382 13.6101 16.3382Z" fill="#3F3D56"/>
<path d="M26.6537 16.3382C29.1594 16.3382 31.1906 14.2487 31.1906 11.6712C31.1906 9.09375 29.1594 7.00427 26.6537 7.00427C24.1481 7.00427 22.1168 9.09375 22.1168 11.6712C22.1168 14.2487 24.1481 16.3382 26.6537 16.3382Z" fill="#3F3D56"/>
<path d="M39.6973 16.3382C42.203 16.3382 44.2342 14.2487 44.2342 11.6712C44.2342 9.09375 42.203 7.00427 39.6973 7.00427C37.1916 7.00427 35.1604 9.09375 35.1604 11.6712C35.1604 14.2487 37.1916 16.3382 39.6973 16.3382Z" fill="#3F3D56"/>
<path d="M296.357 112.095H82.205C81.5677 112.095 80.9366 111.966 80.3477 111.715C79.7589 111.464 79.2239 111.096 78.7732 110.633C78.3225 110.169 77.965 109.619 77.7211 109.013C77.4772 108.407 77.3517 107.758 77.3517 107.102C77.3517 106.447 77.4772 105.798 77.7211 105.192C77.965 104.586 78.3225 104.036 78.7732 103.572C79.2239 103.109 79.7589 102.741 80.3477 102.49C80.9366 102.239 81.5677 102.11 82.205 102.11H296.357C296.995 102.11 297.626 102.239 298.215 102.49C298.804 102.741 299.339 103.109 299.789 103.572C300.24 104.036 300.597 104.586 300.841 105.192C301.085 105.798 301.211 106.447 301.211 107.102C301.211 107.758 301.085 108.407 300.841 109.013C300.597 109.619 300.24 110.169 299.789 110.633C299.339 111.096 298.804 111.464 298.215 111.715C297.626 111.966 296.995 112.095 296.357 112.095V112.095Z" fill="#CCCCCC"/>
<path d="M296.357 165.764H82.205C81.5677 165.764 80.9366 165.635 80.3477 165.384C79.7589 165.133 79.2239 164.765 78.7732 164.301C78.3225 163.838 77.965 163.288 77.7211 162.682C77.4772 162.076 77.3517 161.427 77.3517 160.771C77.3517 160.116 77.4772 159.466 77.7211 158.861C77.965 158.255 78.3225 157.705 78.7732 157.241C79.2239 156.777 79.7589 156.41 80.3477 156.159C80.9366 155.908 81.5677 155.779 82.205 155.779H296.357C296.995 155.779 297.626 155.908 298.215 156.159C298.804 156.41 299.339 156.777 299.789 157.241C300.24 157.705 300.597 158.255 300.841 158.861C301.085 159.466 301.211 160.116 301.211 160.771C301.211 161.427 301.085 162.076 300.841 162.682C300.597 163.288 300.24 163.838 299.789 164.301C299.339 164.765 298.804 165.133 298.215 165.384C297.626 165.635 296.995 165.764 296.357 165.764V165.764Z" fill="#E6E6E6"/>
<path d="M296.357 186.358H82.205C80.9178 186.358 79.6834 185.832 78.7732 184.895C77.863 183.959 77.3517 182.689 77.3517 181.365C77.3517 180.041 77.863 178.771 78.7732 177.835C79.6834 176.899 80.9178 176.373 82.205 176.373H296.357C297.645 176.373 298.879 176.899 299.789 177.835C300.699 178.771 301.211 180.041 301.211 181.365C301.211 182.689 300.699 183.959 299.789 184.895C298.879 185.832 297.645 186.358 296.357 186.358Z" fill="#E6E6E6"/>
<path d="M261.474 90.8768H117.088C115.801 90.8768 114.567 90.3508 113.656 89.4145C112.746 88.4782 112.235 87.2084 112.235 85.8843C112.235 84.5602 112.746 83.2904 113.656 82.3541C114.567 81.4178 115.801 80.8918 117.088 80.8918H261.474C262.761 80.8918 263.996 81.4178 264.906 82.3541C265.816 83.2904 266.327 84.5602 266.327 85.8843C266.327 87.2084 265.816 88.4782 264.906 89.4145C263.996 90.3508 262.761 90.8768 261.474 90.8768Z" fill="#CCCCCC"/>
<path d="M157.704 145.17H82.4773C81.8395 145.171 81.2077 145.042 80.6182 144.791C80.0287 144.541 79.493 144.173 79.0417 143.71C78.5904 143.246 78.2324 142.695 77.9882 142.089C77.7439 141.483 77.6182 140.833 77.6182 140.177C77.6182 139.521 77.7439 138.871 77.9882 138.265C78.2324 137.659 78.5904 137.109 79.0417 136.645C79.493 136.181 80.0287 135.814 80.6182 135.563C81.2077 135.313 81.8395 135.184 82.4773 135.185H157.704C158.991 135.185 160.225 135.711 161.135 136.647C162.046 137.583 162.557 138.853 162.557 140.177C162.557 141.501 162.046 142.771 161.135 143.708C160.225 144.644 158.991 145.17 157.704 145.17Z" fill="#E6E6E6"/>
<path d="M296.63 145.17H221.403C220.765 145.171 220.134 145.042 219.544 144.791C218.955 144.541 218.419 144.173 217.968 143.71C217.516 143.246 217.158 142.695 216.914 142.089C216.67 141.483 216.544 140.833 216.544 140.177C216.544 139.521 216.67 138.871 216.914 138.265C217.158 137.659 217.516 137.109 217.968 136.645C218.419 136.181 218.955 135.814 219.544 135.563C220.134 135.313 220.765 135.184 221.403 135.185H296.63C297.268 135.184 297.899 135.313 298.489 135.563C299.078 135.814 299.614 136.181 300.065 136.645C300.517 137.109 300.875 137.659 301.119 138.265C301.363 138.871 301.489 139.521 301.489 140.177C301.489 140.833 301.363 141.483 301.119 142.089C300.875 142.695 300.517 143.246 300.065 143.71C299.614 144.173 299.078 144.541 298.489 144.791C297.899 145.042 297.268 145.171 296.63 145.17Z" fill="#E6E6E6"/>
<path d="M373.537 0H5.2878C3.88485 0.00219554 2.54006 0.576956 1.54867 1.5981C0.557283 2.61924 0.000308027 4.00332 0 5.4465V262.133C0.00176745 263.575 0.559437 264.958 1.55071 265.977C2.54199 266.997 3.88594 267.571 5.2878 267.573H280.66C280.591 267.057 280.535 266.535 280.479 266.019H5.2878C4.28609 266.019 3.32567 265.609 2.61734 264.88C1.90901 264.152 1.51065 263.164 1.50973 262.133V5.4465C1.51039 4.41532 1.90843 3.42647 2.61662 2.69666C3.3248 1.96685 4.28537 1.55561 5.2878 1.55307H373.537C374.54 1.55415 375.502 1.96469 376.212 2.69462C376.921 3.42455 377.32 4.41423 377.321 5.4465V162.765C377.823 162.801 378.33 162.844 378.832 162.894V5.4465C378.831 4.00218 378.273 2.61722 377.28 1.59596C376.287 0.574694 374.941 0.000663753 373.537 0Z" fill="#3F3D56"/>
<path d="M280.66 267.573C280.591 267.057 280.535 266.535 280.479 266.019C280.465 265.941 280.459 265.869 280.451 265.79C280.25 263.908 280.104 262.007 280.013 260.086C279.631 261.74 279.285 263.4 278.977 265.068C278.997 265.311 279.019 265.547 279.046 265.79C279.053 265.869 279.06 265.941 279.074 266.019C279.13 266.535 279.185 267.057 279.255 267.573C279.45 269.169 279.686 270.743 279.965 272.311C279.971 272.246 279.979 272.189 279.985 272.124C280.18 270.614 280.403 269.111 280.667 267.608C280.662 267.597 280.659 267.585 280.66 267.573ZM378.831 161.455C378.33 161.405 377.822 161.362 377.321 161.327C377.245 161.319 377.175 161.319 377.099 161.312C374.872 161.14 372.618 161.055 370.35 161.055C357.508 161.059 344.81 163.832 333.075 169.196C321.339 174.56 310.828 182.395 302.218 192.196C293.608 201.997 287.091 213.546 283.088 226.098C279.085 238.649 277.684 251.925 278.977 265.068C278.997 265.311 279.019 265.547 279.046 265.79C279.053 265.869 279.06 265.941 279.074 266.019C279.13 266.535 279.185 267.057 279.255 267.573C279.45 269.169 279.686 270.743 279.965 272.311C282.729 287.85 289.221 302.433 298.852 314.737C308.483 327.042 320.949 336.678 335.117 342.771C336.564 343.387 338.025 343.974 339.507 344.511C340.481 344.876 341.455 345.212 342.443 345.534C343.153 345.77 343.87 345.992 344.586 346.207C345.602 346.515 346.632 346.808 347.668 347.08C360.385 350.436 373.656 350.934 386.577 348.541C399.498 346.147 411.765 340.918 422.545 333.21H422.552C434.777 324.527 444.77 312.922 451.674 299.392C458.578 285.861 462.187 270.809 462.189 255.527C462.189 206.373 425.509 165.871 378.831 161.455V161.455ZM421.947 331.9C417.696 334.953 413.196 337.623 408.498 339.88C405.122 341.505 401.651 342.911 398.104 344.088C382.098 349.386 364.974 349.998 348.649 345.856C347.425 345.548 346.21 345.212 345.004 344.847C343.814 344.489 342.636 344.11 341.469 343.709C340.516 343.373 339.563 343.029 338.617 342.664C337.629 342.278 336.655 341.877 335.681 341.462C321.03 335.181 308.238 325.055 298.584 312.094C288.93 299.134 282.752 283.794 280.667 267.608C280.662 267.597 280.659 267.585 280.66 267.573C280.591 267.057 280.535 266.535 280.479 266.019C280.465 265.941 280.459 265.869 280.452 265.79C280.25 263.908 280.104 262.007 280.013 260.086C279.937 258.576 279.9 257.057 279.902 255.527C279.928 230.859 289.466 207.21 306.422 189.767C323.379 172.324 346.37 162.513 370.35 162.486C372.618 162.486 374.872 162.572 377.099 162.744C377.175 162.751 377.245 162.758 377.321 162.765C377.822 162.801 378.33 162.844 378.831 162.894C424.744 167.303 460.798 207.16 460.798 255.527C460.796 270.538 457.261 285.325 450.496 298.625C443.73 311.924 433.935 323.341 421.947 331.9V331.9ZM338.617 342.664C337.629 342.278 336.655 341.877 335.681 341.462C321.03 335.181 308.238 325.055 298.584 312.094C288.93 299.134 282.752 283.794 280.667 267.608C280.403 269.111 280.18 270.614 279.985 272.124C279.979 272.189 279.971 272.246 279.965 272.311C282.729 287.85 289.221 302.433 298.852 314.737C308.483 327.042 320.949 336.678 335.117 342.771C336.564 343.387 338.025 343.974 339.507 344.511C339.201 343.902 338.902 343.287 338.617 342.664ZM377.099 161.312C374.872 161.14 372.618 161.055 370.35 161.055C357.508 161.059 344.81 163.832 333.075 169.196C321.339 174.56 310.828 182.395 302.218 192.196C293.608 201.997 287.091 213.546 283.088 226.098C279.085 238.649 277.684 251.925 278.977 265.068C278.997 265.311 279.018 265.547 279.046 265.79C279.053 265.869 279.06 265.941 279.074 266.019H280.479C280.465 265.941 280.459 265.869 280.451 265.79C280.25 263.908 280.104 262.007 280.013 260.086C279.937 258.576 279.9 257.057 279.902 255.527C279.928 230.859 289.466 207.21 306.422 189.767C323.379 172.324 346.37 162.513 370.35 162.486C372.618 162.486 374.872 162.572 377.099 162.744C377.175 162.751 377.245 162.758 377.321 162.765V161.327C377.245 161.319 377.175 161.319 377.099 161.312H377.099Z" fill="#3F3D56"/>
<path d="M445.001 185.236C473.209 185.731 473.205 228.894 445 229.385C416.792 228.89 416.797 185.727 445.001 185.236Z" fill="#22FF0F"/>
<path d="M445.001 219.33C444.601 219.33 444.218 219.166 443.935 218.876C443.652 218.585 443.493 218.19 443.493 217.779V209.554C443.493 209.37 443.422 209.195 443.296 209.065C443.17 208.935 442.999 208.862 442.821 208.862H434.824C434.424 208.862 434.041 208.699 433.758 208.408C433.475 208.117 433.316 207.722 433.316 207.31C433.316 206.899 433.475 206.504 433.758 206.213C434.041 205.922 434.424 205.759 434.824 205.759H442.821C442.999 205.759 443.17 205.686 443.296 205.556C443.422 205.427 443.492 205.251 443.493 205.068V196.842C443.493 196.43 443.652 196.036 443.934 195.745C444.217 195.454 444.601 195.291 445.001 195.291C445.401 195.291 445.784 195.454 446.067 195.745C446.35 196.036 446.509 196.43 446.509 196.842V205.068C446.509 205.251 446.58 205.427 446.706 205.556C446.832 205.686 447.003 205.759 447.181 205.759H455.177C455.577 205.759 455.961 205.922 456.244 206.213C456.526 206.504 456.685 206.899 456.685 207.31C456.685 207.722 456.526 208.117 456.244 208.408C455.961 208.699 455.577 208.862 455.177 208.862H447.181C447.003 208.862 446.832 208.935 446.706 209.065C446.58 209.195 446.509 209.37 446.509 209.554V217.779C446.508 218.19 446.349 218.585 446.067 218.875C445.784 219.166 445.401 219.33 445.001 219.33V219.33Z" fill="white"/>
</g>
<defs>
<clipPath id="clip0_192_296">
<rect width="481" height="350" fill="white"/>
</clipPath>
</defs>
</svg>
