<svg width="720" height="800" viewBox="0 0 720 800" fill="none" xmlns="http://www.w3.org/2000/svg">
<path d="M673.051 14.9218H512.959V178.006H673.051V14.9218Z" stroke="#263238" stroke-miterlimit="10"/>
<path d="M666.329 50.731H518.519V168.586H666.329V50.731Z" stroke="#263238" stroke-miterlimit="10"/>
<path d="M523.166 42.5594H522.071V23.475H523.631L529.157 39.5753V23.4056H530.253V42.49H528.908L523.183 25.4182L523.166 42.5594Z" fill="#263238"/>
<path d="M538.501 32.2711V33.4162H533.522V41.4143H539.53V42.5593H532.311V23.475H539.53V24.62H533.522V32.2711H538.501Z" fill="#263238"/>
<path d="M545.87 42.5593H544.211L541.24 23.475H542.435L545.173 40.9458L547.845 23.5964H549.073L551.629 40.9458L554.285 23.5964H555.347L552.426 42.6808H550.849L548.393 27.0663L545.87 42.5593Z" fill="#263238"/>
<path d="M565.106 23.4056C567.944 23.4056 569.039 25.262 569.039 28.0553V30.1372C569.039 33.1734 567.695 34.6828 564.79 34.6828H562.517V42.5594H561.322V23.475L565.106 23.4056ZM564.79 33.5377C566.915 33.5377 567.828 32.5488 567.828 30.224V27.9685C567.828 25.904 567.147 24.4987 565.106 24.4987H562.517V33.4857L564.79 33.5377Z" fill="#263238"/>
<path d="M570.765 28.0899C570.765 25.2966 571.993 23.2494 574.765 23.2494C577.537 23.2494 578.815 25.2966 578.815 28.0899V37.8749C578.815 40.6682 577.587 42.7154 574.765 42.7154C571.944 42.7154 570.765 40.6682 570.765 37.8749V28.0899ZM571.96 37.9617C571.96 40.0436 572.757 41.5704 574.765 41.5704C576.773 41.5704 577.62 40.0436 577.62 37.9617V28.0031C577.62 25.9212 576.807 24.3945 574.765 24.3945C572.724 24.3945 571.96 25.9212 571.96 28.0031V37.9617Z" fill="#263238"/>
<path d="M588.524 28.0379V28.437H587.379V27.9512C587.379 25.9213 586.648 24.4813 584.657 24.4813C582.665 24.4813 581.935 25.9907 581.935 27.9512C581.935 32.6008 588.573 32.6876 588.573 37.9618C588.573 40.7377 587.428 42.7502 584.624 42.7502C581.819 42.7502 580.607 40.703 580.607 37.9271V36.9555H581.752V38.0139C581.752 40.0611 582.516 41.4837 584.524 41.4837C586.532 41.4837 587.296 39.9917 587.296 38.0139C587.296 33.4163 580.657 33.3469 580.657 28.0032C580.657 25.1406 581.852 23.2668 584.541 23.2495C587.229 23.2321 588.524 25.3314 588.524 28.0379Z" fill="#263238"/>
<path d="M593.586 42.5594V24.5507H589.868V23.4056H598.531V24.5507H594.781V42.5594H593.586Z" fill="#263238"/>
<path d="M518.519 168.585L591.793 89.3507L624.372 103.109L653.782 69.0345L666.296 81.4741" stroke="#263238" stroke-miterlimit="10"/>
<path d="M563.507 88.6352C565.491 79.8113 560.257 70.9765 551.816 68.9021C543.375 66.8276 534.924 72.299 532.94 81.1228C530.955 89.9466 536.189 98.7814 544.63 100.856C553.071 102.93 561.523 97.459 563.507 88.6352Z" stroke="#263238" stroke-miterlimit="10"/>
<path d="M512.129 183.211C497.833 183.211 484.121 177.274 474.012 166.706C463.903 156.138 458.223 141.805 458.223 126.86C458.215 119.454 459.603 112.119 462.308 105.274C465.013 98.4294 468.982 92.2092 473.989 86.9692C478.995 81.7291 484.941 77.5721 491.485 74.7359C498.03 71.8997 505.045 70.4398 512.129 70.4398C526.422 70.4398 540.129 76.3749 550.235 86.9395C560.341 97.5041 566.019 111.833 566.019 126.773C566.03 134.179 564.644 141.515 561.941 148.361C559.238 155.206 555.27 161.428 550.265 166.669C545.26 171.911 539.316 176.07 532.772 178.908C526.229 181.747 519.214 183.209 512.129 183.211Z" fill="#263238" stroke="#263238" stroke-linecap="round" stroke-linejoin="round"/>
<path d="M503.582 160.865H516.71V126.531H525.838L526.817 115.028H516.693V108.47C516.693 105.763 517.208 104.688 519.714 104.688H526.817V92.7512H517.739C507.963 92.7512 503.565 97.2621 503.565 105.85V115.028H496.744V126.669H503.565L503.582 160.865Z" fill="#18A0FB"/>
<path d="M144.646 289.598C139.897 289.598 135.194 288.62 130.807 286.72C126.419 284.82 122.432 282.035 119.074 278.525C115.716 275.015 113.052 270.847 111.235 266.26C109.417 261.674 108.482 256.758 108.482 251.793C108.486 241.768 112.298 232.155 119.079 225.067C125.86 217.978 135.056 213.993 144.646 213.989C154.237 213.989 163.436 217.972 170.218 225.062C177 232.151 180.81 241.767 180.81 251.793C180.812 256.758 179.878 261.675 178.062 266.263C176.245 270.851 173.581 275.019 170.223 278.53C166.864 282.041 162.877 284.826 158.488 286.725C154.099 288.624 149.396 289.6 144.646 289.598Z" fill="#263238" stroke="#263238" stroke-linecap="round" stroke-linejoin="round"/>
<path d="M125.377 264.458C128.846 266.783 132.858 268.066 136.977 268.169C141.095 268.272 145.162 267.191 148.732 265.043C152.303 262.894 155.24 259.762 157.224 255.988C159.208 252.213 160.162 247.942 159.981 243.639C161.528 242.469 162.86 241.017 163.915 239.354C162.477 240.027 160.949 240.466 159.384 240.655C161.032 239.625 162.265 238.003 162.853 236.092C161.312 237.045 159.629 237.719 157.874 238.087C156.681 236.762 155.103 235.884 153.385 235.591C151.667 235.297 149.904 235.604 148.369 236.463C146.834 237.322 145.614 238.687 144.896 240.345C144.178 242.003 144.002 243.862 144.397 245.634C141.251 245.464 138.174 244.603 135.366 243.109C132.558 241.614 130.082 239.519 128.099 236.96C127.088 238.778 126.778 240.932 127.231 242.981C127.684 245.031 128.867 246.823 130.539 247.994C129.286 247.957 128.061 247.599 126.971 246.953C126.945 248.881 127.565 250.758 128.722 252.259C129.88 253.761 131.503 254.793 133.311 255.176C132.146 255.502 130.927 255.549 129.742 255.315C130.245 256.959 131.228 258.397 132.552 259.427C133.877 260.457 135.477 261.027 137.128 261.058C135.479 262.404 133.593 263.397 131.576 263.981C129.56 264.564 127.454 264.727 125.377 264.458Z" fill="#18A0FB"/>
<path d="M650.944 622.099H554.932C552.292 622.099 550.152 624.336 550.152 627.096V699.564C550.152 702.324 552.292 704.561 554.932 704.561H650.944C653.584 704.561 655.724 702.324 655.724 699.564V627.096C655.724 624.336 653.584 622.099 650.944 622.099Z" fill="white" stroke="#263238" stroke-miterlimit="10"/>
<path d="M595.859 695.019H607.162V665.525H615.062L615.892 655.618H607.162V649.91C607.162 647.568 607.61 646.649 609.767 646.649H615.892V636.36H608.058C599.66 636.36 595.859 640.229 595.859 647.655V655.549H589.984V665.525H595.859V695.019Z" fill="#263238"/>
<path d="M572.773 611.62C572.232 611.618 571.695 611.727 571.193 611.943C570.692 612.158 570.236 612.474 569.852 612.874C569.468 613.274 569.164 613.749 568.956 614.272C568.748 614.795 568.641 615.356 568.641 615.923V627.252C568.641 628.402 569.078 629.506 569.856 630.319C570.634 631.132 571.69 631.589 572.79 631.589C573.89 631.589 574.946 631.132 575.724 630.319C576.502 629.506 576.939 628.402 576.939 627.252V615.923C576.939 615.353 576.831 614.79 576.621 614.264C576.411 613.739 576.104 613.262 575.716 612.862C575.329 612.462 574.869 612.146 574.364 611.933C573.859 611.719 573.318 611.613 572.773 611.62Z" fill="#263238"/>
<path d="M592.889 611.62C592.347 611.618 591.81 611.727 591.308 611.943C590.807 612.158 590.351 612.474 589.967 612.874C589.583 613.274 589.279 613.749 589.071 614.272C588.863 614.795 588.756 615.356 588.756 615.923V627.252C588.756 628.402 589.193 629.506 589.971 630.319C590.749 631.132 591.805 631.589 592.905 631.589C594.006 631.589 595.061 631.132 595.839 630.319C596.617 629.506 597.054 628.402 597.054 627.252V615.923C597.054 615.353 596.946 614.79 596.736 614.264C596.526 613.739 596.219 613.262 595.831 612.862C595.444 612.462 594.984 612.146 594.479 611.933C593.974 611.719 593.433 611.613 592.889 611.62Z" fill="#263238"/>
<path d="M612.987 611.62C611.896 611.62 610.849 612.073 610.077 612.88C609.305 613.687 608.871 614.782 608.871 615.923V627.252C608.871 628.402 609.308 629.506 610.086 630.319C610.865 631.132 611.92 631.589 613.02 631.589C614.121 631.589 615.176 631.132 615.954 630.319C616.732 629.506 617.169 628.402 617.169 627.252V615.923C617.17 615.352 617.061 614.787 616.85 614.26C616.639 613.733 616.33 613.256 615.941 612.856C615.551 612.455 615.09 612.14 614.583 611.928C614.076 611.715 613.533 611.611 612.987 611.62Z" fill="#263238"/>
<path d="M633.102 611.62C632.011 611.62 630.964 612.073 630.192 612.88C629.42 613.687 628.986 614.782 628.986 615.923V627.252C628.986 628.402 629.423 629.506 630.202 630.319C630.98 631.132 632.035 631.589 633.135 631.589C634.236 631.589 635.291 631.132 636.069 630.319C636.848 629.506 637.285 628.402 637.285 627.252V615.923C637.283 615.353 637.172 614.788 636.961 614.263C636.749 613.737 636.44 613.261 636.051 612.861C635.662 612.461 635.201 612.145 634.695 611.932C634.189 611.719 633.648 611.613 633.102 611.62Z" fill="#263238"/>
<path d="M85.0309 402.334C75.4396 402.334 66.2411 398.351 59.459 391.262C52.6769 384.172 48.8668 374.556 48.8668 364.53C48.8712 354.505 52.6827 344.892 59.4638 337.803C66.245 330.714 75.4409 326.73 85.0309 326.725C94.6209 326.73 103.817 330.714 110.598 337.803C117.379 344.892 121.191 354.505 121.195 364.53C121.195 374.556 117.385 384.172 110.603 391.262C103.821 398.351 94.6222 402.334 85.0309 402.334Z" fill="white" stroke="#263238" stroke-linecap="round" stroke-linejoin="round"/>
<path d="M100.034 374.991H99.7023V359.655C99.6825 355.964 98.3889 352.405 96.0593 349.632C93.7297 346.859 90.5208 345.058 87.0225 344.561V344.387C87.0225 343.835 86.8126 343.305 86.4391 342.915C86.0657 342.525 85.5591 342.305 85.0309 342.305C84.5027 342.305 83.9961 342.525 83.6226 342.915C83.2491 343.305 83.0393 343.835 83.0393 344.387V344.561C79.5297 345.06 76.3117 346.87 73.9807 349.658C71.6496 352.446 70.3632 356.021 70.3594 359.724V375.061H70.0275C69.3573 375.116 68.7318 375.434 68.2755 375.95C67.8192 376.466 67.5659 377.143 67.5659 377.845C67.5659 378.548 67.8192 379.225 68.2755 379.741C68.7318 380.257 69.3573 380.575 70.0275 380.63H100.034C100.704 380.575 101.33 380.257 101.786 379.741C102.242 379.225 102.496 378.548 102.496 377.845C102.496 377.143 102.242 376.466 101.786 375.95C101.33 375.434 100.704 375.116 100.034 375.061V374.991Z" fill="#263238"/>
<path d="M85.0309 386.824C86.5084 386.829 87.9357 386.263 89.0386 385.235C90.1414 384.207 90.842 382.79 91.0057 381.255H79.0727C79.2361 382.787 79.9343 384.202 81.0336 385.23C82.1329 386.257 83.5562 386.825 85.0309 386.824Z" fill="#263238"/>
<path d="M460.912 704.266C456.161 704.266 451.458 703.288 447.069 701.387C442.68 699.486 438.693 696.7 435.334 693.187C431.976 689.675 429.312 685.505 427.496 680.917C425.68 676.328 424.746 671.41 424.748 666.444C424.748 661.481 425.683 656.565 427.501 651.98C429.319 647.394 431.983 643.228 435.341 639.719C438.699 636.21 442.686 633.427 447.074 631.529C451.461 629.631 456.164 628.655 460.912 628.657C470.5 628.657 479.696 632.638 486.478 639.724C493.26 646.81 497.072 656.421 497.076 666.444C497.076 676.472 493.267 686.09 486.485 693.182C479.703 700.275 470.505 704.261 460.912 704.266Z" fill="white" stroke="#263238" stroke-linecap="round" stroke-linejoin="round"/>
<path d="M460.912 641.513C458.718 641.511 456.545 641.961 454.518 642.837C452.49 643.713 450.647 644.998 449.095 646.619C447.543 648.24 446.312 650.165 445.472 652.284C444.632 654.402 444.199 656.673 444.199 658.967C444.199 668.613 460.912 691.393 460.912 691.393C460.912 691.393 477.608 668.613 477.608 658.967C477.608 654.338 475.849 649.898 472.718 646.625C469.587 643.352 465.34 641.513 460.912 641.513ZM460.912 665.056C459.77 665.056 458.653 664.702 457.703 664.039C456.753 663.375 456.013 662.432 455.576 661.329C455.139 660.226 455.024 659.012 455.247 657.841C455.47 656.67 456.02 655.594 456.828 654.75C457.636 653.905 458.665 653.33 459.785 653.097C460.906 652.864 462.067 652.984 463.122 653.441C464.178 653.898 465.08 654.672 465.714 655.664C466.349 656.657 466.688 657.825 466.688 659.019C466.688 660.62 466.079 662.156 464.996 663.288C463.913 664.42 462.444 665.056 460.912 665.056Z" fill="#263238"/>
<path d="M656.686 305.698C651.795 305.705 647.08 307.607 643.451 311.035C639.822 314.463 637.536 319.176 637.036 324.262C636.969 324.919 636.936 325.579 636.936 326.24C636.934 330.578 638.26 334.804 640.72 338.297L638.247 345.931L645.849 343.398C648.826 345.445 652.277 346.615 655.838 346.784C659.398 346.953 662.936 346.115 666.079 344.359C669.222 342.602 671.854 339.992 673.697 336.803C675.54 333.615 676.527 329.965 676.552 326.24C676.552 325.702 676.552 325.181 676.552 324.644C676.138 319.448 673.86 314.609 670.176 311.095C666.492 307.582 661.673 305.654 656.686 305.698ZM668.304 334.724C667.888 335.46 667.326 336.094 666.656 336.585C665.986 337.076 665.224 337.411 664.42 337.569C663.358 337.673 663.358 338.471 657.483 336.077C651.608 333.683 647.907 327.402 647.624 327.038C646.703 325.789 646.001 324.379 645.55 322.874C645.366 322.214 645.266 321.531 645.251 320.844C645.237 319.907 645.41 318.977 645.759 318.114C646.107 317.251 646.624 316.473 647.276 315.83C647.472 315.604 647.71 315.421 647.975 315.293C648.24 315.165 648.527 315.094 648.819 315.084C649.201 315.084 649.583 315.084 649.915 315.084C650.247 315.084 650.745 314.876 651.226 316.073C651.707 317.27 652.886 320.219 653.002 320.514C653.089 320.676 653.135 320.858 653.135 321.044C653.135 321.229 653.089 321.411 653.002 321.573C652.869 321.85 652.769 322.058 652.637 322.284L652.437 322.579C652.139 322.909 651.823 323.342 651.558 323.62C651.292 323.897 650.977 324.244 651.309 324.834C652.17 326.378 653.25 327.776 654.512 328.981C655.881 330.25 657.454 331.254 659.159 331.948C659.74 332.26 660.072 332.208 660.42 331.809C660.769 331.41 661.864 330.074 662.246 329.467C662.628 328.859 663.026 328.964 663.541 329.172C664.055 329.38 666.86 330.907 667.491 331.115C668.121 331.323 668.453 331.566 668.603 331.809C668.751 332.797 668.625 333.809 668.237 334.724H668.304Z" fill="#263238"/>
<path d="M655.027 281.01C646.372 281.006 637.912 283.686 630.715 288.71C623.518 293.734 617.908 300.876 614.594 309.233C611.281 317.591 610.413 326.788 612.101 335.661C613.788 344.534 617.955 352.684 624.075 359.081C630.194 365.478 637.991 369.834 646.479 371.598C654.967 373.362 663.765 372.455 671.76 368.991C679.754 365.528 686.587 359.663 691.393 352.14C696.199 344.616 698.762 335.772 698.759 326.725C698.754 314.602 694.145 302.977 685.945 294.405C677.745 285.832 666.624 281.014 655.027 281.01ZM656.686 350.685C652.707 350.689 648.792 349.645 645.301 347.649L632.256 351.986L636.505 338.87C634.313 335.057 633.164 330.688 633.185 326.24C633.185 325.893 633.185 325.528 633.185 325.181C633.463 318.814 636.093 312.807 640.521 308.425C644.949 304.043 650.83 301.627 656.927 301.685C663.025 301.744 668.863 304.272 673.213 308.738C677.564 313.205 680.087 319.261 680.253 325.632C680.253 325.841 680.253 326.049 680.253 326.24C680.245 329.463 679.628 332.654 678.438 335.628C677.248 338.602 675.509 341.302 673.32 343.572C671.131 345.843 668.535 347.64 665.681 348.86C662.827 350.081 659.77 350.701 656.686 350.685Z" fill="#263238"/>
<path d="M536.643 561.237L550.899 552.754L536.643 544.287V561.237Z" fill="#263238" stroke="#263238" stroke-linecap="round" stroke-linejoin="round"/>
<path d="M542.236 507.038C536.42 506.919 530.64 508.015 525.234 510.259C519.828 512.504 514.904 515.853 510.751 520.111C506.598 524.368 503.299 529.449 501.047 535.055C498.795 540.662 497.635 546.682 497.635 552.762C497.635 558.843 498.795 564.863 501.047 570.469C503.299 576.076 506.598 581.156 510.751 585.414C514.904 589.671 519.828 593.021 525.234 595.265C530.64 597.51 536.42 598.605 542.236 598.487C553.689 598.253 564.598 593.334 572.618 584.784C580.639 576.234 585.132 564.737 585.132 552.762C585.132 540.787 580.639 529.29 572.618 520.741C564.598 512.191 553.689 507.271 542.236 507.038ZM568.359 566.633C568.053 567.85 567.445 568.96 566.597 569.853C565.749 570.746 564.691 571.388 563.529 571.716C559.28 572.914 542.236 572.914 542.236 572.914C542.236 572.914 525.174 572.914 520.926 571.716C519.764 571.388 518.705 570.746 517.857 569.853C517.009 568.96 516.402 567.85 516.096 566.633C514.591 557.494 514.591 548.152 516.096 539.013C516.406 537.8 517.015 536.694 517.863 535.805C518.71 534.916 519.767 534.275 520.926 533.947C525.174 532.75 542.236 532.75 542.236 532.75C542.236 532.75 559.28 532.75 563.529 533.947C564.688 534.275 565.744 534.916 566.592 535.805C567.439 536.694 568.049 537.8 568.359 539.013C569.886 548.15 569.886 557.496 568.359 566.633Z" fill="#263238" stroke="#263238" stroke-linecap="round" stroke-linejoin="round"/>
<path d="M178.619 630.132C169.969 630.129 161.511 632.806 154.316 637.826C147.121 642.846 141.511 649.984 138.195 658.336C134.88 666.688 134.007 675.88 135.688 684.751C137.369 693.622 141.527 701.772 147.639 708.173C153.75 714.573 161.539 718.936 170.021 720.71C178.504 722.483 187.299 721.589 195.295 718.138C203.291 714.688 210.129 708.837 214.945 701.325C219.761 693.813 222.338 684.977 222.352 675.934C222.36 669.924 221.236 663.971 219.042 658.416C216.848 652.86 213.629 647.811 209.567 643.558C205.506 639.304 200.682 635.928 195.372 633.625C190.061 631.321 184.369 630.134 178.619 630.132ZM166.62 695.158H157.558V664.588H166.62V695.158ZM162.039 660.58C160.969 660.597 159.918 660.281 159.02 659.672C158.123 659.063 157.418 658.189 156.997 657.16C156.576 656.132 156.458 654.995 156.656 653.896C156.855 652.796 157.362 651.784 158.113 650.986C158.864 650.189 159.825 649.643 160.873 649.419C161.922 649.194 163.01 649.3 164.001 649.725C164.991 650.149 165.839 650.871 166.435 651.8C167.032 652.729 167.35 653.823 167.35 654.942C167.359 656.425 166.805 657.851 165.81 658.908C164.814 659.965 163.458 660.566 162.039 660.58ZM200.544 695.158H191.532V679.109C191.532 674.703 189.872 672.256 186.553 672.256C182.935 672.256 181.043 674.807 181.043 679.109V695.158H172.329V664.588H181.026V668.7C181.952 667.134 183.251 665.846 184.796 664.961C186.34 664.076 188.078 663.625 189.839 663.651C196.029 663.651 200.477 667.607 200.477 675.796L200.544 695.158Z" fill="#263238"/>
<path d="M246.151 83.799H91.6861V167.631H246.151V83.799Z" stroke="#263238" stroke-miterlimit="10"/>
<path d="M117.56 119.018V134.633H115.901V119.018H117.56Z" fill="#263238"/>
<path d="M120.681 134.633H119.22V119.018H121.361L124.846 130.417V119.018H126.34V134.633H124.548L120.681 121.968V134.633Z" fill="#263238"/>
<path d="M130.19 134.633V120.545H127.402V119.018H134.622V120.614H131.85V134.633H130.19Z" fill="#263238"/>
<path d="M141.128 125.958V127.537H137.476V133.141H142.007V134.633H135.817V119.018H142.024V120.614H137.476V125.958H141.128Z" fill="#263238"/>
<path d="M146.887 119.018C149.243 119.018 150.206 120.285 150.206 122.627V123.911C150.206 125.646 149.625 126.721 148.331 127.138C149.708 127.572 150.223 128.751 150.223 130.434V132.898C150.175 133.546 150.283 134.196 150.538 134.789H148.878C148.637 134.186 148.541 133.531 148.596 132.88V130.313C148.596 128.578 147.799 127.971 146.405 127.971H145.21V134.633H143.551V119.018H146.887ZM146.455 126.444C147.783 126.444 148.579 125.993 148.579 124.292V122.783C148.579 121.36 148.082 120.614 146.92 120.614H145.26V126.444H146.455Z" fill="#263238"/>
<path d="M157.392 125.958V127.537H153.708V133.141H158.222V134.633H152.032V119.018H158.222V120.614H153.708V125.958H157.392Z" fill="#263238"/>
<path d="M166.288 122.731V123.165H164.628V122.644C164.628 121.222 164.114 120.389 162.969 120.389C161.824 120.389 161.309 121.222 161.309 122.61C161.309 126.079 166.371 126.496 166.371 130.92C166.371 133.314 165.276 134.858 162.969 134.858C160.662 134.858 159.649 133.314 159.649 130.92V130.018H161.21V131.024C161.21 132.429 161.774 133.262 162.985 133.262C164.197 133.262 164.745 132.429 164.745 131.024C164.745 127.554 159.766 127.172 159.766 122.731C159.766 120.302 160.828 118.793 163.085 118.793C165.342 118.793 166.288 120.337 166.288 122.731Z" fill="#263238"/>
<path d="M169.956 134.633V120.545H167.168V119.018H174.387V120.614H171.616V134.633H169.956Z" fill="#263238"/>
<path d="M180.893 125.958V127.537H177.209V133.141H181.74V134.633H175.532V119.018H181.74V120.614H177.209V125.958H180.893Z" fill="#263238"/>
<path d="M186.818 119.018C189.175 119.018 190.237 120.51 190.237 122.939V130.816C190.237 133.227 189.175 134.702 186.818 134.702H183.283V119.018H186.818ZM186.818 133.175C188.03 133.175 188.611 132.395 188.611 130.955V122.766C188.611 121.326 188.03 120.545 186.802 120.545H184.993V133.106L186.818 133.175Z" fill="#263238"/>
<path d="M117.278 160.83H115.768V145.042H117.909L121.394 156.441V145.042H122.888V160.796H121.228L117.361 148.061L117.278 160.83Z" fill="#263238"/>
<path d="M124.481 148.877C124.481 146.465 125.626 144.921 127.917 144.921C130.207 144.921 131.385 146.465 131.385 148.877V157.031C131.385 159.425 130.257 160.986 127.917 160.986C125.577 160.986 124.481 159.425 124.481 157.031V148.877ZM126.141 157.118C126.141 158.558 126.722 159.39 127.917 159.39C129.112 159.39 129.709 158.558 129.709 157.118V148.79C129.709 147.367 129.145 146.517 127.917 146.517C126.688 146.517 126.141 147.367 126.141 148.79V157.118Z" fill="#263238"/>
<path d="M135.169 160.83V146.673H132.381V145.042H139.601V146.639H136.812V160.796L135.169 160.83Z" fill="#263238"/>
<path d="M150.754 148.877V150.247H149.094V148.807C149.094 147.385 148.546 146.534 147.335 146.534C146.123 146.534 145.559 147.385 145.559 148.807V157.187C145.559 158.61 146.123 159.46 147.335 159.46C148.546 159.46 149.094 158.54 149.094 157.187V154.029H147.55V152.468H150.754V157.1C150.754 159.494 149.675 161.056 147.434 161.056C145.194 161.056 144.115 159.494 144.115 157.1V148.946C144.115 146.569 145.194 144.99 147.434 144.99C149.675 144.99 150.754 146.5 150.754 148.877Z" fill="#263238"/>
<path d="M152.198 148.877C152.198 146.465 153.343 144.921 155.65 144.921C157.957 144.921 159.118 146.465 159.118 148.877V157.031C159.118 159.425 157.973 160.986 155.65 160.986C153.326 160.986 152.198 159.425 152.198 157.031V148.877ZM153.857 157.118C153.857 158.558 154.438 159.39 155.65 159.39C156.861 159.39 157.392 158.558 157.392 157.187V148.859C157.392 147.437 156.828 146.586 155.6 146.586C154.372 146.586 153.807 147.437 153.807 148.859L153.857 157.118Z" fill="#263238"/>
<path d="M162.371 145.042V160.796H160.712V145.042H162.371Z" fill="#263238"/>
<path d="M165.691 160.83H164.031V145.042H166.155L169.657 156.441V145.042H171.134V160.796H169.475L165.691 148.096V160.83Z" fill="#263238"/>
<path d="M179.582 148.877V150.247H177.922V148.807C177.922 147.385 177.375 146.534 176.163 146.534C174.952 146.534 174.387 147.385 174.387 148.807V157.187C174.387 158.61 174.952 159.46 176.163 159.46C177.375 159.46 177.922 158.61 177.922 157.187V154.029H176.379V152.468H179.516V157.1C179.516 159.494 178.437 161.056 176.113 161.056C173.79 161.056 172.794 159.494 172.794 157.1V148.946C172.794 146.569 173.873 144.99 176.113 144.99C178.354 144.99 179.582 146.5 179.582 148.877Z" fill="#263238"/>
<path d="M228.443 53.3334H91.6861V83.8163H228.443V53.3334Z" fill="#18A0FB" stroke="#263238" stroke-miterlimit="10"/>
<path d="M122.539 65.0615V66.4148H120.88V64.9574C120.88 63.5521 120.332 62.6846 119.104 62.6846C117.876 62.6846 117.345 63.5521 117.345 64.9574V73.3025C117.345 74.7078 117.909 75.5753 119.104 75.5753C120.299 75.5753 120.88 74.7078 120.88 73.3025V70.1449H119.32V68.5661H122.539V73.1984C122.539 75.5926 121.461 77.1714 119.22 77.1714C116.979 77.1714 115.901 75.5926 115.901 73.1984V65.0615C115.901 62.6673 116.979 61.0885 119.22 61.0885C121.461 61.0885 122.539 62.6673 122.539 65.0615Z" fill="#263238"/>
<path d="M123.917 65.0615C123.917 62.6499 125.062 61.0885 127.369 61.0885C129.676 61.0885 130.838 62.6499 130.838 65.0615V73.1984C130.838 75.5926 129.692 77.1714 127.369 77.1714C125.045 77.1714 123.917 75.5926 123.917 73.1984V65.0615ZM125.577 73.3025C125.577 74.7425 126.157 75.5753 127.369 75.5753C128.581 75.5753 129.145 74.7425 129.145 73.3025V64.9574C129.145 63.5521 128.597 62.6846 127.369 62.6846C126.141 62.6846 125.577 63.5521 125.577 64.9574V73.3025Z" fill="#263238"/>
<path d="M134.157 61.2448V77.0154H132.497V61.2448H134.157Z" fill="#263238"/>
<path d="M137.31 77.0154H135.817V61.2448H137.958L141.443 72.6433V61.2448H142.937V77.0154H141.277L137.41 64.2635L137.31 77.0154Z" fill="#263238"/>
<path d="M151.301 65.0615V66.4148H149.642V64.9574C149.642 63.5521 149.094 62.6846 147.866 62.6846C146.638 62.6846 146.107 63.5521 146.107 64.9574V73.3025C146.107 74.7078 146.671 75.5753 147.866 75.5753C149.061 75.5753 149.642 74.7078 149.642 73.3025V70.1449H148.082V68.5661H151.235V73.1984C151.235 75.5926 150.156 77.1714 147.916 77.1714C145.675 77.1714 144.596 75.5926 144.596 73.1984V65.0615C144.596 62.6673 145.675 61.0885 147.916 61.0885C150.156 61.0885 151.301 62.6673 151.301 65.0615Z" fill="#263238"/>
<path d="M209.705 75.1069L218.435 65.3044H200.975L209.705 75.1069Z" fill="#263238"/>
<path d="M119.353 99.7951H122.672V104.792C122.672 107.325 121.461 108.765 119.137 108.765C116.813 108.765 115.602 107.325 115.602 104.792V96.6028C115.602 95.6227 115.974 94.6827 116.637 93.9897C117.3 93.2967 118.199 92.9073 119.137 92.9073C120.075 92.9073 120.974 93.2967 121.637 93.9897C122.3 94.6827 122.672 95.6227 122.672 96.6028V98.1989H120.432V96.464C120.432 95.3363 119.95 94.9025 119.203 94.9025C118.457 94.9025 117.975 95.3363 117.975 96.464V104.965C117.975 106.093 118.44 106.509 119.203 106.509C119.967 106.509 120.432 106.093 120.432 104.965V102.05H119.353V99.7951Z" fill="#263238"/>
<path d="M124 96.6028C124 95.6043 124.379 94.6467 125.055 93.9406C125.73 93.2346 126.646 92.838 127.601 92.838C128.556 92.838 129.473 93.2346 130.148 93.9406C130.823 94.6467 131.203 95.6043 131.203 96.6028V104.792C131.203 105.79 130.823 106.748 130.148 107.454C129.473 108.16 128.556 108.557 127.601 108.557C126.646 108.557 125.73 108.16 125.055 107.454C124.379 106.748 124 105.79 124 104.792V96.6028ZM126.373 104.948C126.373 106.076 126.854 106.509 127.601 106.509C128.348 106.509 128.829 106.076 128.829 104.948V96.464C128.829 95.3363 128.348 94.9025 127.601 94.9025C126.854 94.9025 126.373 95.3363 126.373 96.464V104.948Z" fill="#263238"/>
<path d="M132.73 92.8206H135.103V108.609H132.73V92.8206Z" fill="#263238"/>
<path d="M138.937 97.158V108.609H136.796V92.8206H139.767L142.206 102.259V92.8206H144.314V108.609H141.874L138.937 97.158Z" fill="#263238"/>
<path d="M149.575 99.7951H152.895V104.792C152.895 107.325 151.683 108.765 149.36 108.765C147.036 108.765 145.775 107.325 145.775 104.792V96.6028C145.775 95.6227 146.147 94.6827 146.81 93.9897C147.473 93.2967 148.372 92.9073 149.31 92.9073C150.247 92.9073 151.146 93.2967 151.809 93.9897C152.472 94.6827 152.845 95.6227 152.845 96.6028V98.1989H150.604V96.464C150.604 95.3363 150.123 94.9025 149.376 94.9025C148.629 94.9025 148.148 95.3363 148.148 96.464V104.965C148.148 106.093 148.613 106.509 149.376 106.509C150.14 106.509 150.604 106.093 150.604 104.965V102.05H149.525L149.575 99.7951Z" fill="#263238"/>
<path d="M103.603 106.648L99.5363 98.1643L100.715 97.557L103.686 103.751L109.212 93.8442L110.357 94.5382L103.603 106.648Z" fill="#263238"/>
<path d="M556.641 296.347C547.052 296.342 537.856 292.358 531.074 285.269C524.293 278.18 520.482 268.567 520.477 258.542C520.477 248.516 524.287 238.9 531.07 231.81C537.852 224.721 547.05 220.738 556.641 220.738C561.391 220.736 566.095 221.712 570.484 223.611C574.872 225.51 578.86 228.295 582.218 231.805C585.577 235.316 588.241 239.485 590.057 244.072C591.874 248.66 592.808 253.577 592.806 258.542C592.806 268.569 588.995 278.184 582.213 285.274C575.431 292.364 566.233 296.347 556.641 296.347Z" fill="white" stroke="#263238" stroke-linecap="round" stroke-linejoin="round"/>
<path d="M571.645 268.987H571.313V253.667C571.31 249.963 570.024 246.384 567.693 243.594C565.362 240.803 562.144 238.989 558.633 238.486C558.633 238.486 558.633 238.382 558.633 238.33C558.588 237.809 558.357 237.324 557.987 236.97C557.617 236.617 557.134 236.422 556.633 236.422C556.132 236.422 555.649 236.617 555.279 236.97C554.909 237.324 554.679 237.809 554.633 238.33C554.625 238.382 554.625 238.435 554.633 238.486C551.121 238.986 547.901 240.799 545.569 243.59C543.238 246.381 541.953 249.961 541.953 253.667V268.987H541.621C541.254 268.956 540.884 269.006 540.536 269.132C540.188 269.258 539.868 269.458 539.598 269.72C539.327 269.981 539.111 270.299 538.963 270.652C538.815 271.005 538.739 271.386 538.739 271.771C538.739 272.156 538.815 272.538 538.963 272.891C539.111 273.244 539.327 273.561 539.598 273.823C539.868 274.084 540.188 274.284 540.536 274.41C540.884 274.537 541.254 274.586 541.621 274.556H571.645C572.315 274.5 572.941 274.183 573.397 273.667C573.853 273.151 574.106 272.474 574.106 271.771C574.106 271.068 573.853 270.391 573.397 269.875C572.941 269.359 572.315 269.042 571.645 268.987Z" fill="#263238"/>
<path d="M556.642 280.836C558.115 280.833 559.537 280.264 560.635 279.238C561.734 278.211 562.433 276.798 562.6 275.267H550.733C550.899 276.789 551.591 278.195 552.679 279.22C553.767 280.246 555.176 280.821 556.642 280.836Z" fill="#263238"/>
<path d="M586.516 245.163C593.001 243.558 597.013 236.762 595.477 229.983C593.942 223.204 587.441 219.01 580.956 220.615C574.472 222.22 570.46 229.016 571.995 235.795C573.53 242.573 580.032 246.768 586.516 245.163Z" fill="#18A0FB" stroke="#263238" stroke-miterlimit="10" stroke-linecap="round"/>
<path d="M583.926 227.088C583.246 227.088 582.814 227.487 582.814 228.493V230.054H580.806V228.684C580.806 226.411 581.885 225.127 583.976 225.127C584.423 225.088 584.873 225.155 585.291 225.323C585.71 225.492 586.087 225.757 586.393 226.099C586.7 226.441 586.928 226.851 587.062 227.299C587.195 227.747 587.23 228.22 587.163 228.684C587.163 233.143 582.914 234.808 582.914 237.133C582.905 237.231 582.905 237.33 582.914 237.428H586.947V239.458H580.79V237.723C580.79 233.542 585.005 232.865 585.005 228.771C584.955 227.435 584.524 227.088 583.926 227.088Z" fill="#263238"/>
<path d="M538.9 441.422C534.145 441.422 529.437 440.442 525.045 438.538C520.653 436.634 516.663 433.843 513.304 430.325C509.945 426.807 507.283 422.632 505.469 418.037C503.656 413.442 502.727 408.519 502.736 403.549C502.74 393.524 506.551 383.911 513.333 376.822C520.114 369.733 529.31 365.749 538.9 365.744C548.49 365.749 557.686 369.733 564.467 376.822C571.248 383.911 575.059 393.524 575.064 403.549C575.073 408.519 574.144 413.442 572.33 418.037C570.517 422.632 567.854 426.807 564.495 430.325C561.136 433.843 557.146 436.634 552.754 438.538C548.362 440.442 543.654 441.422 538.9 441.422Z" fill="#263238" stroke="#263238" stroke-linecap="round" stroke-linejoin="round"/>
<path d="M538.9 386.633C544.194 386.633 544.825 386.633 546.916 386.754C548.174 386.771 549.42 387.011 550.6 387.466C551.454 387.807 552.229 388.333 552.874 389.01C553.536 389.679 554.041 390.498 554.351 391.404C554.795 392.636 555.031 393.939 555.048 395.256C555.048 397.442 555.164 398.084 555.164 403.618C555.164 409.152 555.164 409.812 555.048 411.998C555.031 413.314 554.795 414.617 554.351 415.849C554.045 416.752 553.539 417.567 552.874 418.226C552.234 418.913 551.458 419.446 550.6 419.788C549.42 420.242 548.174 420.482 546.916 420.499C544.825 420.603 544.194 420.62 538.9 420.62C533.605 420.62 532.975 420.62 530.883 420.499C529.626 420.48 528.38 420.24 527.199 419.788C526.341 419.446 525.565 418.913 524.925 418.226C524.26 417.567 523.754 416.752 523.448 415.849C523.003 414.618 522.773 413.314 522.768 411.998C522.668 409.812 522.651 409.152 522.651 403.618C522.651 398.084 522.651 397.442 522.768 395.256C522.773 393.94 523.003 392.635 523.448 391.404C523.758 390.498 524.263 389.679 524.925 389.01C525.571 388.333 526.346 387.807 527.199 387.466C528.38 387.013 529.626 386.773 530.883 386.754C532.975 386.65 533.605 386.633 538.9 386.633ZM538.9 382.903C533.522 382.903 532.842 382.903 530.717 383.024C529.074 383.063 527.448 383.386 525.904 383.978C524.588 384.508 523.394 385.324 522.403 386.373C521.392 387.41 520.611 388.665 520.112 390.051C519.537 391.661 519.228 393.363 519.199 395.082C519.1 397.285 519.067 397.997 519.067 403.618C519.067 409.239 519.067 409.968 519.199 412.171C519.228 413.89 519.537 415.592 520.112 417.203C520.611 418.588 521.392 419.843 522.403 420.881C523.39 421.931 524.585 422.742 525.904 423.258C527.444 423.866 529.072 424.194 530.717 424.229C532.842 424.333 533.522 424.351 538.9 424.351C544.277 424.351 544.957 424.351 547.082 424.229C548.727 424.194 550.355 423.866 551.895 423.258C553.214 422.742 554.409 421.931 555.397 420.881C556.412 419.848 557.195 418.591 557.687 417.203C558.269 415.593 558.583 413.892 558.616 412.171C558.699 409.968 558.733 409.257 558.733 403.618C558.733 397.979 558.733 397.285 558.616 395.082C558.583 393.362 558.269 391.66 557.687 390.051C557.195 388.662 556.412 387.405 555.397 386.373C554.405 385.324 553.211 384.508 551.895 383.978C550.352 383.386 548.725 383.063 547.082 383.024C544.957 382.92 544.294 382.903 538.9 382.903Z" fill="#18A0FB"/>
<path d="M538.9 392.983C536.88 392.98 534.905 393.604 533.225 394.776C531.545 395.948 530.237 397.616 529.466 399.567C528.694 401.518 528.495 403.665 528.893 405.735C529.291 407.805 530.269 409.704 531.701 411.193C533.134 412.681 534.958 413.69 536.94 414.092C538.923 414.495 540.975 414.273 542.837 413.454C544.698 412.635 546.285 411.256 547.395 409.492C548.506 407.729 549.09 405.66 549.073 403.549C549.073 402.151 548.81 400.766 548.297 399.475C547.785 398.183 547.034 397.01 546.088 396.022C545.141 395.035 544.018 394.251 542.782 393.718C541.545 393.185 540.221 392.911 538.883 392.913M538.883 410.471C537.57 410.471 536.287 410.064 535.195 409.302C534.103 408.539 533.252 407.455 532.75 406.187C532.247 404.919 532.116 403.524 532.372 402.177C532.628 400.831 533.26 399.595 534.189 398.624C535.117 397.654 536.3 396.993 537.588 396.725C538.876 396.457 540.211 396.595 541.424 397.12C542.637 397.645 543.674 398.535 544.403 399.676C545.132 400.817 545.522 402.159 545.522 403.531C545.522 405.372 544.822 407.137 543.577 408.438C542.332 409.74 540.644 410.471 538.883 410.471Z" fill="#18A0FB"/>
<path d="M551.862 392.566C551.862 393.061 551.721 393.545 551.458 393.956C551.194 394.367 550.82 394.688 550.382 394.876C549.945 395.065 549.463 395.113 548.999 395.015C548.535 394.918 548.11 394.678 547.776 394.327C547.442 393.976 547.216 393.529 547.126 393.043C547.035 392.557 547.085 392.055 547.269 391.598C547.452 391.142 547.761 390.753 548.156 390.481C548.551 390.208 549.015 390.065 549.488 390.068C549.801 390.068 550.111 390.133 550.4 390.259C550.69 390.384 550.952 390.569 551.172 390.801C551.393 391.033 551.568 391.309 551.686 391.612C551.804 391.915 551.864 392.239 551.862 392.566Z" fill="#18A0FB"/>
<path d="M243.28 424.177H51.738V619.289H243.28V424.177Z" stroke="#263238" stroke-miterlimit="10"/>
<path d="M235.231 467.013H58.3766V608.011H235.231V467.013Z" stroke="#263238" stroke-miterlimit="10"/>
<path d="M63.9365 457.228H62.6254V434.326H64.451L71.0897 453.671V434.326H72.4174V457.228H70.7578L63.9033 436.807L63.9365 457.228Z" fill="#263238"/>
<path d="M82.2924 444.927V446.298H76.3176V455.857H83.504V457.228H74.8737V434.326H83.504V435.697H76.3176V444.927H82.2924Z" fill="#263238"/>
<path d="M91.1218 457.228H89.1137L85.5786 434.327H86.9893L90.3086 455.146L93.4952 434.327H95.0221L98.0924 455.042L101.262 434.222H102.54L99.0384 457.124H97.1298L94.1756 438.386L91.1218 457.228Z" fill="#263238"/>
<path d="M114.125 434.326C117.444 434.326 118.822 436.547 118.822 439.896V442.377C118.822 446.003 117.162 447.807 113.743 447.807H111.021V457.228H109.594V434.326H114.125ZM113.743 446.471C116.282 446.471 117.378 445.291 117.378 442.515V439.826C117.378 437.345 116.565 435.732 114.058 435.732H111.021V446.471H113.743Z" fill="#263238"/>
<path d="M120.88 439.982C120.88 436.634 122.357 434.188 125.676 434.188C128.995 434.188 130.522 436.634 130.522 439.982V451.693C130.522 455.024 129.062 457.488 125.676 457.488C122.29 457.488 120.88 454.972 120.88 451.641V439.982ZM122.324 451.78C122.324 454.278 123.27 456.1 125.643 456.1C128.016 456.1 129.062 454.278 129.062 451.78V439.878C129.062 437.38 128.083 435.558 125.643 435.558C123.203 435.558 122.324 437.38 122.324 439.878V451.78Z" fill="#263238"/>
<path d="M142.14 439.861V440.347H140.796V439.757C140.796 437.328 139.916 435.506 137.476 435.506C135.037 435.506 134.157 437.241 134.157 439.722C134.157 445.291 142.074 445.395 142.074 451.711C142.074 455.007 140.696 457.436 137.344 457.436C133.991 457.436 132.63 455.007 132.63 451.711V450.531H134.157V451.797C134.157 454.261 135.053 456.031 137.476 456.031C139.899 456.031 140.796 454.296 140.796 451.797C140.796 446.298 132.879 446.211 132.879 439.826C132.879 436.356 134.323 434.17 137.543 434.136C140.762 434.101 142.14 436.512 142.14 439.861Z" fill="#263238"/>
<path d="M148.181 457.228V435.697H143.733V434.326H154.073V435.697H149.592V457.228H148.181Z" fill="#263238"/>
<path d="M58.3766 608.011L146.057 513.232L185.026 529.679L220.211 488.908L235.197 503.794" stroke="#263238" stroke-miterlimit="10"/>
<path d="M112.174 512.337C114.558 501.781 108.303 491.203 98.2049 488.711C88.1063 486.22 77.9877 492.758 75.6042 503.314C73.2207 513.871 79.475 524.449 89.5735 526.94C99.6721 529.432 109.791 522.894 112.174 512.337Z" stroke="#263238" stroke-miterlimit="10"/>
<path d="M354.776 800C419.883 800 472.662 786.352 472.662 769.517C472.662 752.682 419.883 739.034 354.776 739.034C289.67 739.034 236.89 752.682 236.89 769.517C236.89 786.352 289.67 800 354.776 800Z" fill="#263238"/>
<path d="M396.285 95.5965C396.285 95.5965 382.924 77.5878 359.672 78.0389C336.421 78.49 302.796 107.758 294.614 130.729C286.431 153.7 301.933 161.351 301.07 164.508C300.207 167.666 276.175 178.388 275.66 196.032C275.146 213.677 286.863 217.199 283.842 220.807C280.822 224.416 272.225 238.816 275.229 254.587C278.233 270.357 313.567 282.502 350.627 283.855C387.688 285.208 423.437 274.4 438.507 261.301C453.576 248.202 460.082 237.428 454.887 227.07C449.693 216.713 446.274 213.191 447.983 205.904C449.693 198.617 459.186 191.053 451.867 179.88C444.548 168.707 427.735 161.854 429.03 158.263C430.324 154.671 442.822 148.79 430.324 121.829C417.827 94.8678 403.62 92.4389 396.285 95.5965Z" fill="#263238" stroke="#263238" stroke-miterlimit="10" stroke-linecap="round"/>
<path d="M365.631 473.866C365.631 473.866 368.269 511.792 367.207 524.439C366.145 537.087 365.631 561.81 366.693 570.051C367.327 575.039 368.202 579.99 369.315 584.885C369.315 584.885 359.357 607.439 358.278 622.273C357.2 637.106 355.639 682.718 353.548 691.514C351.457 700.31 346.71 705.81 348.287 713.513C349.864 721.216 355.125 725.051 356.171 740.44C357.216 755.828 362.328 771.495 368.784 776.717C374.194 781.072 385.613 781.662 389.812 771.217C394.011 760.773 392.451 744.829 387.19 730.55C381.929 716.272 376.153 707.996 377.73 698.662C379.306 689.328 401.911 668.977 405.595 646.996C409.28 625.014 409.28 596.439 410.857 589.847C412.433 583.254 437.146 533.773 438.722 502.995C440.299 472.218 440.299 455.736 440.299 455.736L364.054 465.07L365.631 473.866Z" fill="white" stroke="#263238" stroke-miterlimit="10"/>
<path d="M365.481 710.755C363.059 712.934 361.284 715.794 360.369 718.996C356.985 711.995 354.09 704.747 351.706 697.309C349.548 703.052 347.076 707.719 348.287 713.513C349.864 721.199 355.125 725.051 356.17 740.44C357.216 755.829 362.328 771.495 368.784 776.717C374.194 781.072 385.613 781.662 389.812 771.217C394.011 760.773 392.451 744.829 387.19 730.55C384.783 723.975 382.211 718.701 380.385 713.982L379.987 713.791C379.987 713.791 369.547 707.163 365.481 710.755Z" fill="#18A0FB" stroke="#263238" stroke-miterlimit="10"/>
<path d="M410.856 589.847C412.433 583.236 437.146 533.773 438.722 502.995C440.299 472.218 440.299 455.736 440.299 455.736L364.054 465.07L365.631 473.866C365.631 473.866 368.269 511.792 367.207 524.439C366.145 537.087 365.631 561.81 366.693 570.051C367.327 575.039 368.202 579.99 369.315 584.885C369.315 584.885 359.357 607.439 358.278 622.273C357.531 632.682 356.519 658.585 355.258 675.952C356.602 680.428 360.237 686.795 370.195 688.322C374.791 688.959 379.462 688.634 383.937 687.368C391.355 676.819 403.089 662.315 405.662 646.996C409.28 625.014 409.28 596.439 410.856 589.847Z" fill="#263238" stroke="#263238" stroke-miterlimit="10"/>
<path d="M351.573 721.667L351.424 721.858C351.756 722.552 352.071 723.281 352.403 724.044C351.905 722.552 351.573 721.667 351.573 721.667Z" fill="white" stroke="#263238" stroke-miterlimit="10"/>
<path d="M389.746 771.217C390.11 770.325 390.42 769.409 390.675 768.476C387.555 772.918 383.372 776.526 377.597 776.821C365.979 777.428 359.623 760.461 358.461 748.941C357.797 743.553 356.687 738.235 355.141 733.049C355.62 735.487 355.942 737.956 356.104 740.44C357.15 755.828 362.261 771.495 368.718 776.717C374.194 781.072 385.613 781.662 389.746 771.217Z" fill="white" stroke="#263238" stroke-miterlimit="10"/>
<path d="M276.258 461.218C276.258 461.218 287.294 512.347 295.145 535.404C302.995 558.462 306.762 567.292 305.103 582.681C303.443 598.07 294.58 619.497 301.949 640.941C309.318 662.385 320.869 691.497 321.865 702.496C322.861 713.496 324.487 725.051 324.487 725.051C324.487 725.051 323.442 750.884 328.703 759.749C333.964 768.615 355.507 772.38 359.722 765.787C363.938 759.194 362.876 728.972 360.237 719.065C357.598 709.159 357.614 678.953 358.146 659.713C358.677 640.472 358.146 609.694 358.146 597.047C357.989 587.849 357.285 578.671 356.038 569.565C356.038 569.565 358.212 531.57 358.212 514.585C358.212 497.6 357.681 479.886 358.726 477.769C359.772 475.653 358.726 471.177 358.726 471.177L276.258 461.218Z" fill="white" stroke="#263238" stroke-miterlimit="10"/>
<path d="M358.212 659.643C358.726 640.403 358.212 609.625 358.212 596.977C358.055 587.78 357.351 578.602 356.104 569.496C356.104 569.496 358.212 531.57 358.212 514.585C358.212 497.6 357.681 479.886 358.726 477.769C359.772 475.653 358.726 471.177 358.726 471.177L276.191 461.27C276.191 461.27 287.294 512.347 295.145 535.404C302.995 558.461 306.762 567.292 305.103 582.681C303.443 598.07 294.58 619.497 301.949 640.941C307.277 656.451 314.795 675.986 318.961 689.762C323.658 684.557 332.238 677.843 342.96 682.163C348.51 684.285 353.627 687.481 358.046 691.583C357.897 680.74 358.013 668.995 358.212 659.643Z" fill="#263238" stroke="#263238" stroke-miterlimit="10"/>
<path d="M361.946 738.236C361.946 738.236 351.988 715.161 344.072 707.458C336.935 700.519 319.359 696.459 308.853 706.903C298.348 717.347 299.393 731.088 303.592 742.643C307.791 754.198 320.421 765.718 332.504 774.514C344.586 783.31 343.557 784.403 351.44 784.923C359.324 785.444 368.269 782.182 369.315 772.779C370.361 763.375 364.585 749.687 364.585 745.297C364.551 742.687 363.614 740.179 361.946 738.236Z" fill="#18A0FB" stroke="#263238" stroke-miterlimit="10"/>
<path d="M357.349 745.696C354.627 739.399 355.241 729.006 352.37 724.044C349.499 719.082 343.159 707.285 327.193 705.081C316.687 703.624 309.982 706.938 306.613 709.384C298.497 719.464 299.675 731.938 303.559 742.643C307.758 754.18 320.388 765.718 332.47 774.514C344.553 783.31 343.524 784.403 351.407 784.924C359.291 785.444 368.236 782.182 369.282 772.779C369.52 769.287 369.252 765.777 368.485 762.369L366.958 760.496C362.162 754.527 360.054 751.994 357.349 745.696Z" fill="white" stroke="#263238" stroke-miterlimit="10"/>
<path d="M366.693 766.828C364.054 760.773 359.855 759.68 356.735 750.884C353.615 742.088 352.005 731.088 349.366 725.606C346.761 720.8 343.031 716.764 338.526 713.878C334.02 710.992 328.887 709.35 323.608 709.106C309.401 708.551 301.518 720.644 301.518 720.644L301.285 720.731C299.742 728.035 301.103 735.721 303.626 742.643C307.824 754.18 320.455 765.718 332.537 774.514C344.619 783.31 343.59 784.403 351.474 784.923C359.357 785.444 368.303 782.182 369.348 772.779C369.348 772.397 369.348 771.998 369.431 771.599C368.366 770.11 367.448 768.512 366.693 766.828Z" fill="#4C4C4C" stroke="#263238" stroke-miterlimit="10"/>
<path d="M304.522 218.396C304.522 218.396 283.842 222.004 279.527 234.617C277.27 241.245 270.914 258.907 268.756 269.316C266.598 279.726 238.6 344.075 238.6 349.019C238.6 353.964 245.919 356.688 257.122 360.279C268.324 363.87 272.208 363.437 275.66 356.688C279.112 349.939 298.895 310.747 298.895 310.747C298.895 310.747 305.8 328.304 303.642 339.113C301.485 349.922 288.124 382.348 279.942 409.378C271.76 436.408 272.191 465.226 273.054 466.631C273.917 468.036 315.276 482.384 372.137 478.776C428.997 475.167 445.394 468.366 445.394 468.366C445.394 468.366 449.261 436.842 443.237 409.378C437.212 381.914 428.15 348.655 425.993 336.51C423.835 324.366 423.42 318.484 424.333 314.442C425.246 310.4 430.358 298.671 430.358 298.671C430.358 298.671 453.593 363.072 459.651 366.681C465.708 370.29 482.886 368.416 487.666 363.072C492.446 357.729 495.416 349.557 494.553 345.966C493.69 342.375 463.103 265.794 456.215 249.121C449.328 232.449 435.536 216.695 417.429 210.849C399.322 205.002 334.28 208.593 331.69 208.593C329.101 208.593 304.522 218.396 304.522 218.396Z" fill="#18A0FB" stroke="#263238" stroke-miterlimit="10" stroke-linecap="round"/>
<path d="M416.898 237.896C422.507 227.903 425.296 220.408 426.208 214.561C423.387 213.013 420.438 211.736 417.396 210.745C399.305 204.88 334.246 208.489 331.657 208.489C329.483 208.489 311.741 215.533 306.148 217.736C305.552 218.825 305.205 220.044 305.136 221.296C305.067 222.548 305.277 223.801 305.75 224.954C308.322 231.668 336.337 257.536 359.606 259.462C382.875 261.387 406.126 257.067 416.898 237.896Z" fill="#263238" stroke="#263238" stroke-miterlimit="10" stroke-linecap="round"/>
<path d="M298.464 309.376C295.595 301.594 293.157 293.647 291.161 285.573" stroke="#263238" stroke-miterlimit="10" stroke-linecap="round"/>
<path d="M346.744 454.382C379.912 455.125 413.05 451.841 445.494 444.597" stroke="#263238" stroke-miterlimit="10" stroke-linecap="round"/>
<path d="M284.29 448.935C302.522 451.846 320.907 453.584 339.342 454.14" stroke="#263238" stroke-miterlimit="10" stroke-linecap="round"/>
<path d="M275.793 447.373C275.793 447.373 277.22 447.686 279.892 448.171" stroke="#263238" stroke-miterlimit="10" stroke-linecap="round"/>
<path d="M290.896 450.167L290.016 465.486" stroke="#263238" stroke-miterlimit="10" stroke-linecap="round"/>
<path d="M307.775 452.491L307.343 471.524" stroke="#263238" stroke-miterlimit="10" stroke-linecap="round"/>
<path d="M326.579 470.136L326.446 473.38" stroke="#263238" stroke-miterlimit="10" stroke-linecap="round"/>
<path d="M327.326 453.879L326.794 465.486" stroke="#263238" stroke-miterlimit="10" stroke-linecap="round"/>
<path d="M417.943 474.299V460.836" stroke="#263238" stroke-miterlimit="10" stroke-linecap="round"/>
<path d="M427.719 451.086V466.406" stroke="#263238" stroke-miterlimit="10" stroke-linecap="round"/>
<path d="M438.822 446.905V464.549" stroke="#263238" stroke-miterlimit="10" stroke-linecap="round"/>
<path d="M389.065 453.879V467.811" stroke="#263238" stroke-miterlimit="10" stroke-linecap="round"/>
<path d="M430.324 298.567C430.324 298.567 433.942 288.557 433.942 281.131C433.942 281.131 437.129 288.192 436.067 294.473C435.468 298.136 434.523 301.727 433.245 305.195L430.324 298.567Z" fill="#263238" stroke="#263238" stroke-miterlimit="10" stroke-linecap="round"/>
<path d="M333.815 184.738C333.815 184.738 325.633 183.298 323.475 188.572C321.318 193.846 316.588 203.423 316.588 203.423C316.588 203.423 309.683 203.423 307.542 207.743C305.401 212.063 299.344 215.88 301.933 222.594C304.522 229.308 332.52 255.194 355.789 257.102C379.057 259.011 402.259 254.708 413.097 235.537C423.935 216.366 424.3 206.303 420.848 199.589C417.396 192.875 413.529 191.435 413.529 191.435C413.416 189.415 412.849 187.451 411.875 185.702C410.9 183.954 409.545 182.47 407.919 181.372C404.62 179.094 400.606 178.236 396.716 178.978L362.245 178.006L333.815 184.738Z" fill="#18A0FB" stroke="#263238" stroke-miterlimit="10" stroke-linecap="round"/>
<path d="M369.216 218.847C369.216 218.847 371.589 222.16 381.082 218.43C390.575 214.7 402.658 197.611 402.442 191.573C402.226 185.536 398.475 185.362 398.475 185.362L369.216 218.847Z" fill="#263238" stroke="#263238" stroke-miterlimit="10" stroke-linecap="round"/>
<path d="M317.882 205.349C318.214 208.274 319.11 211.099 320.517 213.651C321.923 216.204 323.81 218.432 326.064 220.2C333.815 226.428 360.535 234.08 355.789 236.977C351.042 239.874 341.997 233.628 338.993 230.748" stroke="#263238" stroke-miterlimit="10" stroke-linecap="round"/>
<path d="M413.578 208.663C414.447 206.366 415.006 203.955 415.238 201.497" stroke="#263238" stroke-miterlimit="10" stroke-linecap="round"/>
<path d="M374.311 227.383C374.311 227.383 382.509 233.143 397.148 227.383C402.714 225.128 407.392 220.978 410.425 215.602" stroke="#263238" stroke-miterlimit="10" stroke-linecap="round"/>
<path d="M382.094 127.172C373.43 135.92 363.803 143.56 353.415 149.935C337.483 159.373 331.11 159.928 331.11 159.928C331.11 159.928 334.296 179.359 334.827 185.952C335.358 192.545 355.009 209.825 360.851 214.266C366.693 218.708 370.942 219.818 376.784 217.598C382.626 215.377 400.152 192.059 402.276 185.397C404.4 178.735 404.931 156.528 404.931 156.528C404.931 156.528 382.094 145.493 382.094 127.172Z" fill="white" stroke="#263238" stroke-miterlimit="10" stroke-linecap="round"/>
<path d="M363.722 196.692C363.722 196.692 371.622 193.222 375.34 197.125" stroke="#263238" stroke-miterlimit="10" stroke-linecap="round"/>
<path d="M331.11 159.928H325.201C325.201 159.928 327.79 169.384 329.085 172.541C329.495 173.491 330.089 174.342 330.828 175.04C331.568 175.739 332.438 176.27 333.383 176.601L331.11 159.928Z" fill="white" stroke="#263238" stroke-miterlimit="10" stroke-linecap="round"/>
<path d="M404.931 156.597L408.35 158.644C408.341 162.266 408.052 165.88 407.487 169.453C406.647 172.731 405.185 175.799 403.189 178.475L404.931 156.597Z" fill="white" stroke="#263238" stroke-miterlimit="10" stroke-linecap="round"/>
<path d="M354.494 165.636C354.494 167.996 353.532 169.904 352.337 169.904C351.142 169.904 350.196 167.996 350.196 165.636C350.196 163.277 351.158 161.351 352.337 161.351C353.515 161.351 354.494 163.277 354.494 165.636Z" fill="#263238"/>
<path d="M385.513 165.636C385.513 167.996 384.551 169.904 383.356 169.904C382.161 169.904 381.215 167.996 381.215 165.636C381.215 163.277 382.177 161.351 383.356 161.351C384.534 161.351 385.513 163.277 385.513 165.636Z" fill="#263238"/>
<path d="M360.967 178.006C360.967 178.006 359.672 182.049 361.398 183.402C361.878 183.797 362.432 184.081 363.024 184.237C363.616 184.392 364.233 184.415 364.834 184.304C366.119 185.608 367.796 186.405 369.581 186.559C370.352 186.539 371.106 186.323 371.78 185.93C372.454 185.537 373.026 184.979 373.448 184.304C373.736 184.554 374.082 184.719 374.451 184.784C374.82 184.849 375.199 184.811 375.549 184.673C375.899 184.536 376.209 184.304 376.446 184.002C376.683 183.699 376.84 183.337 376.9 182.951C377.763 179.811 376.037 178.908 376.037 178.908" stroke="#263238" stroke-miterlimit="10" stroke-linecap="round"/>
<path d="M344.155 155.504L358.726 151.011" stroke="#263238" stroke-width="2" stroke-miterlimit="10" stroke-linecap="round"/>
<path d="M376.037 153.249C376.037 153.249 384.219 147.836 392.418 152.798" stroke="#263238" stroke-width="2" stroke-miterlimit="10" stroke-linecap="round"/>
<path d="M343.292 173.062L354.063 174.415" stroke="#263238" stroke-width="0.5" stroke-miterlimit="10" stroke-linecap="round"/>
<path d="M392.418 172.159L379.92 174.415" stroke="#263238" stroke-width="0.5" stroke-miterlimit="10" stroke-linecap="round"/>
<path d="M382.26 358.024H355.175C354.282 358.081 353.402 357.784 352.71 357.192C352.017 356.6 351.564 355.757 351.44 354.831L348.37 290.916C348.336 290.335 348.416 289.753 348.607 289.205C348.797 288.658 349.092 288.158 349.475 287.735C349.858 287.312 350.32 286.975 350.832 286.747C351.344 286.518 351.896 286.402 352.453 286.405H384.966C385.524 286.4 386.078 286.514 386.592 286.742C387.106 286.969 387.57 287.305 387.955 287.728C388.339 288.151 388.636 288.653 388.827 289.201C389.018 289.75 389.099 290.334 389.065 290.916L385.995 354.831C385.871 355.757 385.418 356.6 384.726 357.192C384.033 357.784 383.153 358.081 382.26 358.024Z" fill="#263238" stroke="#263238" stroke-miterlimit="10" stroke-linecap="round"/>
<path d="M322.612 348.551C326.494 339.222 329.663 329.586 332.089 319.734C335.109 306.218 337.267 303.529 340.271 301.725C343.275 299.921 357.515 293.154 358.809 295.861C360.104 298.567 359.241 299.469 356.652 301.274C354.063 303.078 343.723 308.474 343.723 308.474L342.428 313.436C342.428 313.436 356.652 309.862 360.535 309.862C364.419 309.862 365.697 312.568 363.108 314.824C360.519 317.079 345.018 320.219 343.723 321.122C342.606 322.278 341.725 323.659 341.134 325.181C346.495 323.712 351.982 322.806 357.515 322.475C363.971 322.475 361.813 325.632 360.104 327.419C358.394 329.206 345.449 332.381 345.449 332.381L343.275 336.406C343.275 336.406 351.457 333.7 355.341 333.7C359.224 333.7 363.954 330.993 362.66 334.151C361.365 337.309 354.478 339.095 351.457 339.998C348.436 340.9 343.706 342.704 342.843 345.862C341.98 349.019 342.412 356.271 338.545 358.926C334.678 361.58 321.699 367.479 321.699 367.479C321.699 367.479 318.745 357.122 322.612 348.551Z" fill="white" stroke="#263238" stroke-miterlimit="10" stroke-linecap="round"/>
<path d="M244.209 337.742C241.189 341.351 234.716 353.513 238.6 362.031C242.483 370.55 261.437 374.644 276.523 375.547C291.61 376.449 324.338 373.812 324.338 373.812C324.338 373.812 323.475 367.063 322.181 361.199C320.886 355.335 323.044 347.319 323.044 347.319C323.044 347.319 293.319 341.455 284.705 338.749C276.092 336.042 266.167 332 258.848 334.255" fill="#18A0FB"/>
<path d="M244.209 337.742C241.189 341.351 234.716 353.513 238.6 362.031C242.483 370.55 261.437 374.644 276.523 375.547C291.61 376.449 324.338 373.812 324.338 373.812C324.338 373.812 323.475 367.063 322.181 361.199C320.886 355.335 323.044 347.319 323.044 347.319C323.044 347.319 293.319 341.455 284.705 338.749C276.092 336.042 266.167 332 258.848 334.255" stroke="#263238" stroke-miterlimit="10" stroke-linecap="round"/>
<path d="M264.457 330.091C264.457 330.091 275.66 329.64 280.39 336.858" stroke="#263238" stroke-miterlimit="10" stroke-linecap="round"/>
<path d="M411.504 348.551C407.63 339.219 404.461 329.583 402.027 319.734C399.006 306.218 396.866 303.529 393.845 301.725C390.824 299.921 376.618 293.154 375.323 295.861C374.029 298.567 374.892 299.469 377.464 301.274C380.037 303.078 390.393 308.474 390.393 308.474L391.687 313.436C391.687 313.436 377.464 309.862 373.597 309.862C369.73 309.862 368.419 312.568 371.008 314.824C373.597 317.079 389.098 320.219 390.393 321.122C391.51 322.278 392.391 323.659 392.982 325.181C387.627 323.713 382.145 322.807 376.618 322.475C370.145 322.475 372.302 325.632 374.029 327.419C375.755 329.206 388.667 332.381 388.667 332.381L390.824 336.441C390.824 336.441 382.642 333.735 378.759 333.735C374.875 333.735 370.145 331.028 371.439 334.186C372.734 337.343 379.622 339.13 382.642 340.032C385.663 340.935 390.393 342.739 391.256 345.896C392.119 349.054 391.687 356.306 395.571 358.961C399.455 361.615 412.367 367.514 412.367 367.514C412.367 367.514 415.387 357.122 411.504 348.551Z" fill="white" stroke="#263238" stroke-miterlimit="10" stroke-linecap="round"/>
<path d="M489.923 337.742C492.944 341.351 499.4 353.513 495.516 362.031C491.632 370.55 472.696 374.644 457.609 375.547C442.523 376.449 409.778 373.812 409.778 373.812C409.778 373.812 410.641 367.063 411.935 361.199C413.23 355.335 411.072 347.319 411.072 347.319C411.072 347.319 440.813 341.455 449.427 338.749C458.041 336.042 467.949 332 475.268 334.255" fill="#18A0FB"/>
<path d="M489.923 337.742C492.944 341.351 499.4 353.513 495.516 362.031C491.632 370.55 472.696 374.644 457.609 375.547C442.523 376.449 409.778 373.812 409.778 373.812C409.778 373.812 410.641 367.063 411.935 361.199C413.23 355.335 411.072 347.319 411.072 347.319C411.072 347.319 440.813 341.455 449.427 338.749C458.041 336.042 467.949 332 475.268 334.255" stroke="#263238" stroke-miterlimit="10" stroke-linecap="round"/>
<path d="M469.675 330.091C469.675 330.091 458.472 329.64 453.726 336.858" stroke="#263238" stroke-miterlimit="10" stroke-linecap="round"/>
</svg>
