<svg width="733" height="709" viewBox="0 0 733 709" fill="none" xmlns="http://www.w3.org/2000/svg">
<path d="M536.247 84.0615C536.247 84.0615 522.702 56.0074 501.416 71.8614C480.131 87.7153 489.052 109.659 478.951 113.334C468.85 117.008 460.974 103.569 450.854 109.659C440.734 115.748 444.101 125.513 437.309 125.513C430.517 125.513 418.21 119.423 412.58 121.859C406.949 124.295 399.034 137.713 399.034 137.713C399.034 137.713 341.738 141.367 348.472 148.695C355.206 156.024 515.91 148.695 515.91 148.695C515.91 148.695 478.835 158.438 499.056 163.394C519.277 168.35 609.197 163.394 609.197 163.394C609.197 163.394 622.742 145.104 615.931 132.904C609.12 120.704 583.345 134.122 577.714 126.815C572.084 119.507 586.712 114.614 574.348 99.9784C561.983 85.3424 547.47 88.9332 536.247 84.0615Z" fill="white" stroke="#2E353A" stroke-linecap="round" stroke-linejoin="round"/>
<g style="mix-blend-mode:multiply" opacity="0.51">
<path d="M617.847 142.291C617.702 141.522 617.702 140.729 617.847 139.96C617.763 137.448 617.097 135 615.912 132.841C609.178 120.641 583.326 134.059 577.695 126.752C572.064 119.444 586.693 114.551 574.328 99.9155C565.911 89.9411 556.468 88.4712 547.741 87.0013C545.927 87.8285 544.195 88.8558 542.574 90.0671C521.289 105.921 530.21 127.865 520.089 131.518C509.969 135.172 502.113 121.775 491.993 127.865C481.873 133.954 485.259 143.718 478.448 143.718C471.636 143.718 459.349 137.629 453.737 140.065C450.312 141.556 445.997 147.12 443.25 151.236C481.099 150.27 515.832 148.695 515.832 148.695C515.832 148.695 478.757 158.438 498.978 163.394C519.199 168.35 609.12 163.394 609.12 163.394C609.12 163.394 617.092 152.727 617.847 142.291Z" fill="#18A0FB"/>
</g>
<path d="M175.055 427.493C175.055 427.493 166.715 410.148 153.499 419.955C140.283 429.761 145.759 443.347 139.586 445.615C133.414 447.883 128.46 439.567 122.171 443.347C115.882 447.127 117.991 453.153 113.831 453.153C109.671 453.153 102.008 449.395 98.5252 450.886C95.0421 452.376 90.1852 460.713 90.1852 460.713C90.1852 460.713 54.7549 462.96 58.9346 467.6C63.1142 472.241 162.536 467.6 162.536 467.6C162.536 467.6 139.586 473.627 152.106 476.651C164.626 479.675 220.257 476.651 220.257 476.651C220.257 476.651 228.597 465.333 224.437 457.752C220.277 450.172 204.255 458.508 200.791 453.972C197.327 449.437 206.345 446.434 198.701 437.383C191.058 428.333 182.002 430.517 175.055 427.493Z" fill="white" stroke="#2E353A" stroke-linecap="round" stroke-linejoin="round"/>
<g style="mix-blend-mode:multiply" opacity="0.51">
<path d="M220.257 476.546C220.257 476.546 228.597 465.228 224.437 457.647C220.277 450.067 204.255 458.403 200.791 453.867C197.327 449.332 206.345 446.329 198.701 437.278C191.348 428.564 182.718 430.307 175.887 427.766C166.715 438.034 170.798 450.487 165.109 452.712C158.859 455.19 153.983 446.14 147.694 450.256C141.405 454.371 143.514 460.923 139.354 460.923C135.194 460.923 127.531 456.828 124.048 458.466C120.565 460.104 116.173 468.272 115.747 469.07C139.877 468.482 162.497 467.453 162.497 467.453C162.497 467.453 139.548 473.48 152.067 476.504C155.576 477.177 159.128 477.55 162.691 477.617C177.261 477.071 188.02 476.546 188.02 476.546C188.02 476.546 186.356 477.008 184.15 477.764C202.107 477.533 220.257 476.546 220.257 476.546Z" fill="#18A0FB"/>
</g>
<path d="M267.936 53.7186C267.936 53.7186 259.596 36.3738 246.38 46.1801C233.164 55.9865 238.64 69.5726 232.467 71.8404C226.295 74.1082 221.341 65.7928 215.052 69.5726C208.763 73.3523 210.873 79.3789 206.712 79.3789C202.552 79.3789 194.889 75.5992 191.406 77.111C187.923 78.6229 183.066 86.9384 183.066 86.9384C183.066 86.9384 147.597 89.1852 151.777 93.7209C155.957 98.2566 255.378 93.7209 255.378 93.7209C255.378 93.7209 232.429 99.7475 244.948 102.771C257.468 105.795 313.1 102.771 313.1 102.771C313.1 102.771 321.44 91.4531 317.28 83.8726C313.119 76.2921 297.097 84.6285 293.634 80.0928C290.17 75.5572 299.187 72.5543 291.544 63.504C283.9 54.4536 274.883 56.7424 267.936 53.7186Z" fill="white" stroke="#2E353A" stroke-linecap="round" stroke-linejoin="round"/>
<g style="mix-blend-mode:multiply" opacity="0.51">
<path d="M313.139 102.771C313.139 102.771 321.479 91.4531 317.318 83.8726C313.158 76.2921 297.136 84.6285 293.672 80.0928C290.209 75.5571 299.226 72.5543 291.582 63.5039C285.274 56.0285 278.037 56.2594 271.768 54.8735C259.113 64.6589 264.453 77.972 258.223 80.1978C251.992 82.4237 247.096 74.1502 240.807 77.93C234.519 81.7097 236.647 87.7363 232.468 87.7363C228.288 87.7363 220.645 83.9566 217.161 85.4685C213.678 86.9803 208.822 95.2958 208.822 95.2958C232.874 94.7078 255.398 93.6789 255.398 93.6789C255.398 93.6789 232.448 99.7055 244.968 102.729C246.117 102.995 247.28 103.185 248.451 103.296C266.64 102.75 281.211 102.078 281.211 102.078C281.211 102.078 278.173 102.876 274.922 104.031C293.517 103.842 313.139 102.771 313.139 102.771Z" fill="#18A0FB"/>
</g>
<path d="M604.302 146.889C604.302 146.889 595.962 129.544 582.745 139.351C569.529 149.157 575.102 162.743 568.852 165.011C562.602 167.279 557.726 158.963 551.437 162.743C545.148 166.523 547.276 172.55 543.097 172.55C538.917 172.55 531.274 168.77 527.791 170.282C524.308 171.794 519.451 180.088 519.451 180.088C519.451 180.088 483.982 182.356 488.161 186.892C492.341 191.427 591.763 186.892 591.763 186.892C591.763 186.892 568.833 192.918 581.333 195.942C593.833 198.966 649.484 195.942 649.484 195.942C649.484 195.942 657.824 184.624 653.664 177.043C649.504 169.463 633.501 177.799 630.018 173.264C626.535 168.728 635.572 165.725 627.928 156.654C620.285 147.582 611.268 149.913 604.302 146.889Z" fill="white" stroke="#2E353A" stroke-linecap="round" stroke-linejoin="round"/>
<g style="mix-blend-mode:multiply" opacity="0.51">
<path d="M649.504 195.942C649.504 195.942 657.844 184.624 653.683 177.043C649.523 169.463 633.521 177.799 630.037 173.264C626.554 168.728 635.01 165.893 628.547 157.452C627.765 157.24 626.996 156.973 626.245 156.654C625.569 155.341 624.786 154.097 623.903 152.937C618.214 148.905 612.1 149.157 606.856 147.729C606.103 148.133 605.379 148.596 604.689 149.115C591.472 158.921 596.949 172.508 590.776 174.754C584.603 177.001 579.649 168.728 573.361 172.508C567.072 176.287 569.181 182.314 565.001 182.314C560.822 182.314 553.178 178.534 549.715 180.046C547.102 181.18 543.716 186.115 542.187 188.445C567.343 187.879 591.743 186.766 591.743 186.766C591.743 186.766 568.813 192.792 581.314 195.816C587.443 196.804 593.636 197.246 599.832 197.139L613.686 196.572C613.686 196.572 612.912 196.761 611.751 197.118C630.212 196.992 649.504 195.942 649.504 195.942Z" fill="#18A0FB"/>
</g>
<path d="M344.66 118.247V125.996" stroke="white" stroke-linecap="round" stroke-linejoin="round"/>
<path d="M455.614 358.072L521.405 498.762C521.89 499.807 522.12 500.97 522.075 502.139C522.03 503.308 521.71 504.445 521.145 505.442C520.581 506.439 519.792 507.263 518.852 507.836C517.912 508.409 516.852 508.712 515.774 508.716H427.731C425.363 508.732 423.086 507.729 421.399 505.926C419.712 504.123 418.753 501.668 418.733 499.098V361.495L455.614 358.072Z" fill="#2E353A" stroke="#2E353A" stroke-linecap="round" stroke-linejoin="round"/>
<path d="M506.583 508.485L436.922 359.815L418.791 361.495V499.098C418.791 501.671 419.733 504.139 421.409 505.958C423.086 507.778 425.36 508.8 427.731 508.8H506.699C506.67 508.691 506.631 508.586 506.583 508.485V508.485Z" fill="white" stroke="black" stroke-miterlimit="10"/>
<path d="M281.23 358.072L215.439 498.762C214.955 499.807 214.724 500.97 214.769 502.139C214.815 503.308 215.135 504.445 215.699 505.442C216.263 506.439 217.053 507.263 217.993 507.836C218.933 508.409 219.992 508.712 221.07 508.716H309.152C311.513 508.721 313.781 507.713 315.459 505.911C317.138 504.11 318.091 501.66 318.112 499.098V361.495L281.23 358.072Z" fill="#2E353A" stroke="#2E353A" stroke-linecap="round" stroke-linejoin="round"/>
<path d="M230.242 508.485L299.903 359.815L318.015 361.495V499.098C318.015 501.671 317.073 504.139 315.396 505.958C313.72 507.778 311.446 508.8 309.075 508.8H230.126L230.242 508.485Z" fill="white" stroke="black" stroke-miterlimit="10"/>
<g style="mix-blend-mode:multiply">
<path d="M299.922 359.815L246.709 473.375C265.382 458.928 289.725 444.397 318.034 437.489V361.495L299.922 359.815Z" fill="#18A0FB"/>
</g>
<path d="M337.907 451.285L314.454 495.34H361.34L337.907 451.285Z" fill="#18A0FB" stroke="#2E353A" stroke-linecap="round" stroke-linejoin="round"/>
<path d="M399.286 451.285L375.853 495.34H422.738L399.286 451.285Z" fill="#18A0FB" stroke="#2E353A" stroke-linecap="round" stroke-linejoin="round"/>
<path d="M361.959 494.878H313.487V504.369H361.959V494.878Z" fill="#2E353A" stroke="#2E353A" stroke-linecap="round" stroke-linejoin="round"/>
<path d="M423.299 494.878H374.827V504.369H423.299V494.878Z" fill="#2E353A" stroke="#2E353A" stroke-linecap="round" stroke-linejoin="round"/>
<path d="M376.82 5.233C375.759 3.91054 374.45 2.8503 372.979 2.12375C371.509 1.3972 369.912 1.02124 368.296 1.02124C366.681 1.02124 365.084 1.3972 363.614 2.12375C362.143 2.8503 360.833 3.91054 359.773 5.233C337.462 33.0981 278.869 113.355 278.869 189.118V410.589L311.146 474.53H425.912L458.188 410.589V189.118C458.188 113.334 399.267 33.0561 376.82 5.233Z" fill="white" stroke="black" stroke-miterlimit="10"/>
<path d="M367.803 9.83156C367.803 5.88383 357.509 29.4232 350.252 39.7125C350.368 38.8306 350.504 37.9697 350.62 37.0877C350.62 37.0877 307.488 96.7656 294.504 152.937C293.144 158.716 292.065 164.568 291.273 170.471C290.305 177.526 289.106 335.351 288.467 429.719L311.145 474.53H367.164C366.042 469.931 369.099 448.744 367.803 443.2V9.83156Z" fill="#18A0FB"/>
<path d="M299.516 406.747C301.108 406.747 302.399 405.346 302.399 403.618C302.399 401.89 301.108 400.489 299.516 400.489C297.924 400.489 296.633 401.89 296.633 403.618C296.633 405.346 297.924 406.747 299.516 406.747Z" stroke="#2E353A" stroke-linecap="round" stroke-linejoin="round"/>
<path d="M315.228 406.747C316.821 406.747 318.112 405.346 318.112 403.618C318.112 401.89 316.821 400.489 315.228 400.489C313.636 400.489 312.345 401.89 312.345 403.618C312.345 405.346 313.636 406.747 315.228 406.747Z" stroke="#2E353A" stroke-linecap="round" stroke-linejoin="round"/>
<path d="M330.941 406.747C332.533 406.747 333.824 405.346 333.824 403.618C333.824 401.89 332.533 400.489 330.941 400.489C329.348 400.489 328.058 401.89 328.058 403.618C328.058 405.346 329.348 406.747 330.941 406.747Z" stroke="#2E353A" stroke-linecap="round" stroke-linejoin="round"/>
<path d="M346.653 406.747C348.245 406.747 349.536 405.346 349.536 403.618C349.536 401.89 348.245 400.489 346.653 400.489C345.061 400.489 343.77 401.89 343.77 403.618C343.77 405.346 345.061 406.747 346.653 406.747Z" stroke="#2E353A" stroke-linecap="round" stroke-linejoin="round"/>
<path d="M389.92 406.747C391.513 406.747 392.804 405.346 392.804 403.618C392.804 401.89 391.513 400.489 389.92 400.489C388.328 400.489 387.037 401.89 387.037 403.618C387.037 405.346 388.328 406.747 389.92 406.747Z" stroke="#2E353A" stroke-linecap="round" stroke-linejoin="round"/>
<path d="M405.633 406.747C407.225 406.747 408.516 405.346 408.516 403.618C408.516 401.89 407.225 400.489 405.633 400.489C404.04 400.489 402.749 401.89 402.749 403.618C402.749 405.346 404.04 406.747 405.633 406.747Z" stroke="#2E353A" stroke-linecap="round" stroke-linejoin="round"/>
<path d="M421.345 406.747C422.937 406.747 424.228 405.346 424.228 403.618C424.228 401.89 422.937 400.489 421.345 400.489C419.753 400.489 418.462 401.89 418.462 403.618C418.462 405.346 419.753 406.747 421.345 406.747Z" stroke="#2E353A" stroke-linecap="round" stroke-linejoin="round"/>
<path d="M437.057 406.747C438.65 406.747 439.941 405.346 439.941 403.618C439.941 401.89 438.65 400.489 437.057 400.489C435.465 400.489 434.174 401.89 434.174 403.618C434.174 405.346 435.465 406.747 437.057 406.747Z" stroke="#2E353A" stroke-linecap="round" stroke-linejoin="round"/>
<path d="M289.377 200.646V408.321" stroke="#2E353A" stroke-linecap="round" stroke-linejoin="round"/>
<path d="M306.753 116.483C298.297 136.852 291.834 158.754 289.938 180.55" stroke="#2E353A" stroke-linecap="round" stroke-linejoin="round"/>
<path d="M377.246 19.575C376.345 18.271 375.176 17.2126 373.833 16.4837C372.489 15.7547 371.008 15.3752 369.506 15.3752C368.004 15.3752 366.522 15.7547 365.179 16.4837C363.836 17.2126 362.667 18.271 361.766 19.575C344.165 43.5562 328.754 69.3377 315.751 96.5557" stroke="#2E353A" stroke-linecap="round" stroke-linejoin="round"/>
<path d="M407.258 220.3C400.41 220.3 393.843 217.35 388.999 212.097C384.155 206.844 381.431 199.719 381.426 192.288C381.426 184.853 384.147 177.723 388.992 172.466C393.836 167.209 400.407 164.255 407.258 164.255C414.106 164.261 420.672 167.217 425.512 172.473C430.352 177.73 433.071 184.857 433.071 192.288V192.288C433.071 199.718 430.352 206.842 425.511 212.096C420.67 217.349 414.104 220.3 407.258 220.3V220.3Z" fill="#2E353A" stroke="#2E353A" stroke-linecap="round" stroke-linejoin="round"/>
<path d="M407.258 221.917C401.845 221.921 396.552 220.183 392.05 216.922C387.547 213.661 384.037 209.024 381.964 203.598C379.891 198.171 379.347 192.199 380.402 186.438C381.458 180.676 384.064 175.384 387.892 171.23C391.719 167.076 396.596 164.248 401.906 163.103C407.215 161.958 412.718 162.548 417.718 164.798C422.719 167.047 426.992 170.856 429.997 175.742C433.002 180.628 434.604 186.372 434.6 192.246C434.59 200.112 431.706 207.653 426.58 213.215C421.455 218.777 414.507 221.906 407.258 221.917V221.917ZM407.258 165.872C402.451 165.872 397.752 167.419 393.756 170.317C389.759 173.215 386.644 177.334 384.804 182.153C382.965 186.973 382.484 192.276 383.421 197.392C384.359 202.508 386.674 207.207 390.073 210.896C393.472 214.584 397.802 217.096 402.517 218.114C407.231 219.131 412.118 218.609 416.559 216.613C421 214.617 424.796 211.236 427.466 206.899C430.137 202.562 431.562 197.463 431.562 192.246C431.547 185.26 428.98 178.566 424.424 173.63C419.869 168.694 413.696 165.92 407.258 165.914V165.872Z" fill="white" stroke="#2E353A" stroke-width="0.75" stroke-miterlimit="10"/>
<path fill-rule="evenodd" clip-rule="evenodd" d="M422.139 191.595C421.986 187.73 420.471 184.077 417.908 181.388C415.345 178.699 411.929 177.181 408.364 177.146C404.8 177.111 401.359 178.562 398.751 181.2C396.144 183.838 394.569 187.461 394.352 191.322C394.352 191.553 394.352 191.763 394.352 191.973C394.335 194.699 395.004 197.378 396.287 199.722L393.771 207.743L401.511 205.097C403.577 206.321 405.892 206.963 408.245 206.966C410.064 206.972 411.867 206.588 413.55 205.838C415.233 205.087 416.763 203.985 418.053 202.592C419.343 201.2 420.368 199.546 421.069 197.724C421.77 195.902 422.133 193.948 422.139 191.973V191.595ZM408.245 204.572C405.953 204.578 403.711 203.847 401.801 202.473L397.312 204.026L398.763 199.344C397.322 197.196 396.543 194.609 396.538 191.952C396.519 191.547 396.519 191.14 396.538 190.734C396.569 187.393 397.822 184.201 400.021 181.862C402.22 179.523 405.185 178.228 408.264 178.261C411.344 178.295 414.284 179.654 416.44 182.04C418.596 184.427 419.789 187.645 419.758 190.986C419.758 191.301 419.758 191.637 419.758 191.952C419.764 195.279 418.556 198.474 416.399 200.838C414.242 203.202 411.311 204.545 408.245 204.572Z" fill="white"/>
<path fill-rule="evenodd" clip-rule="evenodd" d="M414.611 194.997C414.263 194.829 412.676 193.926 412.289 193.821C411.902 193.716 411.747 193.632 411.515 193.989C411.283 194.346 410.625 195.186 410.432 195.438C410.334 195.543 410.202 195.602 410.064 195.602C409.926 195.602 409.794 195.543 409.696 195.438C408.688 195.011 407.757 194.392 406.949 193.611C406.187 192.877 405.534 192.02 405.014 191.07C404.82 190.713 405.013 190.524 405.168 190.335C405.323 190.146 405.497 189.894 405.671 189.684L405.807 189.516L406.02 189.075C406.072 188.977 406.1 188.864 406.1 188.75C406.1 188.636 406.072 188.523 406.02 188.425C406.02 188.257 405.265 186.325 404.975 185.695C404.685 185.065 404.414 185.086 404.201 185.086H403.562C403.389 185.088 403.218 185.131 403.062 185.21C402.905 185.29 402.765 185.405 402.653 185.548C402.263 185.936 401.954 186.411 401.748 186.94C401.541 187.469 401.44 188.039 401.453 188.614C401.462 189.033 401.521 189.449 401.627 189.852C401.888 190.773 402.301 191.634 402.846 192.393C404.261 194.799 406.273 196.72 408.651 197.937C412.115 199.407 412.115 198.924 412.734 198.861C413.211 198.766 413.663 198.561 414.06 198.261C414.457 197.96 414.79 197.57 415.037 197.118C415.26 196.571 415.334 195.966 415.25 195.375C415.058 195.211 414.842 195.083 414.611 194.997V194.997Z" fill="white"/>
<path d="M370.822 281.91C367.429 281.91 364.07 281.185 360.936 279.776C357.802 278.367 354.954 276.303 352.555 273.699C350.156 271.096 348.254 268.006 346.955 264.605C345.657 261.204 344.989 257.558 344.989 253.877V253.877C344.994 246.446 347.718 239.321 352.562 234.068C357.406 228.816 363.974 225.865 370.822 225.865C377.668 225.865 384.233 228.816 389.074 234.07C393.915 239.323 396.635 246.448 396.635 253.877V253.877C396.635 261.308 393.916 268.435 389.075 273.692C384.235 278.949 377.67 281.905 370.822 281.91V281.91Z" fill="#2E353A" stroke="#2E353A" stroke-linecap="round" stroke-linejoin="round"/>
<path d="M370.822 283.548C365.414 283.548 360.128 281.808 355.631 278.548C351.135 275.287 347.63 270.653 345.561 265.232C343.492 259.81 342.95 253.844 344.005 248.089C345.06 242.333 347.664 237.046 351.488 232.896C355.312 228.747 360.184 225.921 365.487 224.776C370.791 223.631 376.289 224.219 381.285 226.465C386.281 228.71 390.551 232.513 393.556 237.393C396.56 242.272 398.164 248.009 398.164 253.877C398.153 261.743 395.269 269.283 390.144 274.845C385.019 280.407 378.07 283.537 370.822 283.548V283.548ZM370.822 227.503C364.376 227.503 358.194 230.282 353.636 235.228C349.078 240.174 346.518 246.882 346.518 253.877C346.518 260.872 349.078 267.58 353.636 272.526C358.194 277.473 364.376 280.251 370.822 280.251V280.251C377.267 280.251 383.449 277.473 388.007 272.526C392.565 267.58 395.126 260.872 395.126 253.877C395.126 246.882 392.565 240.174 388.007 235.228C383.449 230.282 377.267 227.503 370.822 227.503V227.503Z" fill="white" stroke="#2E353A" stroke-width="0.75" stroke-miterlimit="10"/>
<path d="M386.244 245.415C386.064 244.671 385.706 243.992 385.207 243.446C384.707 242.9 384.084 242.507 383.399 242.307C375.039 241.327 366.605 241.327 358.244 242.307C357.56 242.507 356.936 242.9 356.437 243.446C355.937 243.992 355.58 244.671 355.4 245.415C354.497 251.014 354.497 256.74 355.4 262.339C355.58 263.083 355.937 263.763 356.437 264.308C356.936 264.854 357.56 265.247 358.244 265.447C366.605 266.427 375.039 266.427 383.399 265.447C384.084 265.247 384.707 264.854 385.207 264.308C385.706 263.763 386.064 263.083 386.244 262.339C387.147 256.74 387.147 251.014 386.244 245.415V245.415Z" fill="white"/>
<path d="M367.532 259.085V248.69L375.949 253.877L367.532 259.085Z" fill="#2E353A"/>
<path d="M370.822 155.037C363.974 155.037 357.406 152.086 352.562 146.833C347.718 141.581 344.994 134.456 344.989 127.025V127.025C344.989 119.59 347.711 112.459 352.555 107.202C357.4 101.945 363.97 98.9916 370.822 98.9916V98.9916C377.67 98.9971 384.235 101.953 389.075 107.21C393.916 112.466 396.635 119.593 396.635 127.025V127.025C396.635 134.454 393.915 141.579 389.074 146.832C384.233 152.085 377.668 155.037 370.822 155.037V155.037Z" fill="#2E353A" stroke="#2E353A" stroke-linecap="round" stroke-linejoin="round"/>
<path d="M370.822 156.696C365.414 156.696 360.128 154.955 355.631 151.695C351.135 148.435 347.63 143.801 345.561 138.379C343.492 132.958 342.95 126.992 344.005 121.236C345.06 115.481 347.664 110.194 351.488 106.044C355.312 101.895 360.184 99.0686 365.487 97.9238C370.791 96.7789 376.289 97.3665 381.285 99.6122C386.281 101.858 390.551 105.661 393.556 110.54C396.56 115.42 398.164 121.156 398.164 127.025C398.153 134.89 395.269 142.431 390.144 147.993C385.019 153.555 378.07 156.685 370.822 156.696V156.696ZM370.822 100.65C366.015 100.65 361.316 102.197 357.319 105.095C353.322 107.993 350.207 112.112 348.368 116.932C346.528 121.751 346.047 127.054 346.985 132.17C347.923 137.286 350.237 141.985 353.636 145.674C357.035 149.362 361.366 151.874 366.08 152.892C370.795 153.91 375.681 153.387 380.122 151.391C384.563 149.395 388.359 146.015 391.03 141.677C393.7 137.34 395.126 132.241 395.126 127.025C395.12 120.031 392.558 113.326 388.001 108.381C383.445 103.436 377.266 100.656 370.822 100.65Z" fill="white" stroke="#2E353A" stroke-width="0.75" stroke-miterlimit="10"/>
<path d="M366.719 143.971H373.008V126.878H377.401L377.865 121.166H373.008V117.911C373.008 116.546 373.26 116.021 374.459 116.021H377.865V110.079H373.511C368.829 110.079 366.719 112.326 366.719 116.588V121.124H363.449V126.899H366.719V143.971Z" fill="white"/>
<path d="M333.901 351.016C327.054 351.016 320.486 348.066 315.642 342.813C310.798 337.56 308.074 330.435 308.069 323.004V323.004C308.069 315.569 310.79 308.439 315.635 303.182C320.48 297.925 327.05 294.971 333.901 294.971V294.971C340.749 294.977 347.315 297.933 352.155 303.189C356.996 308.446 359.715 315.573 359.715 323.004V323.004C359.715 330.434 356.995 337.559 352.154 342.812C347.313 348.065 340.747 351.016 333.901 351.016V351.016Z" fill="#2E353A" stroke="#2E353A" stroke-linecap="round" stroke-linejoin="round"/>
<path d="M333.901 352.675C328.488 352.68 323.196 350.941 318.693 347.68C314.191 344.419 310.681 339.782 308.607 334.356C306.534 328.929 305.991 322.958 307.046 317.196C308.101 311.434 310.707 306.142 314.535 301.988C318.362 297.834 323.24 295.006 328.549 293.861C333.858 292.716 339.361 293.306 344.362 295.556C349.362 297.806 353.635 301.615 356.64 306.501C359.645 311.387 361.247 317.13 361.243 323.004C361.233 330.87 358.349 338.411 353.224 343.973C348.098 349.535 341.15 352.664 333.901 352.675V352.675ZM333.901 296.63C329.095 296.63 324.396 298.177 320.399 301.075C316.402 303.973 313.287 308.092 311.448 312.912C309.608 317.731 309.127 323.034 310.064 328.15C311.002 333.266 313.317 337.965 316.716 341.654C320.115 345.342 324.445 347.854 329.16 348.872C333.874 349.89 338.761 349.367 343.202 347.371C347.643 345.375 351.439 341.994 354.109 337.657C356.78 333.32 358.205 328.221 358.205 323.004C358.2 316.011 355.638 309.306 351.081 304.361C346.524 299.416 340.346 296.636 333.901 296.63V296.63Z" fill="white" stroke="#2E353A" stroke-width="0.75" stroke-miterlimit="10"/>
<path d="M333.901 310.405C337.771 310.405 338.12 310.405 339.706 310.405C340.605 310.413 341.496 310.591 342.338 310.93C342.947 311.19 343.5 311.583 343.963 312.085C344.426 312.588 344.788 313.188 345.028 313.849C345.341 314.763 345.504 315.73 345.512 316.705C345.512 318.322 345.512 318.805 345.512 323.004C345.512 327.204 345.512 327.582 345.512 329.304C345.504 330.279 345.341 331.246 345.028 332.16C344.788 332.821 344.426 333.421 343.963 333.923C343.5 334.426 342.947 334.819 342.338 335.079C341.496 335.418 340.605 335.596 339.706 335.604C338.216 335.604 337.771 335.604 333.901 335.604C330.031 335.604 329.664 335.604 328.096 335.604C327.198 335.596 326.307 335.418 325.465 335.079C324.849 334.833 324.293 334.438 323.839 333.924C323.368 333.429 323.004 332.827 322.775 332.16C322.462 331.246 322.298 330.279 322.291 329.304C322.291 327.687 322.291 327.204 322.291 323.004C322.291 318.805 322.291 318.406 322.291 316.705C322.298 315.73 322.462 314.763 322.775 313.849C323.041 313.219 323.431 312.661 323.917 312.211C324.371 311.697 324.926 311.302 325.542 311.056C326.385 310.717 327.275 310.539 328.174 310.531C329.664 310.531 330.109 310.531 333.979 310.531M333.979 307.759C330.109 307.759 329.644 307.759 328.174 307.759C326.997 307.791 325.834 308.033 324.729 308.473C323.795 308.879 322.946 309.486 322.234 310.259C321.522 311.031 320.962 311.953 320.588 312.967C320.182 314.166 319.96 315.428 319.931 316.705C319.931 318.343 319.931 318.805 319.931 323.004C319.931 327.204 319.931 327.687 319.931 329.304C319.96 330.581 320.182 331.843 320.588 333.042C320.954 334.061 321.511 334.987 322.224 335.761C322.937 336.534 323.79 337.139 324.729 337.535C325.834 337.976 326.997 338.217 328.174 338.249C329.683 338.249 330.109 338.249 333.979 338.249C337.849 338.249 338.294 338.249 339.784 338.249C340.96 338.217 342.124 337.976 343.228 337.535C344.173 337.148 345.03 336.547 345.744 335.772C346.458 334.997 347.012 334.066 347.369 333.042C347.775 331.843 347.998 330.581 348.027 329.304C348.027 327.666 348.027 327.204 348.027 323.004C348.027 318.805 348.027 318.301 348.027 316.705C347.998 315.428 347.775 314.166 347.369 312.967C347.012 311.944 346.463 311.012 345.757 310.232C345.051 309.451 344.203 308.838 343.267 308.431C342.162 307.991 340.999 307.749 339.823 307.717C338.313 307.717 337.888 307.717 334.017 307.717" fill="white"/>
<path d="M333.901 315.109C332.462 315.105 331.053 315.564 329.854 316.429C328.655 317.294 327.719 318.526 327.166 319.968C326.612 321.411 326.465 322.999 326.744 324.532C327.022 326.065 327.714 327.474 328.731 328.58C329.747 329.686 331.044 330.44 332.456 330.747C333.867 331.053 335.331 330.898 336.662 330.301C337.992 329.704 339.13 328.692 339.93 327.393C340.731 326.094 341.158 324.567 341.158 323.004C341.158 320.914 340.394 318.909 339.034 317.429C337.673 315.949 335.828 315.114 333.901 315.109M333.901 328.107C332.967 328.107 332.053 327.806 331.276 327.242C330.499 326.678 329.894 325.877 329.538 324.939C329.181 324.002 329.088 322.97 329.272 321.976C329.456 320.982 329.908 320.069 330.57 319.353C331.232 318.637 332.075 318.151 332.992 317.956C333.909 317.76 334.859 317.865 335.722 318.256C336.584 318.647 337.32 319.307 337.837 320.152C338.353 320.997 338.627 321.99 338.623 323.004C338.623 323.676 338.501 324.341 338.263 324.962C338.026 325.582 337.678 326.146 337.239 326.62C336.8 327.094 336.28 327.469 335.707 327.725C335.134 327.98 334.521 328.11 333.901 328.107Z" fill="white"/>
<path d="M343.151 314.794C343.151 315.159 343.051 315.517 342.864 315.821C342.677 316.124 342.411 316.361 342.1 316.501C341.788 316.641 341.446 316.678 341.116 316.606C340.785 316.535 340.482 316.359 340.244 316.101C340.006 315.842 339.844 315.513 339.778 315.154C339.712 314.796 339.746 314.424 339.875 314.087C340.004 313.749 340.222 313.461 340.502 313.257C340.782 313.054 341.111 312.946 341.448 312.946C341.9 312.946 342.333 313.141 342.652 313.487C342.971 313.834 343.151 314.304 343.151 314.794" fill="white"/>
<path d="M331.966 220.3C325.118 220.3 318.551 217.35 313.707 212.097C308.863 206.844 306.139 199.719 306.134 192.288C306.134 184.853 308.855 177.723 313.7 172.466C318.545 167.209 325.115 164.255 331.966 164.255V164.255C338.814 164.261 345.38 167.217 350.22 172.473C355.061 177.73 357.78 184.857 357.78 192.288C357.78 199.718 355.06 206.842 350.219 212.096C345.378 217.349 338.812 220.3 331.966 220.3V220.3Z" fill="#2E353A" stroke="#2E353A" stroke-linecap="round" stroke-linejoin="round"/>
<path d="M331.966 221.917C326.553 221.921 321.261 220.183 316.758 216.922C312.256 213.661 308.746 209.024 306.672 203.598C304.599 198.171 304.056 192.199 305.111 186.438C306.166 180.676 308.772 175.384 312.6 171.23C316.427 167.076 321.305 164.248 326.614 163.103C331.923 161.958 337.426 162.548 342.427 164.798C347.427 167.047 351.7 170.856 354.705 175.742C357.71 180.628 359.312 186.372 359.308 192.246C359.303 200.114 356.421 207.658 351.294 213.221C346.168 218.784 339.216 221.912 331.966 221.917V221.917ZM331.966 165.872C327.16 165.872 322.461 167.419 318.464 170.317C314.467 173.215 311.352 177.334 309.513 182.153C307.673 186.973 307.192 192.276 308.129 197.392C309.067 202.508 311.382 207.207 314.781 210.896C318.18 214.584 322.51 217.096 327.225 218.114C331.939 219.131 336.826 218.609 341.267 216.613C345.708 214.617 349.504 211.236 352.174 206.899C354.845 202.562 356.27 197.463 356.27 192.246C356.255 185.26 353.688 178.566 349.133 173.63C344.577 168.694 338.404 165.92 331.966 165.914V165.872Z" fill="white" stroke="#2E353A" stroke-width="0.75" stroke-miterlimit="10"/>
<path d="M318.208 201.654C320.684 203.378 323.548 204.331 326.488 204.407C329.429 204.484 332.332 203.682 334.881 202.089C337.43 200.496 339.526 198.173 340.94 195.374C342.354 192.575 343.032 189.408 342.899 186.22C344.007 185.345 344.964 184.264 345.724 183.028C344.693 183.53 343.597 183.856 342.474 183.994C343.653 183.235 344.535 182.031 344.95 180.613C343.827 181.303 342.603 181.779 341.332 182.02C340.487 181.007 339.356 180.329 338.116 180.094C336.876 179.858 335.599 180.079 334.488 180.72C333.377 181.362 332.495 182.388 331.982 183.635C331.469 184.882 331.355 186.28 331.657 187.606C329.416 187.482 327.224 186.848 325.223 185.745C323.223 184.641 321.459 183.093 320.047 181.201C319.321 182.55 319.097 184.149 319.421 185.67C319.745 187.192 320.591 188.523 321.788 189.39C320.892 189.354 320.017 189.088 319.234 188.614C319.217 190.042 319.66 191.432 320.486 192.544C321.313 193.656 322.472 194.419 323.762 194.703C322.929 194.949 322.055 194.985 321.208 194.808C321.58 196.015 322.288 197.067 323.234 197.819C324.18 198.571 325.318 198.987 326.49 199.008C324.16 201.042 321.183 201.994 318.208 201.654Z" fill="white"/>
<path d="M404.646 351.016C397.798 351.016 391.23 348.066 386.386 342.813C381.542 337.56 378.818 330.435 378.813 323.004C378.813 315.569 381.535 308.439 386.379 303.182C391.224 297.925 397.795 294.971 404.646 294.971C411.494 294.977 418.059 297.933 422.9 303.189C427.74 308.446 430.459 315.573 430.459 323.004V323.004C430.459 330.434 427.739 337.559 422.899 342.812C418.058 348.065 411.492 351.016 404.646 351.016V351.016Z" fill="#2E353A" stroke="#2E353A" stroke-linecap="round" stroke-linejoin="round"/>
<path d="M404.646 352.675C399.233 352.68 393.94 350.941 389.437 347.68C384.935 344.419 381.425 339.782 379.352 334.356C377.278 328.929 376.735 322.958 377.79 317.196C378.845 311.434 381.451 306.142 385.279 301.988C389.107 297.834 393.984 295.006 399.293 293.861C404.603 292.716 410.106 293.306 415.106 295.556C420.107 297.806 424.38 301.615 427.385 306.501C430.39 311.387 431.992 317.13 431.988 323.004C431.977 330.87 429.094 338.411 423.968 343.973C418.843 349.535 411.894 352.664 404.646 352.675V352.675ZM404.646 296.63C399.839 296.63 395.14 298.177 391.143 301.075C387.147 303.973 384.031 308.092 382.192 312.912C380.352 317.731 379.871 323.034 380.809 328.15C381.747 333.266 384.061 337.965 387.46 341.654C390.859 345.342 395.19 347.854 399.904 348.872C404.619 349.89 409.506 349.367 413.947 347.371C418.387 345.375 422.183 341.994 424.854 337.657C427.524 333.32 428.95 328.221 428.95 323.004C428.945 316.011 426.382 309.306 421.826 304.361C417.269 299.416 411.09 296.636 404.646 296.63Z" fill="white" stroke="#2E353A" stroke-width="0.75" stroke-miterlimit="10"/>
<path d="M397.544 316.096H392.204V334.826H397.544V316.096Z" fill="white"/>
<path d="M394.855 313.639C395.656 313.571 396.404 313.178 396.95 312.537C397.496 311.897 397.799 311.057 397.799 310.185C397.799 309.312 397.496 308.472 396.95 307.832C396.404 307.192 395.656 306.798 394.855 306.73C394.053 306.798 393.305 307.192 392.759 307.832C392.213 308.472 391.91 309.312 391.91 310.185C391.91 311.057 392.213 311.897 392.759 312.537C393.305 313.178 394.053 313.571 394.855 313.639Z" fill="white"/>
<path d="M406.097 324.999C406.097 322.353 407.219 320.799 409.348 320.799C411.477 320.799 412.27 322.311 412.27 324.999V334.826H417.591V322.962C417.591 317.944 414.96 315.508 411.302 315.508C410.261 315.495 409.235 315.774 408.323 316.319C407.411 316.863 406.644 317.654 406.097 318.616V316.096H400.969V334.826H406.097V324.999Z" fill="white"/>
<path d="M368.538 513.44C367.512 513.44 366.528 512.998 365.802 512.21C365.076 511.423 364.668 510.354 364.668 509.241L360.682 362.083C360.68 360.957 360.882 359.841 361.278 358.801C361.674 357.76 362.255 356.814 362.989 356.018C363.722 355.222 364.594 354.591 365.553 354.162C366.512 353.732 367.54 353.512 368.577 353.515V353.515C369.613 353.515 370.639 353.737 371.595 354.168C372.552 354.599 373.421 355.23 374.153 356.026C374.884 356.822 375.464 357.766 375.859 358.806C376.253 359.845 376.455 360.958 376.453 362.083L372.428 509.241C372.428 509.794 372.327 510.342 372.131 510.853C371.936 511.364 371.649 511.827 371.287 512.218C370.926 512.608 370.497 512.917 370.025 513.127C369.553 513.336 369.048 513.443 368.538 513.44Z" fill="#2E353A" stroke="#2E353A" stroke-linecap="round" stroke-linejoin="round"/>
<path d="M368.674 588.657V598.464" stroke="#2E353A" stroke-linecap="round" stroke-linejoin="round"/>
<path d="M359.773 5.25394C345.384 23.2285 332.205 42.3023 320.337 62.3281H416.488C404.556 42.2598 391.299 23.157 376.82 5.16995C375.754 3.8527 374.44 2.79888 372.966 2.07957C371.493 1.36025 369.894 0.992166 368.279 1.00013C366.663 1.00809 365.068 1.3919 363.601 2.1257C362.133 2.85951 360.828 3.92624 359.773 5.25394Z" fill="#2E353A" stroke="#2E353A" stroke-linecap="round" stroke-linejoin="round"/>
<path d="M344.757 59.4722C346.349 59.4722 347.64 58.0714 347.64 56.3434C347.64 54.6154 346.349 53.2146 344.757 53.2146C343.165 53.2146 341.874 54.6154 341.874 56.3434C341.874 58.0714 343.165 59.4722 344.757 59.4722Z" fill="white"/>
<path d="M363.352 56.3435C363.352 56.9673 363.182 57.5771 362.862 58.0955C362.542 58.614 362.088 59.0177 361.556 59.2554C361.025 59.4932 360.44 59.5543 359.877 59.4311C359.313 59.3079 358.796 59.0058 358.391 58.5632C357.986 58.1206 357.711 57.5573 357.601 56.945C357.491 56.3326 357.551 55.6986 357.774 55.1235C357.997 54.5483 358.372 54.0578 358.851 53.7143C359.331 53.3707 359.894 53.1895 360.469 53.1937C360.85 53.1937 361.226 53.2753 361.577 53.4338C361.928 53.5924 362.247 53.8247 362.515 54.1175C362.783 54.4103 362.995 54.7576 363.139 55.1397C363.282 55.5217 363.355 55.9308 363.352 56.3435V56.3435Z" fill="white"/>
<path d="M376.162 59.4722C377.755 59.4722 379.045 58.0714 379.045 56.3434C379.045 54.6154 377.755 53.2146 376.162 53.2146C374.57 53.2146 373.279 54.6154 373.279 56.3434C373.279 58.0714 374.57 59.4722 376.162 59.4722Z" fill="white"/>
<path d="M391.875 59.4722C393.467 59.4722 394.758 58.0714 394.758 56.3434C394.758 54.6154 393.467 53.2146 391.875 53.2146C390.282 53.2146 388.992 54.6154 388.992 56.3434C388.992 58.0714 390.282 59.4722 391.875 59.4722Z" fill="white"/>
<path d="M337.675 56.7214C337.675 56.7214 357.025 22.9347 364.9 12.6244" stroke="white" stroke-linecap="round" stroke-linejoin="round"/>
<path d="M425.912 474.53L458.188 410.589H278.869L311.146 474.53H425.912Z" fill="#2E353A" stroke="#2E353A" stroke-linecap="round" stroke-linejoin="round"/>
<path d="M316.061 439.861C315.943 439.916 315.837 439.996 315.749 440.095C315.66 440.194 315.59 440.312 315.543 440.441C315.496 440.57 315.474 440.707 315.476 440.846C315.479 440.984 315.506 441.121 315.557 441.247L318.46 448.618C318.535 448.806 318.66 448.965 318.818 449.077C318.976 449.189 319.161 449.249 319.35 449.248C319.477 449.279 319.61 449.279 319.737 449.248C319.854 449.193 319.96 449.114 320.049 449.014C320.138 448.915 320.208 448.797 320.254 448.668C320.301 448.54 320.324 448.402 320.321 448.264C320.319 448.125 320.291 447.989 320.24 447.862L317.338 440.491C317.292 440.359 317.223 440.237 317.135 440.133C317.046 440.029 316.939 439.946 316.82 439.887C316.701 439.829 316.573 439.796 316.443 439.792C316.312 439.787 316.182 439.811 316.061 439.861V439.861Z" fill="white"/>
<path d="M320.995 427.346C321.074 427.531 321.2 427.688 321.357 427.799C321.514 427.911 321.697 427.972 321.885 427.976C322.02 427.974 322.152 427.938 322.272 427.871C322.389 427.816 322.495 427.737 322.584 427.638C322.673 427.538 322.742 427.421 322.789 427.292C322.836 427.163 322.859 427.026 322.856 426.887C322.854 426.749 322.826 426.612 322.775 426.485L316.331 410.589H314.242L320.995 427.346Z" fill="white"/>
<path d="M413.431 445.405C413.565 445.435 413.703 445.435 413.837 445.405C414.02 445.41 414.199 445.358 414.354 445.253C414.509 445.149 414.632 444.997 414.708 444.817L429.492 410.505H427.344L412.928 443.998C412.873 444.126 412.843 444.264 412.839 444.405C412.835 444.546 412.858 444.686 412.904 444.817C412.951 444.948 413.022 445.068 413.113 445.169C413.203 445.27 413.311 445.35 413.431 445.405V445.405Z" fill="white"/>
<path d="M319.098 472.64C319.174 472.828 319.299 472.988 319.457 473.1C319.615 473.211 319.8 473.271 319.989 473.27C320.116 473.3 320.248 473.3 320.376 473.27C320.493 473.215 320.599 473.136 320.688 473.036C320.776 472.937 320.846 472.82 320.893 472.691C320.94 472.562 320.962 472.424 320.96 472.286C320.958 472.147 320.93 472.011 320.879 471.884L296.285 410.673H294.175L319.098 472.64Z" fill="white"/>
<path d="M440.599 410.589L415.153 467.139C415.097 467.263 415.064 467.397 415.056 467.535C415.048 467.673 415.065 467.812 415.106 467.942C415.148 468.073 415.212 468.194 415.297 468.297C415.381 468.401 415.484 468.485 415.598 468.546C415.728 468.622 415.876 468.658 416.024 468.651C416.203 468.652 416.378 468.597 416.53 468.493C416.681 468.389 416.801 468.239 416.875 468.063L442.746 410.589H440.599Z" fill="white"/>
<path d="M313.68 436.523C313.756 436.71 313.88 436.87 314.039 436.982C314.197 437.094 314.382 437.153 314.57 437.153C314.698 437.184 314.83 437.184 314.957 437.153C315.075 437.098 315.181 437.018 315.269 436.919C315.358 436.819 315.428 436.702 315.475 436.573C315.522 436.444 315.544 436.307 315.542 436.168C315.539 436.03 315.512 435.893 315.461 435.767L305.573 410.673H303.463L313.68 436.523Z" fill="white"/>
<path d="M462.251 228.07V234.999" stroke="#2E353A" stroke-linecap="round" stroke-linejoin="round"/>
<path d="M462.251 187.291V223.45" stroke="#2E353A" stroke-linecap="round" stroke-linejoin="round"/>
<path d="M466.044 263.41V292.178" stroke="#2E353A" stroke-linecap="round" stroke-linejoin="round"/>
<path d="M465.386 196.929V258.329C465.386 258.329 466.837 258.329 467.573 253.94C468.308 249.551 466.837 240.795 468.676 237.141C470.514 233.487 473.088 231.157 474.191 227.566C475.294 223.975 471.617 221.266 473.088 215.198C474.558 209.129 480.828 212.405 479.705 204.425C479.125 200.226 474.829 198.756 471.83 196.908C470.837 196.435 470.019 195.614 469.508 194.577C468.908 192.939 470.804 189.201 469.508 187.983C468.211 186.766 466.276 188.718 465.638 190.083C464.844 192.078 465.386 194.892 465.386 196.929Z" fill="white" stroke="#2E353A" stroke-miterlimit="10"/>
<path d="M220.103 546.555V625.489" stroke="#2E353A" stroke-linecap="round" stroke-linejoin="round"/>
<path d="M220.219 512.243V542.859C220.219 542.859 219.503 542.859 219.135 540.76C218.768 538.66 219.503 534.208 218.574 532.36C217.528 530.864 216.608 529.269 215.826 527.593C215.284 525.809 217.103 524.402 216.368 521.42C215.633 518.438 212.498 520.034 213.079 516.044C213.369 513.944 215.517 513.23 216.949 512.306C217.446 512.066 217.854 511.652 218.11 511.131C218.4 510.312 217.471 508.464 218.11 507.855C218.748 507.246 219.716 508.212 220.045 508.905C220.292 509.996 220.351 511.128 220.219 512.243Z" fill="white" stroke="#2E353A" stroke-miterlimit="10"/>
<path d="M271.497 199.176V231.367" stroke="#2E353A" stroke-linecap="round" stroke-linejoin="round"/>
<path d="M271.497 238.422V250.202" stroke="#2E353A" stroke-linecap="round" stroke-linejoin="round"/>
<path d="M267.956 307.15V318.931" stroke="#2E353A" stroke-linecap="round" stroke-linejoin="round"/>
<path d="M268.71 201.654V302.447C268.71 302.447 267.24 302.447 266.505 295.244C265.769 288.042 267.24 273.616 265.402 267.736C263.563 261.856 260.99 257.909 259.887 252.008C258.784 246.107 262.46 241.509 260.99 231.702C259.519 221.896 253.25 227.104 254.372 214.001C254.952 207.05 259.248 204.677 262.247 201.633C263.371 200.653 264.183 199.317 264.569 197.811C265.169 195.123 263.273 188.97 264.569 186.997C265.866 185.023 267.82 188.193 268.44 190.482C269.233 193.674 268.71 198.315 268.71 201.654Z" fill="white" stroke="#2E353A" stroke-miterlimit="10"/>
<path d="M368.674 522.533V581.308" stroke="#2E353A" stroke-linecap="round" stroke-linejoin="round"/>
<path d="M278.095 479.066V485.995" stroke="#2E353A" stroke-linecap="round" stroke-linejoin="round"/>
<path d="M278.095 438.286V474.446" stroke="#2E353A" stroke-linecap="round" stroke-linejoin="round"/>
<path d="M274.283 514.385V582.106" stroke="#2E353A" stroke-linecap="round" stroke-linejoin="round"/>
<path d="M274.961 447.925V509.325C274.961 509.325 273.49 509.325 272.755 504.936C272.019 500.547 273.49 491.77 271.652 488.137C269.813 484.504 267.24 482.152 266.137 478.562C265.034 474.971 268.71 472.262 267.24 466.194C265.769 460.125 259.5 463.401 260.622 455.421C261.203 451.222 265.498 449.752 268.498 447.883C269.493 447.425 270.313 446.61 270.82 445.573C271.419 443.935 269.523 440.197 270.82 438.979C272.116 437.761 274.07 439.714 274.69 441.079C275.541 443.074 274.961 445.888 274.961 447.925Z" fill="white" stroke="#2E353A" stroke-miterlimit="10"/>
<path d="M515.058 546.555V579.019" stroke="#2E353A" stroke-linecap="round" stroke-linejoin="round"/>
<path d="M514.942 512.243V542.859C514.942 542.859 515.677 542.859 516.045 540.76C516.413 538.66 515.677 534.208 516.587 532.36C517.633 530.864 518.553 529.269 519.335 527.593C519.876 525.809 518.058 524.402 518.793 521.42C519.528 518.438 522.663 520.034 522.082 516.044C521.792 513.944 519.664 513.23 518.212 512.306C517.715 512.066 517.307 511.652 517.051 511.131C516.761 510.312 517.709 508.464 517.051 507.855C516.393 507.246 515.445 508.212 515.116 508.905C514.859 509.995 514.8 511.129 514.942 512.243V512.243Z" fill="white" stroke="#2E353A" stroke-miterlimit="10"/>
<path d="M454.86 507.225V514.154" stroke="#2E353A" stroke-linecap="round" stroke-linejoin="round"/>
<path d="M454.86 466.446V502.605" stroke="#2E353A" stroke-linecap="round" stroke-linejoin="round"/>
<path d="M458.652 542.565V661.102" stroke="#2E353A" stroke-linecap="round" stroke-linejoin="round"/>
<path d="M457.994 476V537.421C457.994 537.421 459.465 537.421 460.2 533.032C460.936 528.643 459.465 519.866 461.303 516.233C463.142 512.6 465.715 510.249 466.818 506.658C467.921 503.067 464.245 500.358 465.715 494.311C467.186 488.263 473.455 491.518 472.314 483.538C471.733 479.339 467.457 477.848 464.457 476C463.464 475.53 462.642 474.718 462.116 473.69C461.516 472.031 463.413 468.293 462.116 467.097C460.82 465.9 458.865 467.832 458.246 469.196C457.433 471.233 457.994 474.068 457.994 476Z" fill="white" stroke="#2E353A" stroke-miterlimit="10"/>
</svg>
