<svg width="542" height="526" viewBox="0 0 542 526" fill="none" xmlns="http://www.w3.org/2000/svg">
<path d="M461.938 264.096C355.769 204.234 184.201 204.234 78.7171 264.096C-26.7671 323.957 -26.1547 421.156 80.062 481.064C186.279 540.973 357.799 540.984 463.283 481.064C568.767 421.144 568.155 324.016 461.938 264.096Z" fill="#FAFAFA"/>
<path d="M498.925 424.971C502.335 426.895 502.347 430.018 498.925 431.943L484.995 439.795C483.09 440.744 480.983 441.239 478.846 441.239C476.709 441.239 474.602 440.744 472.698 439.795L320.007 353.606C316.597 351.693 316.573 348.571 320.007 346.646L333.925 338.794C335.832 337.844 337.94 337.349 340.08 337.349C342.219 337.349 344.328 337.844 346.234 338.794L498.925 424.971Z" fill="#F0F0F0"/>
<path d="M456.078 437.342C459.5 439.279 459.512 442.389 456.078 444.314L442.148 452.166C440.241 453.116 438.132 453.61 435.993 453.61C433.854 453.61 431.745 453.116 429.839 452.166L299.425 378.537C296.014 376.612 295.99 373.49 299.425 371.565L313.355 363.712C315.261 362.763 317.37 362.268 319.509 362.268C321.648 362.268 323.757 362.763 325.663 363.712L456.078 437.342Z" fill="#F0F0F0"/>
<path d="M79.1254 431.555C69.7706 426.274 54.6397 426.274 45.333 431.555C36.0262 436.837 36.0863 445.406 45.441 450.688C54.7958 455.969 69.9387 455.969 79.2334 450.688C88.5282 445.406 88.4681 436.837 79.1254 431.555Z" fill="#F0F0F0"/>
<path d="M126.043 419.161C154.948 402.845 201.698 402.845 230.399 419.161C259.099 435.476 258.967 461.932 230.05 478.247C201.133 494.563 154.396 494.563 125.695 478.247C96.9942 461.932 97.1263 435.476 126.043 419.161Z" fill="#F0F0F0"/>
<path d="M91.6624 366.811L153.771 331.763C154.199 331.53 154.555 331.189 154.803 330.777C155.051 330.364 155.182 329.894 155.182 329.415C155.182 328.937 155.051 328.467 154.803 328.054C154.555 327.641 154.199 327.301 153.771 327.068L99.0357 296.022C98.6177 295.786 98.1435 295.662 97.6607 295.662C97.178 295.662 96.7038 295.786 96.2858 296.022L32.8079 331.845C32.3802 332.078 32.024 332.419 31.7761 332.831C31.5281 333.244 31.3973 333.714 31.3973 334.192C31.3973 334.671 31.5281 335.141 31.7761 335.554C32.024 335.966 32.3802 336.307 32.8079 336.54L86.1624 366.846C87.0021 367.312 87.952 367.553 88.9172 367.547C89.8824 367.541 90.8291 367.287 91.6624 366.811Z" fill="#F0F0F0"/>
<path d="M284.99 249.835C270.34 241.619 246.658 241.619 232.152 249.835C217.645 258.051 217.669 271.514 232.32 279.777C246.971 288.041 270.652 288.052 285.158 279.777C299.665 271.502 299.641 258.122 284.99 249.835Z" fill="#F0F0F0"/>
<path d="M163.078 66.6705L158.371 63.9944L108.643 91.9532V97.2703L163.078 66.6705Z" fill="#F5F5F5"/>
<path d="M163.078 66.6707L108.643 97.2704V103.35L163.09 72.7742L163.078 66.6707Z" fill="#E0E0E0"/>
<path d="M80.2061 113.269L75.4987 110.592L25.7588 138.551V143.88L80.2061 113.269Z" fill="#F5F5F5"/>
<path d="M80.2061 113.269L25.7588 143.88V149.948L80.2181 119.372L80.2061 113.269Z" fill="#E0E0E0"/>
<path d="M162.814 15.577L158.106 12.9009L158.382 150.547L163.09 153.223L162.814 15.577Z" fill="#F0F0F0"/>
<path d="M163.09 153.223L158.383 150.547L104.212 180.947L108.919 183.623L163.09 153.223Z" fill="#F5F5F5"/>
<path d="M168.518 156.251L103.515 192.755L103.203 42.949L168.206 6.43347L168.518 156.251ZM108.883 183.623L163.054 153.223L162.778 15.577L108.643 45.9655L108.883 183.623Z" fill="#E0E0E0"/>
<path d="M168.206 6.43334L163.51 3.76892L98.4952 40.2727L103.203 42.9488L168.206 6.43334Z" fill="#F5F5F5"/>
<path d="M103.203 42.949L98.4952 40.2728L98.8075 190.079L103.515 192.755L103.203 42.949Z" fill="#F0F0F0"/>
<path d="M79.9419 62.1751L75.2345 59.4989L75.5107 197.157L80.2181 199.833L79.9419 62.1751Z" fill="#F0F0F0"/>
<path d="M80.218 199.833L75.5106 197.157L21.3395 227.545L26.0349 230.221L80.218 199.833Z" fill="#F5F5F5"/>
<path d="M85.646 202.849L20.643 239.341L20.3308 89.5353L85.3338 53.0315L85.646 202.849ZM26.0229 230.221L80.2061 199.833L79.9419 62.175L25.7587 92.6222L26.0229 230.221Z" fill="#E0E0E0"/>
<path d="M85.3339 53.0432L80.6265 50.3671L15.6235 86.8708L20.3309 89.547L85.3339 53.0432Z" fill="#F5F5F5"/>
<path d="M20.3309 89.547L15.6235 86.8708L15.9358 236.689L20.6432 239.353L20.3309 89.547Z" fill="#F0F0F0"/>
<path d="M139.949 327.338L145.245 330.354L145.233 324.356L139.949 327.338Z" fill="#E6E6E6"/>
<path d="M145.017 266.15L93.4037 295.282L145.017 266.15Z" fill="#CFCFCF"/>
<path d="M145.233 324.356V330.354L150.757 327.232L150.553 256.807L87.8077 292.16L88.0119 362.644L93.5359 359.522V353.524L139.949 327.373L145.233 324.356ZM93.4038 295.283L145.041 266.15L145.113 289.015L93.4758 318.147L93.4038 295.283ZM93.4878 324.403L145.125 295.271V295.341L145.197 318.124L93.5599 347.256L93.4878 324.403Z" fill="#E6E6E6"/>
<path d="M145.173 318.124L145.101 295.329V295.271L93.4877 324.403L93.5477 347.256L145.173 318.124Z" fill="#E0E0E0"/>
<path d="M145.089 289.015L145.017 266.15L93.4037 295.282L93.4637 318.147L145.089 289.015Z" fill="#E0E0E0"/>
<path d="M87.8076 292.172L33.012 261.044L33.2161 331.528L88.0117 362.656L87.8076 292.172Z" fill="#E0E0E0"/>
<path d="M87.8076 292.172L150.565 256.748L95.7813 225.632L33.012 261.044L87.8076 292.172Z" fill="#E0E0E0"/>
<path d="M139.949 327.338L145.245 330.354L145.233 324.356L139.949 327.338Z" fill="#E6E6E6"/>
<path d="M145.017 266.15L93.4037 295.282L145.017 266.15Z" fill="#CFCFCF"/>
<path opacity="0.8" d="M145.173 318.124L145.101 295.329V295.271L93.4877 324.403L93.5477 347.256L145.173 318.124Z" fill="white"/>
<path opacity="0.8" d="M145.089 289.015L145.017 266.15L93.4037 295.282L93.4637 318.147L145.089 289.015Z" fill="white"/>
<path d="M128.193 284.155L128.169 280.998L110.288 291.08L110.312 294.238L128.193 284.155Z" fill="#E0E0E0"/>
<path d="M128.193 312.865L128.169 309.708L110.288 319.79L110.312 322.948L128.193 312.865Z" fill="#E0E0E0"/>
<path d="M87.8076 292.172L33.012 261.044L33.2161 331.528L88.0117 362.656L87.8076 292.172Z" fill="#EBEBEB"/>
<path d="M87.8076 292.172L150.565 256.748L95.7813 225.632L33.012 261.044L87.8076 292.172Z" fill="#F0F0F0"/>
<path opacity="0.1" d="M272.981 68.255C272.089 66.7244 270.768 65.4743 269.175 64.6515C263.314 61.3533 253.84 61.3533 248.015 64.6515C246.434 65.4746 245.129 66.7257 244.257 68.255C242.792 71.1307 244.065 74.3702 248.087 76.6356C253.948 79.9456 263.423 79.9456 269.247 76.6356C273.246 74.3702 274.483 71.1307 272.981 68.255Z" fill="black"/>
<path d="M273.582 263.38C273.486 265.457 272.045 267.523 269.247 269.108C263.423 272.418 253.948 272.418 248.088 269.108C245.266 267.523 243.813 265.457 243.68 263.38V267.993C243.68 270.164 245.157 272.335 248.088 273.99C253.948 277.289 263.423 277.289 269.247 273.99C272.165 272.335 273.606 270.164 273.582 267.993V263.38Z" fill="#E0E0E0"/>
<path d="M248.088 269.108C253.948 272.418 263.423 272.418 269.247 269.108C272.045 267.523 273.486 265.457 273.582 263.38C273.623 262.459 273.415 261.545 272.982 260.727C272.089 259.196 270.769 257.946 269.175 257.124C263.315 253.825 253.84 253.825 248.016 257.124C246.433 257.939 245.127 259.187 244.257 260.715C243.835 261.537 243.637 262.45 243.68 263.368C243.813 265.457 245.266 267.511 248.088 269.108Z" fill="#F0F0F0"/>
<path d="M247.343 110.874H246.898V149.432H247.343V110.874Z" fill="#E0E0E0"/>
<path d="M248.183 149.854C248.183 150.065 248.119 150.272 247.999 150.448C247.879 150.623 247.708 150.76 247.509 150.841C247.309 150.922 247.089 150.943 246.877 150.902C246.665 150.861 246.471 150.759 246.318 150.61C246.165 150.46 246.061 150.27 246.019 150.063C245.977 149.855 245.998 149.641 246.081 149.445C246.164 149.25 246.304 149.083 246.483 148.966C246.663 148.849 246.874 148.786 247.091 148.786C247.38 148.786 247.658 148.899 247.863 149.099C248.068 149.299 248.183 149.571 248.183 149.854Z" fill="#F0F0F0"/>
<path d="M261.321 96.9767H255.941V261.854C255.961 262.086 256.043 262.308 256.181 262.498C256.318 262.688 256.505 262.838 256.721 262.934C257.311 263.228 257.963 263.382 258.625 263.382C259.287 263.382 259.939 263.228 260.528 262.934C260.745 262.84 260.932 262.689 261.067 262.499C261.203 262.308 261.282 262.085 261.297 261.854L261.321 96.9767Z" fill="#E0E0E0"/>
<path d="M289.53 104.078C286.083 92.3403 272.958 68.2666 272.958 68.2666C274.459 71.1423 273.222 74.3819 269.223 76.6472C263.399 79.9572 253.924 79.9572 248.064 76.6472C244.041 74.3819 242.768 71.1423 244.233 68.2666C244.233 68.2666 231.107 92.399 227.673 104.078C225.343 109.947 228.201 116.285 236.247 120.827C248.676 127.87 268.767 127.87 281.123 120.827C289.133 116.273 291.919 109.9 289.53 104.078Z" fill="#F0F0F0"/>
<path d="M272.981 68.255C272.089 66.7244 270.768 65.4743 269.175 64.6515C263.314 61.3533 253.84 61.3533 248.015 64.6515C246.434 65.4746 245.129 66.7257 244.257 68.255C242.792 71.1307 244.065 74.3702 248.087 76.6356C253.948 79.9456 263.423 79.9456 269.247 76.6356C273.246 74.3702 274.483 71.1307 272.981 68.255Z" fill="#E0E0E0"/>
<path opacity="0.05" d="M80.5183 247.816C87.4954 243.884 98.7475 243.884 105.737 247.816C112.726 251.748 112.618 258.121 105.653 262.054C98.6875 265.986 87.4233 265.986 80.4343 262.054C73.4452 258.121 73.5533 251.748 80.5183 247.816Z" fill="black"/>
<path d="M74.478 223.062L93.5958 223.613L112.714 223.062C113.542 235.691 111.02 248.544 107.538 254.823C106.717 256.439 105.393 257.759 103.755 258.591C98.1111 261.772 88.9965 261.772 83.3404 258.591C81.6838 257.743 80.3587 256.386 79.5697 254.729C76.1472 248.415 73.6614 235.621 74.478 223.062Z" fill="white"/>
<path d="M80.1221 215.409C72.6287 219.646 72.5926 226.489 80.038 230.667C87.4834 234.846 99.5761 234.905 107.07 230.667C114.563 226.43 114.599 219.587 107.154 215.409C99.7082 211.23 87.6155 211.171 80.1221 215.409Z" fill="#EBEBEB"/>
<path d="M83.0882 217.099C77.24 220.397 77.204 225.738 83.0162 229.036C88.8284 232.334 98.2672 232.334 104.103 229.036C109.94 225.738 109.988 220.397 104.175 217.099C98.3633 213.801 88.9244 213.801 83.0882 217.099Z" fill="#E0E0E0"/>
<g opacity="0.15">
<path d="M83.0882 217.099C77.24 220.397 77.204 225.738 83.0162 229.036C88.8284 232.334 98.2672 232.334 104.103 229.036C109.94 225.738 109.988 220.397 104.175 217.099C98.3633 213.801 88.9244 213.801 83.0882 217.099Z" fill="black"/>
</g>
<path d="M95.1931 223.59C93.6609 224.847 91.8445 225.729 89.894 226.164C87.9436 226.599 85.9153 226.573 83.977 226.09C82.1106 225.534 80.4152 224.533 79.044 223.176C77.6728 221.819 76.669 220.15 76.1233 218.319C78.3874 217.267 80.4602 215.859 82.2597 214.153C79.3896 213.456 76.377 213.562 73.5654 214.458C72.7882 213.262 72.3227 211.899 72.2096 210.487C72.0966 209.075 72.3395 207.658 72.917 206.359C76.1792 204.94 79.8487 204.691 83.2805 205.655C81.8609 204.449 80.2035 203.541 78.4107 202.985C76.618 202.43 74.7278 202.24 72.8569 202.427C72.586 197.071 73.4444 191.717 75.3787 186.698C82.4999 187.051 89.4169 190.055 91.7466 192.215C91.8557 194.709 91.5887 197.204 90.954 199.622C91.8739 199.16 92.6598 198.479 93.2391 197.642C93.8185 196.805 94.1725 195.839 94.2684 194.833C98.7236 195.924 100.633 198.096 101.329 199.762C100.686 202.859 99.2297 205.74 97.1024 208.119C101.293 206.887 102.999 202.321 102.999 202.321C107.058 211.864 106.265 222.662 95.1931 223.59Z" fill="#18A0FB"/>
<path opacity="0.2" d="M95.1931 223.59C93.6609 224.847 91.8445 225.729 89.894 226.164C87.9436 226.599 85.9153 226.573 83.977 226.09C82.1106 225.534 80.4152 224.533 79.044 223.176C77.6728 221.819 76.669 220.15 76.1233 218.319C78.3874 217.267 80.4602 215.859 82.2597 214.153C79.3896 213.456 76.377 213.562 73.5654 214.458C72.7882 213.262 72.3227 211.899 72.2096 210.487C72.0966 209.075 72.3395 207.658 72.917 206.359C76.1792 204.94 79.8487 204.691 83.2805 205.655C81.8609 204.449 80.2035 203.541 78.4107 202.985C76.618 202.43 74.7278 202.24 72.8569 202.427C72.586 197.071 73.4444 191.717 75.3787 186.698C82.4999 187.051 89.4169 190.055 91.7466 192.215C91.8557 194.709 91.5887 197.204 90.954 199.622C91.8739 199.16 92.6598 198.479 93.2391 197.642C93.8185 196.805 94.1725 195.839 94.2684 194.833C98.7236 195.924 100.633 198.096 101.329 199.762C100.686 202.859 99.2297 205.74 97.1024 208.119C101.293 206.887 102.999 202.321 102.999 202.321C107.058 211.864 106.265 222.662 95.1931 223.59Z" fill="black"/>
<path opacity="0.3" d="M95.1931 223.59C93.6609 224.847 91.8445 225.729 89.894 226.164C87.9436 226.599 85.9153 226.573 83.977 226.09C82.1106 225.534 80.4152 224.533 79.044 223.176C77.6728 221.819 76.669 220.15 76.1233 218.319C78.3874 217.267 80.4602 215.859 82.2597 214.153C79.3896 213.456 76.377 213.562 73.5654 214.458C72.7882 213.262 72.3227 211.899 72.2096 210.487C72.0966 209.075 72.3395 207.658 72.917 206.359C76.1792 204.94 79.8487 204.691 83.2805 205.655C81.8609 204.449 80.2035 203.541 78.4107 202.985C76.618 202.43 74.7278 202.24 72.8569 202.427C72.586 197.071 73.4444 191.717 75.3787 186.698C82.4999 187.051 89.4169 190.055 91.7466 192.215C91.8557 194.709 91.5887 197.204 90.954 199.622C91.8739 199.16 92.6598 198.479 93.2391 197.642C93.8185 196.805 94.1725 195.839 94.2684 194.833C98.7236 195.924 100.633 198.096 101.329 199.762C100.686 202.859 99.2297 205.74 97.1024 208.119C101.293 206.887 102.999 202.321 102.999 202.321C107.058 211.864 106.265 222.662 95.1931 223.59Z" fill="white"/>
<path d="M95.4452 224.623C95.4989 224.62 95.5514 224.606 95.5998 224.583C95.6481 224.561 95.6914 224.529 95.7271 224.489C95.7628 224.45 95.7902 224.404 95.8078 224.355C95.8254 224.305 95.8327 224.253 95.8295 224.2C95.145 215.397 89.9933 200.878 77.7204 188.894C77.6843 188.846 77.6382 188.808 77.5854 188.779C77.5325 188.751 77.474 188.734 77.414 188.73C77.3539 188.726 77.2936 188.735 77.2372 188.755C77.1808 188.776 77.1296 188.808 77.087 188.85C77.0444 188.891 77.0115 188.941 76.9904 188.996C76.9693 189.052 76.9607 189.11 76.9649 189.169C76.9692 189.228 76.9863 189.285 77.0151 189.337C77.044 189.388 77.0838 189.433 77.132 189.469C89.2607 201.288 94.3404 215.596 95.0009 224.259C95.013 224.364 95.0659 224.46 95.1486 224.528C95.2313 224.595 95.3375 224.629 95.4452 224.623Z" fill="#F5F5F5"/>
<path d="M92.0708 228.308C93.5001 229.447 95.1846 230.241 96.987 230.623C98.7893 231.005 100.659 230.966 102.443 230.508C104.226 230.051 105.874 229.188 107.252 227.989C108.63 226.791 109.699 225.292 110.372 223.613C108.325 222.703 106.452 221.457 104.836 219.928C107.547 219.294 110.381 219.375 113.05 220.162C113.864 219.159 114.401 217.969 114.611 216.706C114.822 215.442 114.698 214.147 114.251 212.944C111.144 211.696 107.701 211.493 104.464 212.369C107.343 210.168 110.97 209.119 114.611 209.434C115.234 204.698 114.766 199.886 113.242 195.349C106.445 195.748 99.7203 198.495 97.3906 200.443C97.1262 202.635 97.2194 204.853 97.6668 207.016C96.8432 206.635 96.1436 206.039 95.6455 205.293C95.1474 204.547 94.8702 203.681 94.8448 202.791C90.5937 203.8 88.6723 205.749 87.9158 207.216C88.3243 209.944 89.5151 212.504 91.3502 214.599C87.5075 213.531 86.1985 209.505 86.1985 209.505C81.7313 217.979 81.7913 227.498 92.0708 228.308Z" fill="#18A0FB"/>
<path opacity="0.3" d="M92.0708 228.308C93.5001 229.447 95.1846 230.241 96.987 230.623C98.7893 231.005 100.659 230.966 102.443 230.508C104.226 230.051 105.874 229.188 107.252 227.989C108.63 226.791 109.699 225.292 110.372 223.613C108.325 222.703 106.452 221.457 104.836 219.928C107.547 219.294 110.381 219.375 113.05 220.162C113.864 219.159 114.401 217.969 114.611 216.706C114.822 215.442 114.698 214.147 114.251 212.944C111.144 211.696 107.701 211.493 104.464 212.369C107.343 210.168 110.97 209.119 114.611 209.434C115.234 204.698 114.766 199.886 113.242 195.349C106.445 195.748 99.7203 198.495 97.3906 200.443C97.1262 202.635 97.2194 204.853 97.6668 207.016C96.8432 206.635 96.1436 206.039 95.6455 205.293C95.1474 204.547 94.8702 203.681 94.8448 202.791C90.5937 203.8 88.6723 205.749 87.9158 207.216C88.3243 209.944 89.5151 212.504 91.3502 214.599C87.5075 213.531 86.1985 209.505 86.1985 209.505C81.7313 217.979 81.7913 227.498 92.0708 228.308Z" fill="white"/>
<path d="M91.7945 229.259C91.8932 229.26 91.9889 229.226 92.0639 229.164C92.139 229.101 92.1883 229.014 92.2028 228.919C93.4037 221.254 99.0718 208.542 111.273 197.92C111.347 197.842 111.388 197.739 111.388 197.632C111.388 197.525 111.347 197.423 111.273 197.345C111.194 197.269 111.088 197.227 110.978 197.227C110.868 197.227 110.763 197.269 110.684 197.345C98.3273 208.108 92.5511 221.031 91.3622 228.825C91.3449 228.929 91.3705 229.036 91.4336 229.121C91.4966 229.207 91.5919 229.265 91.6985 229.282L91.7945 229.259Z" fill="white"/>
<path d="M84.9496 401.155L62.2892 401.801L39.6168 401.155C38.6441 416.121 41.6343 431.356 45.7532 438.809C46.7311 440.722 48.3033 442.283 50.2445 443.269C56.9333 447.049 67.7411 447.049 74.3819 443.269C76.3523 442.267 77.9305 440.658 78.8732 438.692C82.9681 431.203 85.9223 416.038 84.9496 401.155Z" fill="white"/>
<path d="M78.2607 392.082C87.1352 397.094 87.1832 405.216 78.3688 410.228C69.5545 415.24 55.1921 415.24 46.3057 410.228C37.4192 405.216 37.3832 397.094 46.2096 392.082C55.036 387.07 69.3863 387.07 78.2607 392.082Z" fill="#EBEBEB"/>
<path d="M74.7541 394.077C81.6831 397.986 81.7192 404.324 74.8262 408.233C67.9332 412.142 56.8132 412.142 49.8241 408.233C42.8351 404.324 42.8591 397.986 49.7401 394.077C56.621 390.169 67.8251 390.169 74.7541 394.077Z" fill="#E0E0E0"/>
<g opacity="0.15">
<path d="M74.7541 394.077C81.6831 397.986 81.7192 404.324 74.8262 408.233C67.9332 412.142 56.8132 412.142 49.8241 408.233C42.8351 404.324 42.8591 397.986 49.7401 394.077C56.621 390.169 67.8251 390.169 74.7541 394.077Z" fill="black"/>
</g>
<path d="M99.5521 306.621C48.4792 322.971 48.0109 356.365 59.5272 380.192C62.4333 385.016 71.2236 387.598 78.8732 358.02L65.4475 359.651L81.0587 351.904L85.1297 340.038L72.0883 340.988L88.6362 334.181C91.6937 324.784 95.3392 315.58 99.5521 306.621Z" fill="#18A0FB"/>
<path opacity="0.2" d="M99.5521 306.621C48.4792 322.971 48.0109 356.365 59.5272 380.192C62.4333 385.016 71.2236 387.598 78.8732 358.02L65.4475 359.651L81.0587 351.904L85.1297 340.038L72.0883 340.988L88.6362 334.181C91.6937 324.784 95.3392 315.58 99.5521 306.621Z" fill="black"/>
<path opacity="0.2" d="M99.5521 306.621C48.4792 322.971 48.0109 356.365 59.5272 380.192C62.4333 385.016 71.2236 387.598 78.8732 358.02L65.4475 359.651L81.0587 351.904L85.1297 340.038L72.0883 340.988L88.6362 334.181C91.6937 324.784 95.3392 315.58 99.5521 306.621Z" fill="white"/>
<path d="M85.1056 314.978C58.1702 334.932 55.7324 357.867 63.3459 381.776C60.656 360.719 57.7499 339.427 85.1056 314.978Z" fill="white"/>
<path d="M13.0416 340.542C63.382 347.479 69.4824 378.502 62.8176 402.528C60.9322 407.482 53.2107 411.32 41.0339 385.016L53.8111 384.394L37.9356 379.699L32.1354 369.311L44.4323 368.079L27.8723 364.428C23.4356 356.176 18.4827 348.199 13.0416 340.542Z" fill="#18A0FB"/>
<path opacity="0.2" d="M13.0416 340.542C63.382 347.479 69.4824 378.502 62.8176 402.528C60.9322 407.482 53.2107 411.32 41.0339 385.016L53.8111 384.394L37.9356 379.699L32.1354 369.311L44.4323 368.079L27.8723 364.428C23.4356 356.176 18.4827 348.199 13.0416 340.542Z" fill="white"/>
<path d="M27.9083 345.977C56.3929 360.215 62.5534 381.19 59.5272 404.665C58.4464 384.617 57.5457 364.311 27.9083 345.977Z" fill="white"/>
<path opacity="0.1" d="M13.0416 340.542C63.382 347.479 69.4824 378.502 62.8176 402.528C60.9322 407.482 53.2107 411.32 41.0339 385.016L53.8111 384.394L37.9356 379.699L32.1354 369.311L44.4323 368.079L27.8723 364.428C23.4356 356.176 18.4827 348.199 13.0416 340.542Z" fill="black"/>
<path d="M114.287 352.174C68.1135 352.914 59.0469 380.215 62.3253 402.646C63.4541 407.341 69.9988 411.613 83.9409 389.242L72.5206 387.234L87.3634 384.758L93.776 376.037L82.8361 373.572L98.1832 372.093C103.129 365.138 108.507 358.486 114.287 352.174Z" fill="#18A0FB"/>
<path d="M100.261 355.449C72.9528 365.156 65.0151 383.361 65.0391 404.841C68.3055 386.929 71.4518 368.724 100.261 355.449Z" fill="white"/>
<path opacity="0.2" d="M114.287 352.174C68.1135 352.914 59.0469 380.215 62.3253 402.646C63.4541 407.341 69.9988 411.613 83.9409 389.242L72.5206 387.234L87.3634 384.758L93.776 376.037L82.8361 373.572L98.1832 372.093C103.129 365.138 108.507 358.486 114.287 352.174Z" fill="white"/>
<path d="M501.254 87.9273C500.02 85.4607 498.053 83.4154 495.61 82.0585L348.804 0.423903C348.117 0.167716 347.39 0.0287584 346.655 0.0130881C339.089 -0.1395 331.5 6.82086 330.431 10.4712C330.188 10.9325 330.061 11.4433 330.059 11.9619V322.232C330.058 324.654 330.713 327.033 331.957 329.128C333.201 331.222 334.991 332.958 337.144 334.157L483.962 415.933C484.145 416.019 484.333 416.094 484.526 416.156C493.281 419.783 502.611 412.236 502.611 404.336V93.9838C502.637 91.8903 502.173 89.8186 501.254 87.9273Z" fill="#37474F"/>
<path d="M330.479 10.4593C331.548 6.80897 339.137 -0.104441 346.703 0.00119682C347.426 0.0208511 348.14 0.159743 348.816 0.412011L495.562 82.0583C497.723 83.2596 499.524 84.9921 500.788 87.084C502.052 89.1759 502.734 91.5545 502.767 93.9837V404.371C502.767 412.271 493.437 419.818 484.682 416.191C484.489 416.129 484.301 416.054 484.118 415.968L337.192 334.157C335.039 332.958 333.25 331.222 332.005 329.128C330.761 327.033 330.106 324.654 330.107 322.232V11.9735C330.105 11.4469 330.233 10.9276 330.479 10.4593Z" fill="#455A64"/>
<path d="M482.232 126.79C482.244 125.579 481.927 124.387 481.316 123.334C480.704 122.28 479.819 121.404 478.75 120.792L342.379 45.0263C341.845 44.7274 341.239 44.5713 340.623 44.5739C340.007 44.5765 339.403 44.7376 338.871 45.041C338.339 45.3444 337.898 45.7794 337.593 46.3023C337.287 46.8251 337.128 47.4174 337.132 48.0194V298.287C337.128 299.496 337.452 300.684 338.07 301.732C338.688 302.779 339.578 303.648 340.65 304.25L476.985 380.192C477.518 380.49 478.123 380.646 478.738 380.644C479.353 380.642 479.956 380.482 480.488 380.18C481.02 379.878 481.461 379.445 481.767 378.923C482.073 378.402 482.234 377.812 482.232 377.21V126.79Z" fill="#18A0FB"/>
<path opacity="0.2" d="M482.232 126.79C482.244 125.579 481.927 124.387 481.316 123.334C480.704 122.28 479.819 121.404 478.75 120.792L342.379 45.0263C341.845 44.7274 341.239 44.5713 340.623 44.5739C340.007 44.5765 339.403 44.7376 338.871 45.041C338.339 45.3444 337.898 45.7794 337.593 46.3023C337.287 46.8251 337.128 47.4174 337.132 48.0194V298.287C337.128 299.496 337.452 300.684 338.07 301.732C338.688 302.779 339.578 303.648 340.65 304.25L476.985 380.192C477.518 380.49 478.123 380.646 478.738 380.644C479.353 380.642 479.956 380.482 480.488 380.18C481.02 379.878 481.461 379.445 481.767 378.923C482.073 378.402 482.234 377.812 482.232 377.21V126.79Z" fill="black"/>
<path opacity="0.3" d="M502.767 93.9837V404.371C502.767 412.271 493.437 419.818 484.682 416.191C485.209 416.377 485.775 416.437 486.33 416.365C486.886 416.293 487.416 416.091 487.875 415.777C488.334 415.463 488.71 415.045 488.969 414.56C489.228 414.074 489.365 413.534 489.366 412.987V102.564C489.351 99.8597 488.515 97.2208 486.964 94.9814L501.374 87.9388C502.304 89.8237 502.78 91.8913 502.767 93.9837Z" fill="black"/>
<path opacity="0.1" d="M346.655 0.0129478C347.378 0.0326022 348.092 0.171494 348.768 0.423762L495.562 82.0584C498.005 83.4152 499.972 85.4605 501.206 87.9271L486.796 94.9697C485.597 93.1774 483.979 91.689 482.077 90.6268L335.355 8.99217C334.939 8.76185 334.48 8.61694 334.005 8.56634C333.53 8.51573 333.05 8.5605 332.593 8.69789C332.136 8.83527 331.713 9.06238 331.35 9.36528C330.986 9.66818 330.69 10.0405 330.479 10.4594C331.536 6.82072 339.125 -0.104428 346.655 0.0129478Z" fill="white"/>
<path d="M391.591 60.2499C390.558 59.663 389.706 60.1208 389.694 61.2828C389.733 61.9183 389.924 62.5361 390.251 63.0864C390.579 63.6368 391.033 64.1045 391.579 64.4519L420.4 80.7084C421.433 81.2953 422.261 80.8023 422.273 79.6403C422.238 79.0114 422.051 78.3996 421.728 77.855C421.404 77.3103 420.953 76.8481 420.412 76.5064L391.591 60.2499Z" fill="#263238"/>
<path d="M427.785 80.6733C426.752 80.0982 425.924 80.556 425.924 81.718C425.953 82.3517 426.136 82.9695 426.458 83.5205C426.779 84.0715 427.23 84.5399 427.773 84.8871C428.806 85.4623 429.659 84.9928 429.659 83.8307C429.624 83.1972 429.436 82.5807 429.11 82.0319C428.785 81.4831 428.33 81.0175 427.785 80.6733Z" fill="#263238"/>
<path d="M409.352 57.8908C407.286 56.717 405.629 57.6443 405.617 59.9683C405.684 61.232 406.054 62.4626 406.699 63.5599C407.344 64.6572 408.245 65.5902 409.328 66.2831C411.381 67.4569 413.099 66.4944 413.099 64.1821C413.024 62.9193 412.646 61.6914 411.995 60.5982C411.344 59.5051 410.439 58.5775 409.352 57.8908Z" fill="#263238"/>
<path d="M409.34 350.085C405.149 347.738 401.763 349.604 401.751 354.311C401.874 356.892 402.622 359.408 403.933 361.652C405.244 363.897 407.081 365.805 409.292 367.222C413.483 369.569 416.966 367.644 416.978 362.938C416.827 360.359 416.058 357.852 414.731 355.619C413.404 353.386 411.557 351.49 409.34 350.085Z" fill="#263238"/>
<path d="M459.188 135.347C459.02 134.912 458.828 134.478 458.624 134.056C457.787 132.386 456.586 130.916 455.105 129.748C454.596 129.358 454.058 129.005 453.496 128.692L320.236 54.5924C320.017 54.4961 319.787 54.4252 319.551 54.3812C319.156 54.3003 318.754 54.2493 318.35 54.2286C314.063 54.1464 309.764 56.5761 306.906 59.217C305.462 60.4428 304.338 61.9881 303.628 63.7243C303.53 63.9328 303.45 64.1487 303.388 64.3698C303.325 64.6035 303.292 64.8441 303.292 65.0858V346.705C303.291 348.903 303.887 351.062 305.021 352.961C305.3 353.429 305.609 353.88 305.945 354.311C306.978 355.615 308.263 356.708 309.728 357.527L443.024 431.743C443.188 431.823 443.357 431.894 443.529 431.954C443.529 431.954 443.529 431.954 443.589 431.954C451.539 435.241 460.005 428.433 460.005 421.215V139.572C459.985 138.128 459.709 136.698 459.188 135.347Z" fill="#18A0FB"/>
<path d="M303.604 63.7243C304.576 60.4026 311.469 54.0878 318.326 54.2286C318.987 54.2411 319.641 54.3642 320.26 54.5925L453.556 128.692C455.503 129.792 457.123 131.37 458.254 133.271C459.385 135.171 459.988 137.327 460.005 139.525V421.273C460.005 428.457 451.599 435.3 443.589 432.013C443.589 432.013 443.589 432.013 443.529 432.013C443.356 431.953 443.188 431.882 443.024 431.802L309.728 357.585C307.775 356.496 306.151 354.921 305.021 353.02C303.89 351.12 303.294 348.962 303.291 346.763V65.0859C303.287 64.6146 303.394 64.1486 303.604 63.7243Z" fill="#18A0FB"/>
<path opacity="0.2" d="M459.945 139.572V421.273C459.945 428.457 451.539 435.3 443.529 432.013C443.529 432.013 443.529 432.013 443.469 432.013C443.948 432.182 444.462 432.236 444.967 432.171C445.472 432.106 445.954 431.923 446.372 431.637C446.79 431.352 447.131 430.973 447.368 430.532C447.605 430.091 447.729 429.6 447.732 429.102V147.401C447.722 144.95 446.969 142.557 445.57 140.523L458.624 134.15C459.479 135.836 459.93 137.69 459.945 139.572Z" fill="white"/>
<path opacity="0.4" d="M318.314 54.2286C318.975 54.2411 319.629 54.3642 320.248 54.5925L453.544 128.692C455.765 129.936 457.552 131.805 458.672 134.056L445.618 140.429C444.529 138.801 443.06 137.449 441.331 136.485L308.035 62.3745C307.656 62.1668 307.237 62.0368 306.805 61.9925C306.373 61.9482 305.937 61.9905 305.522 62.1169C305.107 62.2432 304.723 62.4509 304.393 62.7273C304.063 63.0037 303.795 63.3429 303.604 63.7243C304.624 60.4026 311.457 54.0878 318.314 54.2286Z" fill="white"/>
<path opacity="0.3" d="M303.604 63.7243C304.576 60.4026 311.469 54.0878 318.326 54.2286C318.987 54.2411 319.641 54.3642 320.26 54.5925L453.556 128.692C455.503 129.792 457.123 131.37 458.254 133.271C459.385 135.171 459.988 137.327 460.005 139.525V421.273C460.005 428.457 451.599 435.3 443.589 432.013C443.589 432.013 443.589 432.013 443.529 432.013C443.356 431.953 443.188 431.882 443.024 431.802L309.728 357.585C307.775 356.496 306.151 354.921 305.021 353.02C303.89 351.12 303.294 348.962 303.291 346.763V65.0859C303.287 64.6146 303.394 64.1486 303.604 63.7243Z" fill="white"/>
<path opacity="0.3" d="M314.976 139.572C314.972 138.146 314.711 136.732 314.207 135.394C314.711 136.732 314.972 138.146 314.976 139.572Z" fill="white"/>
<path d="M434.054 198.389L315.288 131.356C314.147 130.71 313.223 131.227 313.223 132.53L313.031 263.368C313.065 264.073 313.271 264.76 313.63 265.372C313.989 265.984 314.491 266.504 315.096 266.889L433.85 333.911C434.991 334.545 435.915 334.04 435.927 332.737L436.095 201.887C436.062 201.188 435.86 200.506 435.505 199.898C435.15 199.29 434.653 198.773 434.054 198.389Z" fill="#18A0FB"/>
<path d="M320.728 87.8802L322.145 88.6784L322.157 82.7509L320.752 81.9528L320.728 87.8802Z" fill="white"/>
<path d="M318.302 86.5068L319.707 87.305L319.731 82.5043L318.314 81.7179L318.302 86.5068Z" fill="white"/>
<path d="M315.876 85.1336L317.281 85.9318L317.293 82.3753L315.888 81.5771L315.876 85.1336Z" fill="white"/>
<path d="M313.451 83.772L314.856 84.5584L314.868 82.164L313.451 81.3658V83.772Z" fill="white"/>
<path d="M325.988 90.8381L334.622 95.7209L334.634 90.7441L326 85.8613L325.988 90.8381Z" fill="white"/>
<path d="M338.921 98.1388L343.244 100.58L343.256 95.6035L338.933 93.1738L338.921 98.1388Z" fill="white"/>
<path d="M428.098 147.847L428.11 143.833L432.745 146.45L428.11 143.833L428.098 147.847Z" fill="white"/>
<path d="M428.098 147.847L432.745 150.465V146.45L428.11 143.833L428.098 147.847Z" fill="#18A0FB"/>
<path d="M436.011 148.962V147.39L427.257 142.448V148.317L436.011 153.258V151.697L437.128 152.331V149.537L436.011 148.962ZM432.745 150.523L428.097 147.906V143.892L432.745 146.509V150.523Z" fill="white"/>
<path d="M414.708 140.816L423.342 145.688L423.366 140.711L414.72 135.84L414.708 140.816Z" fill="white"/>
<path d="M373.47 117.247L382.104 122.13L382.128 117.154L373.482 112.271L373.47 117.247Z" fill="white"/>
<path d="M353.26 328.828L353.248 333.793L375.392 346.294L375.416 341.329L353.26 328.828Z" fill="#18A0FB"/>
<path d="M385.563 330.836L362.77 317.959L362.746 322.924L385.551 335.789L385.563 330.836Z" fill="#18A0FB"/>
<path d="M315.12 303.78L343.112 319.685L343.124 314.732L315.132 298.827L315.12 303.78Z" fill="#18A0FB"/>
<path d="M356.634 314.509L315.156 290.987L315.144 295.94L356.622 319.462L356.634 314.509Z" fill="#18A0FB"/>
<path d="M349.225 323.136L399.733 351.634L399.745 346.681L349.249 318.182L349.225 323.136Z" fill="#18A0FB"/>
<path d="M347.879 325.8L315.156 307.337L315.144 312.29L347.867 330.753L347.879 325.8Z" fill="#18A0FB"/>
<path d="M391.435 339.111L431.796 361.893L431.82 356.928L391.447 334.146L391.435 339.111Z" fill="#18A0FB"/>
<path d="M405.617 354.956L431.784 369.722L431.796 364.769L405.641 350.003L405.617 354.956Z" fill="#18A0FB"/>
<path d="M315.144 329.333L365.652 357.832L365.664 352.879L315.156 324.368L315.144 329.333Z" fill="#18A0FB"/>
<path d="M315.156 336.082L315.144 341.047L347.879 359.51V354.545L315.156 336.082Z" fill="#18A0FB"/>
<path d="M373.146 368.795L353.188 357.538V362.503L373.134 373.76L373.146 368.795Z" fill="#18A0FB"/>
<path d="M318.17 275.352C317.864 275.132 317.503 274.997 317.125 274.96C316.747 274.923 316.366 274.985 316.021 275.141C314.82 275.798 314.82 277.946 316.021 279.942L316.705 281.115L320.98 288.346L325.279 285.998L325.976 285.611C327.177 284.954 327.177 282.794 325.976 280.798C325.47 279.882 324.735 279.107 323.838 278.545C323.53 278.331 323.169 278.199 322.792 278.161C322.415 278.124 322.035 278.184 321.689 278.334L320.992 278.721L320.308 277.547C319.799 276.649 319.063 275.893 318.17 275.352Z" fill="white"/>
<path d="M335.991 285.646C337.527 286.622 338.804 287.938 339.721 289.489C340.637 291.039 341.165 292.779 341.263 294.566C341.297 295.471 341.045 296.365 340.542 297.125L341.239 300.494L338.597 298.217C337.665 298.249 336.745 298.008 335.955 297.524C334.421 296.547 333.146 295.23 332.232 293.68C331.318 292.13 330.791 290.39 330.695 288.604C330.707 285.317 333.073 284.003 335.991 285.646Z" fill="white"/>
<path d="M381.228 180.36L387.364 191.323L396.287 194.363L400.057 205.772L409.076 212.063L410.121 222.791L418.359 231.724L416.545 240.726L423.198 251.408L418.731 257.805L423.15 269.213L416.461 272.371L418.203 283.381L409.941 282.993L408.848 292.524L399.817 288.627L395.998 295.752L387.088 288.721L380.904 292.747L372.99 283.287L365.052 283.803L358.904 272.829L349.993 269.8L346.223 258.38L337.204 252.1L336.171 241.36L327.933 232.44L329.735 223.425L323.082 212.744L327.549 206.347L323.13 194.938L329.831 191.781L328.077 180.771L336.339 181.17L337.432 171.639L346.463 175.524L350.293 168.4L359.192 175.43L365.376 171.416L373.29 180.877L381.228 180.36Z" fill="#18A0FB"/>
<g opacity="0.4">
<path d="M381.228 180.36L387.364 191.323L396.287 194.363L400.057 205.772L409.076 212.063L410.121 222.791L418.359 231.724L416.545 240.726L423.198 251.408L418.731 257.805L423.15 269.213L416.461 272.371L418.203 283.381L409.941 282.993L408.848 292.524L399.817 288.627L395.998 295.752L387.088 288.721L380.904 292.747L372.99 283.287L365.052 283.803L358.904 272.829L349.993 269.8L346.223 258.38L337.204 252.1L336.171 241.36L327.933 232.44L329.735 223.425L323.082 212.744L327.549 206.347L323.13 194.938L329.831 191.781L328.077 180.771L336.339 181.17L337.432 171.639L346.463 175.524L350.293 168.4L359.192 175.43L365.376 171.416L373.29 180.877L381.228 180.36Z" fill="white"/>
</g>
<path d="M373.266 189.234C394.329 201.124 411.345 229.94 411.273 253.603C411.201 277.265 394.077 286.796 373.074 274.918C352.071 263.04 334.994 234.212 335.054 210.549C335.114 186.886 352.191 177.355 373.266 189.234Z" fill="#18A0FB"/>
<g opacity="0.2">
<path d="M373.266 189.234C394.329 201.124 411.345 229.94 411.273 253.603C411.201 277.265 394.077 286.796 373.074 274.918C352.071 263.04 334.994 234.212 335.054 210.549C335.114 186.886 352.191 177.355 373.266 189.234Z" fill="white"/>
</g>
<path d="M399.205 226.43C400.13 226.946 400.682 228.648 399.853 228.942C392.276 231.641 376.22 238.109 366.421 247.405C366.077 247.664 365.655 247.804 365.22 247.804C364.786 247.804 364.364 247.664 364.019 247.405C362.976 246.784 362.141 245.878 361.618 244.799C357.118 235.947 352.077 227.367 346.523 219.106C345.514 217.603 346.163 216.183 347.363 216.864C347.462 216.917 347.554 216.98 347.64 217.052C353.693 222.027 358.994 227.816 363.383 234.247C378.226 224.928 391.699 225.174 398.809 226.289C398.948 226.313 399.082 226.361 399.205 226.43Z" fill="white"/>
<path d="M323.19 112.787C325.423 114.208 327.281 116.125 328.613 118.381C329.944 120.637 330.711 123.168 330.852 125.769C330.852 130.534 327.381 132.459 323.142 130.065C320.9 128.649 319.032 126.735 317.692 124.479C316.352 122.223 315.578 119.688 315.432 117.083C315.492 112.318 318.939 110.393 323.19 112.787Z" fill="white"/>
<path d="M379.342 150.042L337.864 126.52L337.852 131.485L379.33 155.007L379.342 150.042Z" fill="white"/>
<path d="M194.277 158.411H195.477C203.283 158.505 213.142 163.693 217.97 177.003L236.715 212.474L215.28 221.735L203.571 188.248L194.277 158.411Z" fill="#FFA8A7"/>
<path d="M209.299 181.968C210.788 186.159 210.885 190.678 211.125 195.103C211.365 199.528 211.881 204.892 213.959 208.836C216.246 207.289 218.983 206.507 221.762 206.606C224.541 206.706 227.213 207.681 229.378 209.387C230.932 210.66 232.127 212.3 232.848 214.153L215.28 221.735L203.571 188.248L197.819 169.785C200.466 170.966 202.845 172.653 204.817 174.745C206.788 176.837 208.312 179.293 209.299 181.968Z" fill="#F28F8F"/>
<path d="M215.088 215.362C215.9 213.386 217.216 211.646 218.91 210.306C220.604 208.967 222.62 208.073 224.767 207.709C229.042 207.04 233.905 209.223 236.679 212.486C239.009 215.244 238.649 218.977 237.171 222.252C235.941 224.797 233.845 226.847 231.242 228.052C228.638 229.257 225.688 229.542 222.893 228.86C217.369 227.357 212.998 220.561 215.088 215.362Z" fill="#FFA8A7"/>
<path d="M146.963 444.091C146.486 445.029 145.743 445.814 144.824 446.353C143.904 446.892 142.846 447.162 141.775 447.131C140.824 446.954 139.937 446.535 139.203 445.917C138.47 445.299 137.915 444.503 137.596 443.61C136.963 441.835 136.674 439.96 136.743 438.081C136.615 431.821 136.767 425.585 137.199 419.372C141.594 420.277 146.074 420.734 150.565 420.733L148.512 438.046C148.403 440.14 147.877 442.194 146.963 444.091Z" fill="#FFA8A7"/>
<path d="M133.008 435.112C134.665 429.912 136.479 424.548 136.094 419.161L137.199 419.419C136.767 425.64 136.615 431.876 136.743 438.128C136.674 440.007 136.963 441.882 137.596 443.657C137.915 444.55 138.47 445.346 139.203 445.964C139.936 446.582 140.823 447.001 141.775 447.178C142.846 447.209 143.904 446.939 144.824 446.4C145.743 445.861 146.485 445.076 146.962 444.138C147.876 442.241 148.403 440.187 148.511 438.093L150.565 420.827H151.982C150.781 427.283 151.634 433.915 152.054 440.476C152.474 447.037 152.402 453.868 149.52 459.796C148.854 461.397 147.717 462.77 146.254 463.74C145.448 464.166 144.562 464.428 143.649 464.508C142.737 464.589 141.817 464.487 140.946 464.209C139.209 463.639 137.63 462.682 136.335 461.416C133.397 458.665 131.439 455.065 130.751 451.145C129.814 445.758 131.351 440.3 133.008 435.112Z" fill="#455A64"/>
<path d="M202.646 430.135L201.554 436.567C196.33 434.126 194.649 431.391 194.649 431.391C194.517 426.461 194.577 421.379 194.649 418.902C196.042 421.907 199.08 423.938 200.977 426.708C201.676 427.779 202.236 428.93 202.646 430.135Z" fill="#455A64"/>
<path d="M204.328 435.863L201.554 436.567L202.647 430.135C203.331 431.978 203.752 433.95 204.328 435.863Z" fill="#455A64"/>
<path opacity="0.2" d="M202.646 430.135L201.554 436.567C196.33 434.126 194.649 431.391 194.649 431.391C194.517 426.461 194.577 421.379 194.649 418.902C196.042 421.907 199.08 423.938 200.977 426.708C201.676 427.779 202.236 428.93 202.646 430.135Z" fill="black"/>
<path opacity="0.3" d="M204.328 435.863L201.554 436.567L202.647 430.135C203.331 431.978 203.752 433.95 204.328 435.863Z" fill="black"/>
<path d="M194.361 411.766C194.913 410.065 195.637 408.421 196.522 406.859C196.598 409.503 197.43 412.073 198.924 414.278C200.797 417.235 203.307 419.783 205.12 422.799C207.318 426.461 208.459 430.769 211.341 433.938C212.763 435.473 214.531 436.663 216.504 437.415C218.478 438.166 220.604 438.459 222.713 438.269C224.296 438.212 225.795 437.556 226.892 436.438C227.331 435.883 227.571 435.203 227.577 434.501C228.998 435.992 230.571 437.337 232.272 438.516C234.169 439.807 236.451 441.168 236.763 443.41C236.813 444.348 236.581 445.28 236.097 446.091C235.613 446.902 234.897 447.557 234.037 447.976C232.296 448.765 230.397 449.166 228.477 449.15C224.369 449.501 220.229 449.155 216.24 448.129C212.234 447.061 208.766 444.598 206.489 441.204C205.512 439.514 204.777 437.701 204.304 435.816C203.763 433.903 203.307 431.931 202.623 430.088C202.201 428.881 201.628 427.73 200.917 426.661C199.02 423.891 195.982 421.86 194.589 418.855C194.517 418.691 194.433 418.538 194.361 418.374C193.65 416.226 193.65 413.914 194.361 411.766Z" fill="#455A64"/>
<path d="M222.737 438.269C220.628 438.459 218.502 438.166 216.528 437.415C214.555 436.663 212.787 435.473 211.365 433.938C208.483 430.769 207.342 426.461 205.144 422.799C203.331 419.783 200.821 417.236 198.948 414.278C197.454 412.073 196.622 409.503 196.546 406.86L197.231 405.615C202.911 406.601 209.131 406.953 214.595 408.761C216.28 414.375 218.424 419.846 221.008 425.123C222.759 428.537 224.986 431.697 227.625 434.513C227.619 435.215 227.379 435.895 226.94 436.45C225.835 437.569 224.327 438.222 222.737 438.269Z" fill="#FFA8A7"/>
<path d="M207.354 206.594C207.666 211.289 207.974 215.984 208.279 220.679C219.147 264.471 215.904 329.897 215.904 329.897L215.568 409.712C214.028 410.699 212.303 411.377 210.492 411.705C208.681 412.034 206.822 412.006 205.022 411.625C203.223 411.244 201.519 410.516 200.01 409.484C198.501 408.452 197.217 407.137 196.234 405.615C194.385 386.002 185.054 355.144 187.828 331.094C184.069 312.114 181.271 285.118 181.271 285.118L172.133 331.81L153.099 421.919C144.693 425.44 137.235 423.022 134.81 419.83C136.755 370.121 135.926 346.223 143.768 323.241C141.366 261.584 140.598 233.719 155.969 212.533L155.777 204.528L207.354 206.594Z" fill="#18A0FB"/>
<path opacity="0.3" d="M207.354 206.594C207.666 211.289 207.974 215.984 208.279 220.679C219.147 264.471 215.904 329.897 215.904 329.897L215.568 409.712C214.028 410.699 212.303 411.377 210.492 411.705C208.681 412.034 206.822 412.006 205.022 411.625C203.223 411.244 201.519 410.516 200.01 409.484C198.501 408.452 197.217 407.137 196.234 405.615C194.385 386.002 185.054 355.144 187.828 331.094C184.069 312.114 181.271 285.118 181.271 285.118L172.133 331.81L153.099 421.919C144.693 425.44 137.235 423.022 134.81 419.83C136.755 370.121 135.926 346.223 143.768 323.241C141.366 261.584 140.598 233.719 155.969 212.533L155.777 204.528L207.354 206.594Z" fill="black"/>
<path opacity="0.2" d="M183.337 274.707C189.027 273.699 194.384 271.359 198.948 267.887C198.074 270.357 196.568 272.567 194.573 274.307C192.578 276.047 190.161 277.259 187.552 277.829L182.748 297.29L181.307 285.247L183.337 274.707Z" fill="black"/>
<path d="M188.38 157.589L193.892 157.988C194.952 158.065 195.98 158.375 196.899 158.896C197.818 159.416 198.605 160.133 199.2 160.993L211.929 179.421C213.802 182.116 214.721 185.336 214.545 188.59C214.37 191.843 213.109 194.951 210.957 197.438C210.152 198.365 209.554 199.447 209.202 200.613C208.851 201.78 208.753 203.005 208.915 204.211L213.262 246.266C188.236 264.424 154.108 253.532 142.723 247.605C143.156 238.484 147.107 226.594 151.838 218.472C153.354 215.89 154.329 213.038 154.706 210.084C155.083 207.13 154.855 204.132 154.036 201.265L150.433 188.623L155.645 158.528L188.38 157.589Z" fill="#455A64"/>
<path d="M209.215 114.923C209.648 117.189 211.473 124.008 209.648 127.835C208.771 129.654 207.786 130.757 208.447 132.671C209.107 134.584 211.857 135.687 212.23 137.8C212.542 139.502 211.173 140.981 210.332 142.495C209.742 143.573 209.402 144.766 209.338 145.988C209.274 147.21 209.487 148.43 209.963 149.562C210.438 150.693 211.163 151.709 212.086 152.534C213.01 153.36 214.108 153.976 215.304 154.338C213.7 154.239 212.139 153.796 210.73 153.042C209.321 152.287 208.099 151.239 207.15 149.972C206.3 148.7 205.758 147.256 205.567 145.748C205.375 144.241 205.539 142.71 206.045 141.274C206.418 140.46 206.688 139.605 206.85 138.727C206.994 136.99 205.805 135.452 204.868 133.962C202.759 130.732 201.872 126.883 202.358 123.081C202.899 119.266 205.769 116.637 209.215 114.923Z" fill="#263238"/>
<path d="M209.648 119.208C209.632 115.55 208.691 111.954 206.91 108.738C202.106 99.6411 192.283 93.0212 181.823 92.8686C176.885 92.7271 172.036 94.1791 168.025 97.0002C163.654 100.193 160.82 105.087 159.247 110.193C157.564 115.035 157.355 120.25 158.647 125.205C160.1 130.077 163.75 134.478 168.674 136.098C171.911 136.988 175.307 137.184 178.629 136.673C185.767 135.931 192.78 134.306 199.5 131.837C202.022 130.91 204.58 130.194 206.297 128.093C208.389 125.575 209.567 122.45 209.648 119.208Z" fill="#263238"/>
<path d="M188.38 146.615V158.564C188.38 158.564 198.359 164.796 194.156 168.095C186.231 174.327 169.226 158.493 169.226 158.493V138.563L188.38 146.615Z" fill="#FFA8A7"/>
<path d="M169.226 138.563C171.568 149.033 182.88 155.477 188.38 156.78V146.615L169.226 138.563Z" fill="#F28F8F"/>
<path d="M156.401 126.954C157.118 125.637 158.321 124.635 159.767 124.154C161.212 123.673 162.791 123.748 164.182 124.364C165.572 124.98 166.671 126.091 167.253 127.471C167.836 128.85 167.859 130.395 167.317 131.79C167.839 131.999 168.406 132.079 168.967 132.024C169.528 131.969 170.066 131.78 170.535 131.473C171.499 130.821 172.223 129.882 172.601 128.797C172.959 127.337 173.212 125.855 173.357 124.36C176.408 123.891 178.161 118.985 178.161 118.492C178.905 118.633 193.052 119.266 197.615 111.25C203.775 112.271 205.865 119.325 206.021 119.29C206.487 121.775 206.684 124.3 206.61 126.825C206.383 132.011 205.441 137.144 203.811 142.084C202.611 145.993 201.554 149.984 197.495 152.014C195.129 153.111 192.49 153.518 189.893 153.188C180.371 152.237 171.388 145.065 167.077 136.908C166.32 137.803 165.267 138.41 164.1 138.624C162.933 138.839 161.726 138.647 160.688 138.082C158.927 136.785 157.503 135.1 156.533 133.164C156.049 132.201 155.786 131.146 155.763 130.073C155.74 129.001 155.958 127.936 156.401 126.954Z" fill="#FFA8A7"/>
<path d="M193.46 127.647L198.384 136.556L192.031 137.46L193.46 127.647Z" fill="#F28F8F"/>
<path d="M185.834 140.218L190.53 142.683C190.097 143.199 189.505 143.563 188.841 143.72C188.178 143.876 187.481 143.817 186.855 143.551C186.319 143.195 185.925 142.669 185.739 142.062C185.553 141.455 185.587 140.804 185.834 140.218Z" fill="#F28F8F"/>
<path opacity="0.3" d="M185.834 140.218L190.53 142.683C190.097 143.199 189.505 143.563 188.841 143.72C188.178 143.876 187.481 143.817 186.855 143.551C186.319 143.195 185.925 142.669 185.739 142.062C185.553 141.455 185.587 140.804 185.834 140.218Z" fill="black"/>
<path d="M188.513 143.774C187.95 143.858 187.374 143.78 186.855 143.551C186.422 143.298 186.076 142.923 185.862 142.475C185.648 142.028 185.575 141.528 185.654 141.04C186.396 141.051 187.105 141.342 187.632 141.852C188.16 142.361 188.467 143.05 188.488 143.774H188.513Z" fill="#F28F8F"/>
<path d="M184.309 127.624C184.258 127.971 184.314 128.324 184.469 128.641C184.624 128.957 184.871 129.221 185.179 129.4C185.488 129.579 185.843 129.664 186.201 129.645C186.56 129.626 186.904 129.504 187.191 129.294C187.478 129.084 187.695 128.796 187.814 128.465C187.934 128.135 187.95 127.777 187.861 127.437C187.773 127.098 187.583 126.791 187.316 126.557C187.05 126.323 186.718 126.171 186.363 126.121C186.127 126.088 185.887 126.1 185.656 126.158C185.425 126.216 185.208 126.317 185.018 126.457C184.827 126.596 184.666 126.771 184.545 126.971C184.423 127.171 184.343 127.393 184.309 127.624Z" fill="#263238"/>
<path d="M199.452 129.149C199.404 129.496 199.461 129.849 199.618 130.164C199.774 130.479 200.023 130.742 200.332 130.919C200.641 131.096 200.996 131.179 201.354 131.159C201.712 131.139 202.055 131.015 202.341 130.805C202.627 130.594 202.842 130.305 202.961 129.974C203.079 129.644 203.094 129.287 203.005 128.948C202.916 128.609 202.725 128.303 202.459 128.069C202.192 127.836 201.86 127.685 201.506 127.635C201.269 127.602 201.028 127.615 200.797 127.673C200.565 127.732 200.348 127.834 200.157 127.975C199.966 128.115 199.805 128.292 199.685 128.493C199.564 128.695 199.485 128.918 199.452 129.149Z" fill="#263238"/>
<path d="M202.214 122.4L205.817 125.64C206.061 125.184 206.155 124.665 206.086 124.154C206.018 123.644 205.789 123.166 205.432 122.788C204.986 122.436 204.448 122.214 203.88 122.145C203.311 122.077 202.734 122.165 202.214 122.4Z" fill="#263238"/>
<path d="M186.939 120.065L182.568 122.212C182.47 121.703 182.532 121.177 182.747 120.704C182.961 120.23 183.317 119.831 183.769 119.56C184.294 119.353 184.867 119.29 185.426 119.379C185.985 119.468 186.508 119.705 186.939 120.065Z" fill="#263238"/>
<path d="M173.165 123.398C173.862 125.886 174.546 128.645 173.357 130.957C172.637 132.354 171.292 133.387 170.571 134.783C169.861 136.408 169.676 138.206 170.043 139.936C170.407 141.654 170.636 143.396 170.727 145.148C170.702 146.452 170.407 147.739 169.86 148.929C169.312 150.119 168.524 151.188 167.542 152.073C166.56 152.957 165.405 153.637 164.146 154.073C162.888 154.509 161.552 154.691 160.22 154.608C162.261 154.89 164.735 153.071 165.792 151.333C166.772 149.536 167.146 147.482 166.861 145.465C166.668 143.457 166.104 141.497 165.744 139.514C165.269 137.541 165.269 135.488 165.744 133.516C166.332 131.509 167.713 129.584 167.293 127.541C167.065 126.426 166.32 125.452 166.2 124.325C166.144 123.588 166.353 122.855 166.792 122.252C167.23 121.65 167.871 121.217 168.602 121.027C170.127 120.698 172.757 121.966 173.165 123.398Z" fill="#263238"/>
<path opacity="0.3" d="M189.533 99.4299C188.434 100.68 187.107 101.719 185.618 102.493C180.301 105.455 174.237 106.891 168.122 106.637C166.887 106.65 165.663 106.423 164.519 105.968C163.739 105.585 163.066 105.024 162.557 104.33C162.049 103.637 161.721 102.833 161.601 101.989C163.17 99.1674 165.406 96.753 168.122 94.9461C172.071 92.5189 176.668 91.2932 181.331 91.4249C184.097 91.4734 186.841 91.9203 189.473 92.7512C190.106 93.4075 190.546 94.2185 190.746 95.0987C190.872 95.8634 190.829 96.6457 190.62 97.3928C190.411 98.1399 190.04 98.8345 189.533 99.4299Z" fill="black"/>
<path d="M193.184 87.7628C192.596 82.9856 188.537 79.1122 183.889 77.4807C179.226 75.9377 174.152 76.0793 169.587 77.8798C165.052 79.7054 161.118 82.7142 158.215 86.5773C156.101 89.3121 154.408 92.6456 154.816 96.0612C155.273 100.028 158.623 103.303 162.526 104.524C166.526 105.626 170.766 105.577 174.739 104.383C177.357 103.632 185.727 100.345 187.828 98.1622C190.542 95.3217 193.652 91.5657 193.184 87.7628Z" fill="#263238"/>
<path opacity="0.2" d="M165.948 191.886C168.571 195.563 172.398 198.255 176.797 199.518C181.196 200.782 185.905 200.541 190.145 198.835C188.348 200.54 186.143 201.777 183.73 202.433C181.318 203.089 178.775 203.144 176.335 202.591C171.52 201.382 167.389 196.535 165.948 191.886Z" fill="black"/>
<path d="M199.044 245.046C199.037 245.073 199.037 245.101 199.044 245.128C199.031 245.162 199.031 245.199 199.044 245.234L200.965 247.382C200.959 247.335 200.959 247.287 200.965 247.241C201.038 247.569 201.542 247.558 202.371 247.1L218.474 238.25C219.72 237.547 220.778 236.566 221.56 235.386L235.563 209.904C235.791 209.481 235.779 209.234 235.563 209.117H235.623L233.773 206.969C233.703 206.91 233.614 206.877 233.521 206.875H233.413H233.317H233.221H233.137H233.053H232.969H232.885H232.801H232.704H232.62H232.536H232.44L216.337 215.725H216.253H216.156L216.072 215.784H216H215.928H215.868L215.664 215.96V216.019V216.077L215.604 216.148L215.544 216.218V216.3L215.484 216.383V216.465L215.424 216.547L215.364 216.629V216.711V216.782V216.852L201.362 242.334V242.405C201.357 242.428 201.357 242.452 201.362 242.475V242.546C201.357 242.569 201.357 242.593 201.362 242.616C201.358 242.639 201.358 242.663 201.362 242.686C201.042 242.386 200.613 242.222 200.169 242.231C199.725 242.24 199.303 242.421 198.996 242.733C198.689 243.046 198.521 243.466 198.53 243.899C198.539 244.333 198.724 244.745 199.044 245.046ZM235.19 209.07C235.19 209.07 235.25 209.07 235.298 209.07C235.262 209.068 235.226 209.068 235.19 209.07ZM216.457 219.634C216.589 219.505 216.745 219.387 216.901 219.258C216.745 219.387 216.589 219.47 216.457 219.599V219.634ZM215.688 220.42L215.892 220.221L215.688 220.42ZM200.978 247.135C200.973 247.108 200.973 247.08 200.978 247.053C200.972 247.096 200.972 247.139 200.978 247.182C200.978 247.182 200.978 247.112 200.978 247.1V247.135Z" fill="#E0E0E0"/>
<path opacity="0.2" d="M199.044 245.046C199.037 245.073 199.037 245.101 199.044 245.128C199.031 245.162 199.031 245.199 199.044 245.234L200.965 247.382C200.959 247.335 200.959 247.287 200.965 247.241C201.038 247.569 201.542 247.558 202.371 247.1L218.474 238.25C219.72 237.547 220.778 236.566 221.56 235.386L235.563 209.904C235.791 209.481 235.779 209.234 235.563 209.117H235.623L233.773 206.969C233.703 206.91 233.614 206.877 233.521 206.875H233.413H233.317H233.221H233.137H233.053H232.969H232.885H232.801H232.704H232.62H232.536H232.44L216.337 215.725H216.253H216.156L216.072 215.784H216H215.928H215.868L215.664 215.96V216.019V216.077L215.604 216.148L215.544 216.218V216.3L215.484 216.383V216.465L215.424 216.547L215.364 216.629V216.711V216.782V216.852L201.362 242.334V242.405C201.357 242.428 201.357 242.452 201.362 242.475V242.546C201.357 242.569 201.357 242.593 201.362 242.616C201.358 242.639 201.358 242.663 201.362 242.686C201.042 242.386 200.613 242.222 200.169 242.231C199.725 242.24 199.303 242.421 198.996 242.733C198.689 243.046 198.521 243.466 198.53 243.899C198.539 244.333 198.724 244.745 199.044 245.046ZM235.19 209.07C235.19 209.07 235.25 209.07 235.298 209.07C235.262 209.068 235.226 209.068 235.19 209.07ZM216.457 219.634C216.589 219.505 216.745 219.387 216.901 219.258C216.745 219.387 216.589 219.47 216.457 219.599V219.634ZM215.688 220.42L215.892 220.221L215.688 220.42ZM200.978 247.135C200.973 247.108 200.973 247.08 200.978 247.053C200.972 247.096 200.972 247.139 200.978 247.182C200.978 247.182 200.978 247.112 200.978 247.1V247.135Z" fill="black"/>
<path opacity="0.2" d="M213.274 218.918V218.848V218.765L213.334 218.683L213.394 218.601V218.519L213.454 218.437V218.355L213.514 218.284L213.574 218.214V218.155V218.096L213.779 217.92H213.839H213.911H213.983L214.067 217.862H214.163H214.247L230.351 209.012H230.447H230.531H230.615H230.711H230.795H230.879H230.963H231.047H231.131H231.227H231.323H231.431C231.524 209.013 231.613 209.046 231.684 209.105L233.593 211.253C233.513 211.16 233.357 211.136 233.125 211.183C232.815 211.259 232.519 211.382 232.248 211.547L218.258 218.214C217.937 218.389 217.632 218.589 217.345 218.812C217.039 219.043 216.747 219.29 216.469 219.552C216.197 219.799 215.94 220.062 215.7 220.338C215.504 220.575 215.327 220.826 215.172 221.09L213.25 218.942L213.274 218.918Z" fill="white"/>
<path d="M143.072 170.196C144.405 160.806 151.057 158.869 155.585 158.528C155.585 158.528 161.265 162.343 161.265 179.339L160.784 221.864L163.979 223.167C172.962 226.919 182.347 229.675 191.959 231.383C196.975 227.496 203.211 225.422 209.612 225.515L207.21 229.846C211.713 232.663 221.885 227.58 221.885 227.58C222.629 233.778 218.522 240.21 213.07 243.473C207.618 246.736 155.609 241.947 144.621 234.963C137.343 230.433 140.262 190.149 143.072 170.196Z" fill="#FFA8A7"/>
<path d="M232.884 214.81C233.234 216.484 233.431 218.184 233.473 219.892C233.074 223.955 231.313 227.776 228.465 230.761C227.872 231.415 227.132 231.925 226.304 232.252C225.887 232.408 225.436 232.454 224.996 232.386C224.555 232.318 224.141 232.138 223.794 231.864C223.184 231.149 222.875 230.235 222.929 229.306C222.794 227.929 222.871 226.54 223.157 225.186C223.44 223.811 224.225 222.584 225.367 221.735C226.255 221.241 227.198 220.847 228.177 220.561C229.142 220.162 230.004 219.556 230.699 218.789L232.884 214.81Z" fill="#FFA8A7"/>
<path d="M236.391 116.203L269.151 97.8219C272.021 96.2138 278.758 98.397 278.758 102.904C278.756 102.539 278.657 102.181 278.47 101.865C278.283 101.55 278.014 101.287 277.691 101.105C277.368 100.922 277.002 100.825 276.628 100.823C276.255 100.822 275.888 100.916 275.563 101.097L242.792 119.478C241.716 120.091 240.851 121.002 240.306 122.095L233.941 118.574C234.517 117.577 235.365 116.756 236.391 116.203Z" fill="#18A0FB"/>
<path d="M240.366 122.095C239.903 122.962 239.656 123.923 239.646 124.9V148.681C239.645 149.045 239.742 149.403 239.928 149.72C240.113 150.036 240.381 150.299 240.703 150.482C241.026 150.665 241.392 150.762 241.765 150.763C242.138 150.764 242.504 150.669 242.828 150.488C241.884 151.052 240.806 151.363 239.7 151.392C238.594 151.42 237.501 151.164 236.528 150.649C235.555 150.135 234.738 149.38 234.158 148.459C233.577 147.539 233.254 146.486 233.221 145.406V121.626C233.222 120.552 233.507 119.496 234.05 118.562L240.366 122.095Z" fill="#18A0FB"/>
<path opacity="0.4" d="M236.391 116.203L269.151 97.8219C272.021 96.2138 278.758 98.397 278.758 102.904C278.756 102.539 278.657 102.181 278.47 101.865C278.283 101.55 278.014 101.287 277.691 101.105C277.368 100.922 277.002 100.825 276.628 100.823C276.255 100.822 275.888 100.916 275.563 101.097L242.792 119.478C241.716 120.091 240.851 121.002 240.306 122.095L233.941 118.574C234.517 117.577 235.365 116.756 236.391 116.203Z" fill="white"/>
<path opacity="0.2" d="M240.366 122.095C239.903 122.962 239.656 123.923 239.646 124.9V148.681C239.645 149.045 239.742 149.403 239.928 149.72C240.113 150.036 240.381 150.299 240.703 150.482C241.026 150.665 241.392 150.762 241.765 150.763C242.138 150.764 242.504 150.669 242.828 150.488C241.884 151.052 240.806 151.363 239.7 151.392C238.594 151.42 237.501 151.164 236.528 150.649C235.555 150.135 234.738 149.38 234.158 148.459C233.577 147.539 233.254 146.486 233.221 145.406V121.626C233.222 120.552 233.507 119.496 234.05 118.562L240.366 122.095Z" fill="white"/>
<path d="M275.624 101.097L242.852 119.478C241.877 120.026 241.067 120.816 240.504 121.769C239.942 122.721 239.645 123.801 239.646 124.9V148.681C239.645 149.045 239.742 149.403 239.927 149.72C240.113 150.036 240.381 150.299 240.703 150.482C241.026 150.665 241.392 150.762 241.765 150.763C242.138 150.764 242.504 150.669 242.828 150.488L275.599 132.189C276.576 131.641 277.387 130.851 277.952 129.899C278.517 128.948 278.816 127.867 278.818 126.767V102.904C278.816 102.539 278.717 102.181 278.53 101.865C278.343 101.55 278.074 101.287 277.751 101.105C277.428 100.922 277.062 100.825 276.688 100.823C276.315 100.822 275.948 100.916 275.624 101.097Z" fill="#18A0FB"/>
<path d="M231.755 137.025L239.633 138.469V128.598L231.479 136.121C231.407 136.189 231.354 136.274 231.328 136.369C231.303 136.463 231.304 136.563 231.333 136.656C231.361 136.75 231.416 136.834 231.491 136.899C231.565 136.964 231.657 137.008 231.755 137.025Z" fill="#18A0FB"/>
<path d="M239.633 128.598L233.173 124.983L225.031 132.588C224.969 132.645 224.922 132.716 224.894 132.794C224.865 132.872 224.855 132.955 224.866 133.038C224.877 133.12 224.907 133.199 224.954 133.268C225.002 133.336 225.065 133.393 225.139 133.434L231.576 136.955L239.633 128.598Z" fill="#18A0FB"/>
<path opacity="0.2" d="M239.633 128.598L233.173 124.983L225.031 132.588C224.969 132.645 224.922 132.716 224.894 132.794C224.865 132.872 224.855 132.955 224.866 133.038C224.877 133.12 224.907 133.199 224.954 133.268C225.002 133.336 225.065 133.393 225.139 133.434L231.576 136.955L239.633 128.598Z" fill="white"/>
<path d="M270.64 108.785C271.444 108.327 272.009 109.231 271.276 110.369C266.006 118.502 261.396 127.026 257.49 135.863C257.09 136.861 256.375 137.707 255.449 138.281C255.165 138.5 254.814 138.619 254.452 138.619C254.091 138.619 253.739 138.5 253.455 138.281C251.511 136.474 249.387 134.862 247.115 133.469C246.49 133.081 247.007 131.661 247.811 131.203C247.908 131.147 248.013 131.108 248.124 131.086C250.497 130.626 252.933 130.558 255.329 130.887C259.324 123.083 264.298 115.797 270.136 109.196C270.277 109.03 270.448 108.891 270.64 108.785Z" fill="white"/>
</svg>
