<svg width="532" height="501" viewBox="0 0 532 501" fill="none" xmlns="http://www.w3.org/2000/svg">
<path d="M345.763 86.5769C344.36 79.6634 341.342 69.054 335.784 65.4616C327.362 59.9954 318.801 71.7161 308.611 73.2151C298.421 74.7141 314.548 44.2946 296.722 38.8155C278.897 33.3364 273.788 53.6763 267.836 63.058C261.885 72.4397 253.408 59.1813 245.758 61.4944C238.109 63.8075 242.361 76.3423 234.726 77.9059C227.091 79.4695 214.346 70.0878 208.395 75.567C202.781 80.7359 202.458 81.7439 194.359 86.5123L345.763 86.5769Z" fill="#0EC505"/>
<path d="M113.33 270.786C112.404 266.264 110.439 259.311 106.79 256.959C101.175 253.38 95.6732 261.056 88.9922 262.128C82.3112 263.201 92.8801 243.171 81.2023 239.592C69.5246 236.012 66.184 249.322 62.2961 255.46C58.4082 261.599 52.836 252.876 47.8252 254.44C42.8144 256.003 45.6075 264.17 40.5968 265.191C35.586 266.212 27.2487 260.022 23.3467 263.666C19.6553 267.065 19.4588 267.698 14.2094 270.825L113.33 270.786Z" fill="#0EC505"/>
<path d="M521.197 230.171C518.39 216.241 512.256 194.815 501.055 187.527C483.918 176.491 466.794 200.139 446.316 203.293C425.838 206.446 458.302 144.961 422.343 133.925C386.383 122.889 376.095 163.879 364.108 182.798C352.121 201.716 334.956 174.979 319.516 179.709C304.077 184.439 312.667 209.676 297.256 212.829C281.844 215.982 256.131 197.051 244.144 208.048C232.761 218.528 232.157 220.492 215.988 230.12L521.197 230.171Z" fill="#0EC505"/>
<path opacity="0.4" d="M345.763 86.5769C344.36 79.6634 341.342 69.054 335.784 65.4616C327.362 59.9954 318.801 71.7161 308.611 73.2151C298.421 74.7141 314.548 44.2946 296.722 38.8155C278.897 33.3364 273.788 53.6763 267.836 63.058C261.885 72.4397 253.408 59.1813 245.758 61.4944C238.109 63.8075 242.361 76.3423 234.726 77.9059C227.091 79.4695 214.346 70.0878 208.395 75.567C202.781 80.7359 202.458 81.7439 194.359 86.5123L345.763 86.5769Z" fill="white"/>
<path opacity="0.4" d="M113.33 270.786C112.404 266.264 110.439 259.311 106.79 256.959C101.175 253.38 95.6732 261.056 88.9922 262.128C82.3112 263.201 92.8801 243.171 81.2023 239.592C69.5246 236.012 66.184 249.322 62.2961 255.46C58.4082 261.599 52.836 252.876 47.8252 254.44C42.8144 256.003 45.6075 264.17 40.5968 265.191C35.586 266.212 27.2487 260.022 23.3467 263.666C19.6553 267.065 19.4588 267.698 14.2094 270.825L113.33 270.786Z" fill="white"/>
<path opacity="0.4" d="M521.197 230.171C518.39 216.241 512.256 194.815 501.055 187.527C483.918 176.491 466.794 200.139 446.316 203.293C425.838 206.446 458.302 144.961 422.343 133.925C386.383 122.889 376.095 163.879 364.108 182.798C352.121 201.716 334.956 174.979 319.516 179.709C304.077 184.439 312.667 209.676 297.256 212.829C281.844 215.982 256.131 197.051 244.144 208.048C232.761 218.528 232.157 220.492 215.988 230.12L521.197 230.171Z" fill="white"/>
<path d="M428.28 427.148C428.28 427.148 447.369 428.893 457.053 439.786C460.529 435.907 464.896 432.785 469.84 430.646C474.784 428.508 480.182 427.406 485.644 427.42C490.129 422.435 492.984 416.38 493.876 409.96C494.769 403.539 493.662 397.018 490.684 391.154C487.707 385.29 482.982 380.326 477.059 376.839C471.136 373.352 464.259 371.485 457.229 371.457C450.199 371.428 443.304 373.239 437.348 376.678C431.392 380.117 426.62 385.043 423.587 390.882C420.553 396.721 419.384 403.234 420.215 409.661C421.046 416.088 423.843 422.166 428.28 427.187V427.148Z" fill="#0EC505"/>
<path opacity="0.3" d="M428.28 427.148C428.28 427.148 447.369 428.893 457.053 439.786C460.529 435.907 464.896 432.785 469.84 430.646C474.784 428.508 480.182 427.406 485.644 427.42C490.129 422.435 492.984 416.38 493.876 409.96C494.769 403.539 493.662 397.018 490.684 391.154C487.707 385.29 482.982 380.326 477.059 376.839C471.136 373.352 464.259 371.485 457.229 371.457C450.199 371.428 443.304 373.239 437.348 376.678C431.392 380.117 426.62 385.043 423.587 390.882C420.553 396.721 419.384 403.234 420.215 409.661C421.046 416.088 423.843 422.166 428.28 427.187V427.148Z" fill="white"/>
<path d="M456.422 373.856L455.776 461.987H459.004L456.422 373.856Z" fill="#263238"/>
<path d="M457.39 436.465C457.39 436.465 463.833 425.791 475.44 422.522C475.44 422.522 463.187 425.197 457.067 434.384L457.39 436.465Z" fill="#263238"/>
<path d="M457.39 406.201C457.39 406.201 463.833 395.527 475.44 392.257C475.44 392.257 463.187 394.932 457.067 404.12L457.39 406.201Z" fill="#263238"/>
<path d="M457.39 421.333C457.39 421.333 463.833 410.659 475.44 407.39C475.44 407.39 463.187 410.065 457.067 419.253L457.39 421.333Z" fill="#263238"/>
<path d="M456.436 413.916C456.436 413.916 450.218 403.242 439.017 399.972C439.017 399.972 450.835 402.647 456.744 411.835L456.436 413.916Z" fill="#263238"/>
<path d="M456.436 428.75C456.436 428.75 450.218 418.076 439.017 414.807C439.017 414.807 450.835 417.482 456.744 426.67L456.436 428.75Z" fill="#263238"/>
<path d="M357.329 406.95C357.329 406.95 382.888 409.289 395.857 423.879C395.857 423.879 409.542 406.976 434.133 407.312C440.142 400.638 443.968 392.529 445.165 383.93C446.363 375.332 444.882 366.597 440.897 358.742C436.911 350.888 430.584 344.238 422.652 339.566C414.721 334.894 405.511 332.393 396.095 332.353C386.679 332.313 377.444 334.737 369.467 339.342C361.489 343.947 355.096 350.544 351.033 358.364C346.97 366.185 345.403 374.907 346.515 383.515C347.627 392.124 351.372 400.264 357.315 406.989L357.329 406.95Z" fill="#0EC505"/>
<path opacity="0.5" d="M357.329 406.95C357.329 406.95 382.888 409.289 395.857 423.879C395.857 423.879 409.542 406.976 434.133 407.312C440.142 400.638 443.968 392.529 445.165 383.93C446.363 375.332 444.882 366.597 440.897 358.742C436.911 350.888 430.584 344.238 422.652 339.566C414.721 334.894 405.511 332.393 396.095 332.353C386.679 332.313 377.444 334.737 369.467 339.342C361.489 343.947 355.096 350.544 351.033 358.364C346.97 366.185 345.403 374.907 346.515 383.515C347.627 392.124 351.372 400.264 357.315 406.989L357.329 406.95Z" fill="white"/>
<path d="M395.001 335.592L394.145 453.6H398.454L395.001 335.592Z" fill="#263238"/>
<path d="M396.306 419.433C396.306 419.433 404.938 405.128 420.476 400.76C420.476 400.76 404.068 404.327 395.871 416.642L396.306 419.433Z" fill="#263238"/>
<path d="M396.306 378.896C396.306 378.896 404.938 364.59 420.476 360.223C420.476 360.223 404.068 363.802 395.871 376.117L396.306 378.896Z" fill="#263238"/>
<path d="M396.306 399.171C396.306 399.171 404.938 384.866 420.476 380.485C420.476 380.485 404.068 384.065 395.871 396.38L396.306 399.171Z" fill="#263238"/>
<path d="M395.029 389.233C395.029 389.233 386.692 374.928 371.701 370.56C371.701 370.56 387.52 374.127 395.436 386.455L395.029 389.233Z" fill="#263238"/>
<path d="M395.029 409.096C395.029 409.096 386.692 394.79 371.701 390.423C371.701 390.423 387.52 394.002 395.436 406.317L395.029 409.096Z" fill="#263238"/>
<path d="M134.117 406.33C134.117 406.33 160.294 408.708 173.558 423.646C173.558 423.646 187.594 406.343 212.746 406.705C218.904 399.874 222.828 391.573 224.059 382.768C225.29 373.964 223.779 365.018 219.701 356.974C215.623 348.93 209.146 342.118 201.025 337.333C192.905 332.547 183.474 329.984 173.832 329.943C164.19 329.902 154.734 332.384 146.565 337.1C138.396 341.816 131.851 348.572 127.692 356.581C123.533 364.59 121.932 373.522 123.074 382.337C124.217 391.151 128.056 399.486 134.145 406.369L134.117 406.33Z" fill="#0EC505"/>
<path opacity="0.3" d="M134.117 406.33C134.117 406.33 160.294 408.708 173.558 423.646C173.558 423.646 187.594 406.343 212.746 406.705C218.904 399.874 222.828 391.573 224.059 382.768C225.29 373.964 223.779 365.018 219.701 356.974C215.623 348.93 209.146 342.118 201.025 337.333C192.905 332.547 183.474 329.984 173.832 329.943C164.19 329.902 154.734 332.384 146.565 337.1C138.396 341.816 131.851 348.572 127.692 356.581C123.533 364.59 121.932 373.522 123.074 382.337C124.217 391.151 128.056 399.486 134.145 406.369L134.117 406.33Z" fill="white"/>
<path d="M172.688 333.28L171.803 454.079H176.225L172.688 333.28Z" fill="#263238"/>
<path d="M174.021 419.097C174.021 419.097 182.85 404.469 198.808 399.985C198.808 399.985 181.965 403.642 173.628 416.254L174.021 419.097Z" fill="#263238"/>
<path d="M174.021 377.616C174.021 377.616 182.85 362.975 198.752 358.504C198.752 358.504 181.909 362.161 173.572 374.76L174.021 377.616Z" fill="#263238"/>
<path d="M174.021 398.357C174.021 398.357 182.85 383.716 198.752 379.245C198.752 379.245 181.909 382.902 173.572 395.514L174.021 398.357Z" fill="#263238"/>
<path d="M172.702 388.187C172.702 388.187 164.182 373.546 148.841 369.075C148.841 369.075 165.038 372.732 173.137 385.344L172.702 388.187Z" fill="#263238"/>
<path d="M172.702 408.527C172.702 408.527 164.182 393.886 148.841 389.402C148.841 389.402 165.038 393.072 173.137 405.671L172.702 408.527Z" fill="#263238"/>
<path d="M45.3689 430.03C45.3689 430.03 65.6788 431.878 75.981 443.469C75.981 443.469 86.8588 430.043 106.383 430.314C111.158 425.013 114.199 418.571 115.152 411.74C116.105 404.908 114.93 397.968 111.765 391.728C108.599 385.487 103.573 380.203 97.272 376.491C90.9707 372.778 83.6536 370.791 76.1727 370.759C68.6919 370.727 61.3552 372.653 55.0171 376.312C48.679 379.97 43.6004 385.212 40.3726 391.425C37.1448 397.639 35.9008 404.568 36.7853 411.408C37.6699 418.247 40.6467 424.714 45.3689 430.056V430.03Z" fill="#0EC505"/>
<path opacity="0.5" d="M45.3689 430.03C45.3689 430.03 65.6788 431.878 75.981 443.469C75.981 443.469 86.8588 430.043 106.383 430.314C111.158 425.013 114.199 418.571 115.152 411.74C116.105 404.908 114.93 397.968 111.765 391.728C108.599 385.487 103.573 380.203 97.272 376.491C90.9707 372.778 83.6536 370.791 76.1727 370.759C68.6919 370.727 61.3552 372.653 55.0171 376.312C48.679 379.97 43.6004 385.212 40.3726 391.425C37.1448 397.639 35.9008 404.568 36.7853 411.408C37.6699 418.247 40.6467 424.714 45.3689 430.056V430.03Z" fill="white"/>
<path d="M75.3073 373.339L74.6196 467.079H78.0443L75.3073 373.339Z" fill="#263238"/>
<path d="M76.3319 439.928C76.3319 439.928 83.1954 428.569 95.5329 425.093C95.5329 425.093 82.5077 427.936 75.9951 437.718L76.3319 439.928Z" fill="#263238"/>
<path d="M76.3319 407.739C76.3319 407.739 83.1954 396.38 95.5329 392.904C95.5329 392.904 82.5077 395.747 75.9951 405.529L76.3319 407.739Z" fill="#263238"/>
<path d="M76.3319 423.853C76.3319 423.853 83.1954 412.481 95.5329 409.018C95.5329 409.018 82.5077 411.861 75.9951 421.643L76.3319 423.853Z" fill="#263238"/>
<path d="M75.2933 415.944C75.2933 415.944 68.6684 404.586 56.766 401.109C56.766 401.109 69.3982 403.952 75.6161 413.735L75.2933 415.944Z" fill="#263238"/>
<path d="M75.2933 431.723C75.2933 431.723 68.6684 420.364 56.766 416.888C56.766 416.888 69.3982 419.73 75.6161 429.513L75.2933 431.723Z" fill="#263238"/>
<path d="M506.193 456.534L498.22 455.242C497.547 454.906 496.831 454.582 496.073 454.272L502.417 448.431L483.567 449.594L481.672 446.7L476.647 447.85L474.135 442.061L467.215 444.387L465.334 436.284L459.046 439.179L452.758 434.54L450.849 438.068L445.825 436.905L444.098 439.282L442.498 438.908L440.224 434.54L432.505 436.633L428.294 435.767L426.989 433.958H418.89L417.486 433.713L416.883 428.75L406.833 429.332L401.808 424.163L397.401 428.789L394.903 426.437L391.759 427.6L387.351 422.431C387.351 422.431 383.59 427.6 381.077 428.221C378.565 428.841 374.158 424.163 374.158 424.163L371.589 427.316L368.782 427.032L366.649 424.745L362.901 426.437L361.385 426.308L360.332 422.431L352.781 424.745L347.756 420.687L344.809 425.029L342.76 424.9L339.588 424.163L332.668 422.431L330.155 423.582L321.987 417.224V423.801H321.243L313.186 419.563L312.119 423.439H309.902L308.147 419.563L300.68 423.207H297.171L296.834 421.346L284.202 422.509L279.809 415.557L276.033 421.927L271.64 416.138L267.794 423.207H263.584L260.917 421.294L260.299 423.271L256.776 423.362L252.144 420.079L251.513 422.961L246.53 421.268L241.59 423.853H240.635L238.361 420.713L230.81 423.026L228.606 424.383L224.69 424.577L223.904 421.294L215.146 425.171L210.809 425.429C209.335 424.06 206.753 421.927 205.04 421.927C204.249 421.985 203.487 422.228 202.826 422.633C202.165 423.037 201.628 423.591 201.265 424.241L198.808 422.393L195.931 426.36L194.05 426.515L191.903 424.124L185.615 427.019L183.102 421.85L176.183 427.019L174.919 422.961L167.93 427.019L163.522 422.393L159.003 429.668L157.599 429.81L153.389 426.437L149.739 430.637L147.241 430.921L143.956 427.045L142.693 429.939L137.079 427.045L133.935 432.214L127.647 429.901L120.559 434.191L111.983 435.315L108.249 432.847L105.105 434.578L100.698 432.847L99.4489 436.323L95.0417 435.16L91.7292 438.21L91.1257 438.3L89.3291 434.54L83.0972 438.068L79.3356 433.441L74.2967 439.231L66.1279 439.799L58.5907 440.381L52.9763 442.694L47.5164 445.55L43.5443 445.007L39.9511 447.113L39.5722 447.204L35.3614 446.092L32.2174 447.824L26.6031 447.255L25.7329 451.223C24.3293 451.688 23.038 452.166 21.7186 452.67C20.4694 452.554 19.1922 452.463 18.4202 452.463C17.6482 452.463 16.6236 453.755 15.613 455.267C6.44765 459.635 0.833328 465.101 8.0758 470.968C17.5921 478.722 41.7617 475.31 52.9062 474.625C100.628 471.705 136.658 462.491 155.185 463.99C173.712 465.489 100.151 500.987 179.706 501C259.261 501.013 422.525 492.523 446.386 490.455C470.247 488.388 422.708 480.324 429.543 470.658C436.378 460.992 491.876 469.185 501.21 466.885C507.4 465.36 505.421 461.548 503.428 459.131L506.193 456.534Z" fill="#0EC505"/>
<path opacity="0.4" d="M506.193 456.534L498.22 455.242C497.547 454.906 496.831 454.582 496.073 454.272L502.417 448.431L483.567 449.594L481.672 446.7L476.647 447.85L474.135 442.061L467.215 444.387L465.334 436.284L459.046 439.179L452.758 434.54L450.849 438.068L445.825 436.905L444.098 439.282L442.498 438.908L440.224 434.54L432.505 436.633L428.294 435.767L426.989 433.958H418.89L417.486 433.713L416.883 428.75L406.833 429.332L401.808 424.163L397.401 428.789L394.903 426.437L391.759 427.6L387.351 422.431C387.351 422.431 383.59 427.6 381.077 428.221C378.565 428.841 374.158 424.163 374.158 424.163L371.589 427.316L368.782 427.032L366.649 424.745L362.901 426.437L361.385 426.308L360.332 422.431L352.781 424.745L347.756 420.687L344.809 425.029L342.76 424.9L339.588 424.163L332.668 422.431L330.155 423.582L321.987 417.224V423.801H321.243L313.186 419.563L312.119 423.439H309.902L308.147 419.563L300.68 423.207H297.171L296.834 421.346L284.202 422.509L279.809 415.557L276.033 421.927L271.64 416.138L267.794 423.207H263.584L260.917 421.294L260.299 423.271L256.776 423.362L252.144 420.079L251.513 422.961L246.53 421.268L241.59 423.853H240.635L238.361 420.713L230.81 423.026L228.606 424.383L224.69 424.577L223.904 421.294L215.146 425.171L210.809 425.429C209.335 424.06 206.753 421.927 205.04 421.927C204.249 421.985 203.487 422.228 202.826 422.633C202.165 423.037 201.628 423.591 201.265 424.241L198.808 422.393L195.931 426.36L194.05 426.515L191.903 424.124L185.615 427.019L183.102 421.85L176.183 427.019L174.919 422.961L167.93 427.019L163.522 422.393L159.003 429.668L157.599 429.81L153.389 426.437L149.739 430.637L147.241 430.921L143.956 427.045L142.693 429.939L137.079 427.045L133.935 432.214L127.647 429.901L120.559 434.191L111.983 435.315L108.249 432.847L105.105 434.578L100.698 432.847L99.4489 436.323L95.0417 435.16L91.7292 438.21L91.1257 438.3L89.3291 434.54L83.0972 438.068L79.3356 433.441L74.2967 439.231L66.1279 439.799L58.5907 440.381L52.9763 442.694L47.5164 445.55L43.5443 445.007L39.9511 447.113L39.5722 447.204L35.3614 446.092L32.2174 447.824L26.6031 447.255L25.7329 451.223C24.3293 451.688 23.038 452.166 21.7186 452.67C20.4694 452.554 19.1922 452.463 18.4202 452.463C17.6482 452.463 16.6236 453.755 15.613 455.267C6.44765 459.635 0.833328 465.101 8.0758 470.968C17.5921 478.722 41.7617 475.31 52.9062 474.625C100.628 471.705 136.658 462.491 155.185 463.99C173.712 465.489 100.151 500.987 179.706 501C259.261 501.013 422.525 492.523 446.386 490.455C470.247 488.388 422.708 480.324 429.543 470.658C436.378 460.992 491.876 469.185 501.21 466.885C507.4 465.36 505.421 461.548 503.428 459.131L506.193 456.534Z" fill="white"/>
<path d="M309.06 281.266C309.06 281.266 305.003 291.036 301.887 296.773C298.771 302.511 293.466 326.96 292.203 339.03C290.939 351.099 289.087 366.335 289.087 366.335C289.087 366.335 281.9 378.405 278.476 383.005C275.051 387.605 270.054 390.19 272.861 393.343C275.668 396.496 282.546 392.193 287.543 389.608C292.539 387.024 293.157 382.423 295.964 381.273C298.771 380.123 304.709 380.976 303.768 373.52C302.828 366.064 298.463 362.316 299.403 360.3C300.343 358.284 306.884 338.461 309.691 333.292C312.498 328.123 318.744 322.076 321.243 314.038C322.809 308.307 323.546 302.411 323.432 296.502C323.432 296.502 329.355 285.583 330.296 285.001C331.236 284.42 312.498 283.567 309.06 281.266Z" fill="white"/>
<path d="M309.06 281.266C309.06 281.266 305.003 291.036 301.887 296.773C298.771 302.511 293.466 326.96 292.203 339.03C290.939 351.099 289.087 366.335 289.087 366.335C289.087 366.335 281.9 378.405 278.476 383.005C275.051 387.605 270.054 390.19 272.861 393.343C275.668 396.496 282.546 392.193 287.543 389.608C292.539 387.024 293.157 382.423 295.964 381.273C298.771 380.123 304.709 380.976 303.768 373.52C302.828 366.064 298.463 362.316 299.403 360.3C300.343 358.284 306.884 338.461 309.691 333.292C312.498 328.123 318.744 322.076 321.243 314.038C322.809 308.307 323.546 302.411 323.432 296.502C323.432 296.502 329.355 285.583 330.296 285.001C331.236 284.42 312.498 283.567 309.06 281.266Z" fill="#D9D9D9" stroke="#263238" stroke-linecap="round" stroke-linejoin="round"/>
<path opacity="0.25" d="M304.582 291.385C307.305 292.677 312.526 295.055 315.727 295.055H320.204C320.204 295.055 323.685 302.382 317.72 314.749C311.755 327.115 301.298 341.757 298.814 351.371C297.41 356.734 293.733 373.455 290.729 387.218C293.003 384.814 293.901 382.139 295.95 381.299C298.757 380.149 304.695 381.002 303.754 373.546C302.814 366.09 298.449 362.342 299.389 360.326C300.329 358.31 306.884 338.461 309.691 333.292C312.498 328.123 318.744 322.076 321.243 314.038C322.809 308.307 323.546 302.411 323.432 296.502C323.432 296.502 329.355 285.583 330.296 285.001C331.236 284.42 312.498 283.567 309.06 281.267C309.06 281.267 306.884 286.384 304.582 291.385Z" fill="black"/>
<path d="M309.06 281.266C309.06 281.266 305.003 291.036 301.887 296.773C298.771 302.511 293.466 326.96 292.203 339.03C290.939 351.099 289.087 366.335 289.087 366.335C289.087 366.335 281.9 378.405 278.476 383.005C275.051 387.605 270.054 390.19 272.861 393.343C275.668 396.496 282.546 392.193 287.543 389.608C292.539 387.024 293.157 382.423 295.964 381.273C298.771 380.123 304.709 380.976 303.768 373.52C302.828 366.064 298.463 362.316 299.403 360.3C300.343 358.284 306.884 338.461 309.691 333.292C312.498 328.123 318.744 322.076 321.243 314.038C322.809 308.307 323.546 302.411 323.432 296.502C323.432 296.502 329.355 285.583 330.296 285.001C331.236 284.42 312.498 283.567 309.06 281.266Z" stroke="#263238" stroke-linecap="round" stroke-linejoin="round"/>
<path d="M272.847 393.369C275.654 396.535 282.532 392.219 287.529 389.634C292.525 387.05 293.143 382.449 295.95 381.299C298.757 380.149 304.694 381.002 303.754 373.546C302.926 366.904 299.389 363.208 299.263 361.063C298.613 363.175 297.234 365.035 295.333 366.361C291.276 369.527 289.087 366.361 289.087 366.361C289.087 366.361 281.9 378.431 278.476 383.031C275.051 387.631 270.04 390.255 272.847 393.369Z" fill="#263238" stroke="#263238" stroke-linecap="round" stroke-linejoin="round"/>
<path d="M303.768 373.61C302.251 374.837 300.567 375.875 298.757 376.699C293.452 378.999 292.203 383.302 284.722 388.768C283.016 390.148 280.995 391.158 278.808 391.721C276.622 392.285 274.325 392.389 272.089 392.025C272.23 392.501 272.484 392.943 272.833 393.317C275.64 396.483 282.518 392.167 287.515 389.583C292.511 386.998 293.129 382.398 295.936 381.248C298.743 380.097 304.638 380.989 303.768 373.61Z" fill="white" stroke="#263238" stroke-linecap="round" stroke-linejoin="round"/>
<path d="M389.611 282.701L396.797 292.768C396.797 292.768 399.913 305.987 404.601 314.607C409.289 323.226 420.841 337.867 426.455 344.212C432.069 350.557 433.95 362.898 433.95 362.898C433.95 362.898 431.143 368.364 433.01 372.383C434.877 376.402 440.196 379.283 441.137 383.018C442.077 386.753 447.691 395.669 452.056 395.088C456.422 394.506 459.243 389.35 455.804 381.868C452.365 374.386 445.811 368.648 443.944 360.882C442.077 353.115 436.14 320.926 431.143 310.872C428.308 305.075 424.966 299.5 421.15 294.202L416.462 276.951C416.462 276.951 398.987 285.583 389.611 282.701Z" fill="white"/>
<path d="M389.611 282.701L396.797 292.768C396.797 292.768 399.913 305.987 404.601 314.607C409.289 323.226 420.841 337.867 426.455 344.212C432.069 350.557 433.95 362.898 433.95 362.898C433.95 362.898 431.143 368.364 433.01 372.383C434.877 376.402 440.196 379.283 441.137 383.018C442.077 386.753 447.691 395.669 452.056 395.088C456.422 394.506 459.243 389.35 455.804 381.868C452.365 374.386 445.811 368.648 443.944 360.882C442.077 353.115 436.14 320.926 431.143 310.872C428.308 305.075 424.966 299.5 421.15 294.202L416.462 276.951C416.462 276.951 398.987 285.583 389.611 282.701Z" fill="#D9D9D9" stroke="#263238" stroke-linecap="round" stroke-linejoin="round"/>
<path opacity="0.25" d="M431.143 310.872C428.308 305.075 424.966 299.5 421.15 294.202L416.462 276.951C416.462 276.951 398.987 285.583 389.611 282.701L396.755 292.703C397.976 292.703 399.324 292.768 400.77 292.768C404.705 292.673 408.585 291.897 412.209 290.48C412.209 290.48 424.139 307.874 430.104 322.528C434.245 332.698 439.593 348.14 443.13 357.264C440.701 345.956 435.55 319.763 431.143 310.872Z" fill="black"/>
<path d="M389.611 282.701L396.797 292.768C396.797 292.768 399.913 305.987 404.601 314.607C409.289 323.226 420.841 337.867 426.455 344.212C432.069 350.557 433.95 362.898 433.95 362.898C433.95 362.898 431.143 368.364 433.01 372.383C434.877 376.402 440.196 379.283 441.137 383.018C442.077 386.753 447.691 395.669 452.056 395.088C456.422 394.506 459.243 389.35 455.804 381.868C452.365 374.386 445.811 368.648 443.944 360.882C442.077 353.115 436.14 320.926 431.143 310.872C428.308 305.075 424.966 299.5 421.15 294.202L416.462 276.951C416.462 276.951 398.987 285.583 389.611 282.701Z" stroke="#263238" stroke-linecap="round" stroke-linejoin="round"/>
<path d="M455.804 381.868C452.842 375.407 447.565 370.238 444.968 363.996C444.515 365.228 443.734 366.334 442.695 367.214C439.256 369.799 433.95 362.898 433.95 362.898C433.95 362.898 431.143 368.364 433.01 372.383C434.877 376.402 440.196 379.284 441.137 383.018C442.077 386.753 447.691 395.669 452.056 395.088C456.422 394.506 459.243 389.35 455.804 381.868Z" fill="#263238" stroke="#263238" stroke-linecap="round" stroke-linejoin="round"/>
<path d="M441.137 383.018C441.531 384.366 442.097 385.668 442.821 386.895C442.652 386.568 442.506 386.231 442.386 385.887C440.814 381.286 439.887 375.549 436.449 372.654C434.768 371.13 433.436 369.311 432.533 367.304C432.187 369.001 432.352 370.753 433.01 372.37C434.891 376.415 440.224 379.283 441.137 383.018Z" fill="white" stroke="#263238" stroke-linecap="round" stroke-linejoin="round"/>
<path d="M457.067 385.564C456.688 387.98 455.916 390.733 454.26 392.219C451.355 394.894 445.993 391.805 443.466 387.993C445.726 391.689 449.179 395.475 452.07 395.088C455.664 394.622 458.204 391.004 457.067 385.564Z" fill="white" stroke="#263238" stroke-linecap="round" stroke-linejoin="round"/>
<path d="M401.794 192.451C401.794 192.451 402.412 193.019 399.605 194.738C396.797 196.457 389.934 197.904 391.492 200.204C393.05 202.504 394.608 203.655 393.359 204.52C392.11 205.386 390.243 205.386 388.685 206.523C387.127 207.661 382.439 193.885 382.439 193.885C382.439 193.885 393.99 188.664 401.794 192.451Z" fill="white"/>
<path d="M401.794 192.451C401.794 192.451 402.412 193.019 399.605 194.738C396.797 196.457 389.934 197.904 391.492 200.204C393.05 202.504 394.608 203.655 393.359 204.52C392.11 205.386 390.243 205.386 388.685 206.523C387.127 207.661 382.439 193.885 382.439 193.885C382.439 193.885 393.99 188.664 401.794 192.451Z" fill="#0EC505"/>
<path opacity="0.25" d="M401.794 192.451C401.794 192.451 402.412 193.019 399.605 194.738C396.797 196.457 389.934 197.904 391.492 200.204C393.05 202.504 394.608 203.655 393.359 204.52C392.11 205.386 390.243 205.386 388.685 206.523C387.127 207.661 382.439 193.885 382.439 193.885C382.439 193.885 393.99 188.664 401.794 192.451Z" fill="black"/>
<path d="M401.794 192.451C401.794 192.451 402.412 193.019 399.605 194.738C396.797 196.457 389.934 197.904 391.492 200.204C393.05 202.504 394.608 203.655 393.359 204.52C392.11 205.386 390.243 205.386 388.685 206.523C387.127 207.661 382.439 193.885 382.439 193.885C382.439 193.885 393.99 188.664 401.794 192.451Z" stroke="#263238" stroke-linecap="round" stroke-linejoin="round"/>
<path d="M330.296 201.936L327.489 216.874C327.489 216.874 315.937 239.876 311.881 251.661C307.824 263.447 301.887 284.135 301.887 284.135C301.887 284.135 306.252 287.301 319.376 289.304C332.499 291.307 348.991 283.567 348.991 283.567C348.991 283.567 353.988 258.846 355.546 255.68C357.104 252.514 361.469 244.179 361.469 244.179H365.54L376.151 282.132C376.151 282.132 385.821 284.433 391.45 285.285C397.078 286.138 405.486 286.72 412.995 281.835C417.863 278.431 421.903 274.126 424.855 269.197C424.855 269.197 412.995 243.352 407.675 232.691C402.356 222.03 390.201 203.939 390.201 203.939L386.453 192.153L330.296 201.936Z" fill="#263238" stroke="#263238" stroke-linecap="round" stroke-linejoin="round"/>
<path d="M330.927 222.624L344.037 234.125" stroke="white" stroke-linecap="round" stroke-linejoin="round"/>
<path d="M346.858 237.834L349.034 239.294" stroke="white" stroke-linecap="round" stroke-linejoin="round"/>
<path d="M331.236 227.225L344.374 236.142" stroke="white" stroke-linecap="round" stroke-linejoin="round"/>
<path d="M342.339 282.998C344.206 282.36 346.025 281.609 347.784 280.75" stroke="white" stroke-linecap="round" stroke-linejoin="round"/>
<path d="M305.326 281.835C314.689 285.421 324.972 286.458 334.956 284.82" stroke="white" stroke-linecap="round" stroke-linejoin="round"/>
<path d="M377.442 279.251C377.442 279.251 398.987 291.902 422.357 267.75" stroke="white" stroke-linecap="round" stroke-linejoin="round"/>
<path d="M393.99 214.29L387.744 225.209" stroke="white" stroke-linecap="round" stroke-linejoin="round"/>
<path d="M343.096 210.555C354.691 211.634 366.379 209.638 376.782 204.804" stroke="white" stroke-linecap="round" stroke-linejoin="round"/>
<path d="M388.516 198.537L386.495 192.153L330.352 201.936L329.847 204.598C339.03 207.068 348.695 207.629 358.143 206.239C368.543 204.701 378.728 202.118 388.516 198.537Z" fill="white"/>
<path d="M388.516 198.537L386.495 192.153L330.352 201.936L329.847 204.598C339.03 207.068 348.695 207.629 358.143 206.239C368.543 204.701 378.728 202.118 388.516 198.537Z" fill="#949494" stroke="#263238" stroke-linecap="round" stroke-linejoin="round"/>
<path d="M388.516 198.537L386.495 192.153L330.352 201.936L329.847 204.598C339.03 207.068 348.695 207.629 358.143 206.239C368.543 204.701 378.728 202.118 388.516 198.537V198.537Z" stroke="#263238" stroke-linecap="round" stroke-linejoin="round"/>
<path d="M419.367 88.1019C416.292 77.8539 412.224 67.8808 407.212 58.3027C403.408 50.8465 399.633 41.5035 393.766 35.2103C390.018 31.1914 383.141 28.0254 381.583 28.6069C380.025 29.1884 373.161 31.76 373.161 35.2103C373.161 38.6606 375.66 38.6606 375.66 38.6606C375.66 38.6606 375.028 42.9767 376.909 44.6954C378.79 46.4141 388.46 45.8455 388.46 45.8455C390.188 48.1837 391.624 50.6936 392.741 53.3276C394.608 59.0651 396.264 60.2153 397.513 70.5661C398.748 78.8021 400.52 86.9623 402.819 95.0025C401.615 95.6839 400.555 96.5594 399.689 97.587C397.822 99.6029 385.962 110.509 385.962 110.509C382.531 112.007 378.979 113.256 375.337 114.244C372.142 115.159 369.049 116.353 366.101 117.811C364.178 117.604 362.241 117.41 361.203 117.41C359.013 117.41 343.728 119.995 343.728 119.995C340.195 118.06 336.426 116.516 332.499 115.394C328.857 114.406 325.305 113.157 321.874 111.66C321.874 111.66 310.014 100.74 308.147 98.7371C307.281 97.7095 306.221 96.834 305.017 96.1526C307.316 88.1124 309.088 79.9522 310.323 71.7162C311.333 63.3683 313.944 53.8833 319.39 46.9956C319.39 46.9956 329.061 47.5771 330.941 45.8455C332.822 44.1139 332.177 39.8107 332.177 39.8107C332.177 39.8107 334.675 39.8107 334.675 36.3604C334.675 32.9101 327.811 30.3256 326.253 29.757C324.695 29.1884 317.832 32.3415 314.07 36.3604C310.309 40.3793 310.646 44.4111 306.898 50.1616C303.151 55.9121 290.055 83.76 288.469 89.252C286.883 94.744 285.044 97.8713 285.353 100.469C285.662 103.066 300.652 117.992 304.4 122.023C308.147 126.055 322.506 139.843 322.506 139.843C322.506 139.843 327.811 163.983 329.369 172.615C330.927 181.247 330.001 205.089 330.001 205.089C330.001 205.089 347.167 201.639 363.406 199.92C379.646 198.201 397.429 192.451 399.619 192.451H401.808C401.808 192.451 389.625 178.65 389.625 176.634C389.625 175.031 390.032 145.749 390.187 133.99C394.72 129.596 401.134 123.341 403.45 120.847C407.198 116.816 422.188 101.877 422.497 99.2927C422.806 96.7083 420.925 93.5681 419.367 88.1019Z" fill="white"/>
<path d="M419.367 88.1019C416.292 77.8539 412.224 67.8808 407.212 58.3027C403.408 50.8465 399.633 41.5035 393.766 35.2103C390.018 31.1914 383.141 28.0254 381.583 28.6069C380.025 29.1884 373.161 31.76 373.161 35.2103C373.161 38.6606 375.66 38.6606 375.66 38.6606C375.66 38.6606 375.028 42.9767 376.909 44.6954C378.79 46.4141 388.46 45.8455 388.46 45.8455C390.188 48.1837 391.624 50.6936 392.741 53.3276C394.608 59.0651 396.264 60.2153 397.513 70.5661C398.748 78.8021 400.52 86.9623 402.819 95.0025C401.615 95.6839 400.555 96.5594 399.689 97.587C397.822 99.6029 385.962 110.509 385.962 110.509C382.531 112.007 378.979 113.256 375.337 114.244C372.142 115.159 369.049 116.353 366.101 117.811C364.178 117.604 362.241 117.41 361.203 117.41C359.013 117.41 343.728 119.995 343.728 119.995C340.195 118.06 336.426 116.516 332.499 115.394C328.857 114.406 325.305 113.157 321.874 111.66C321.874 111.66 310.014 100.74 308.147 98.7371C307.281 97.7095 306.221 96.834 305.017 96.1526C307.316 88.1124 309.088 79.9522 310.323 71.7162C311.333 63.3683 313.944 53.8833 319.39 46.9956C319.39 46.9956 329.061 47.5771 330.941 45.8455C332.822 44.1139 332.177 39.8107 332.177 39.8107C332.177 39.8107 334.675 39.8107 334.675 36.3604C334.675 32.9101 327.811 30.3256 326.253 29.757C324.695 29.1884 317.832 32.3415 314.07 36.3604C310.309 40.3793 310.646 44.4111 306.898 50.1616C303.151 55.9121 290.055 83.76 288.469 89.252C286.883 94.744 285.044 97.8713 285.353 100.469C285.662 103.066 300.652 117.992 304.4 122.023C308.147 126.055 322.506 139.843 322.506 139.843C322.506 139.843 327.811 163.983 329.369 172.615C330.927 181.247 330.001 205.089 330.001 205.089C330.001 205.089 347.167 201.639 363.406 199.92C379.646 198.201 397.429 192.451 399.619 192.451H401.808C401.808 192.451 389.625 178.65 389.625 176.634C389.625 175.031 390.032 145.749 390.187 133.99C394.72 129.596 401.134 123.341 403.45 120.847C407.198 116.816 422.188 101.877 422.497 99.2927C422.806 96.7083 420.925 93.5681 419.367 88.1019Z" fill="#D9D9D9" stroke="#263238" stroke-linecap="round" stroke-linejoin="round"/>
<path opacity="0.25" d="M331.236 178.327C330.296 174.295 329.047 151.008 327.489 143.539C325.931 136.07 322.183 133.201 319.993 130.035C317.804 126.869 311.572 122.282 303.754 114.528C295.936 106.775 288.778 100.172 290.041 94.421C290.897 90.428 299.319 67.9429 304.372 54.6199C299.136 64.5055 289.774 84.6904 288.469 89.2521C286.911 94.7183 285.044 97.8713 285.353 100.469C285.662 103.066 300.652 117.992 304.4 122.023C308.147 126.055 322.506 139.843 322.506 139.843C322.506 139.843 327.811 163.983 329.369 172.615C329.997 177.235 330.292 181.889 330.254 186.545C331.04 182.862 331.545 179.619 331.236 178.327Z" fill="black"/>
<path opacity="0.25" d="M417.767 97.8712C417.767 102.187 394.973 117.707 389.695 125.758C384.418 133.809 385.948 153.644 385.948 161.682C386.05 164.946 385.947 168.212 385.639 171.465L389.709 176.013C389.709 171.413 390.102 144.999 390.257 134.015C394.79 129.622 401.205 123.367 403.521 120.873C407.268 116.841 422.258 101.903 422.567 99.3185C422.876 96.734 421.009 93.568 419.451 88.1018C416.377 77.8537 412.309 67.8806 407.296 58.3026C403.493 50.8464 399.717 41.5034 393.85 35.2102C393.85 35.2102 403.745 57.3463 409.682 72.0004C415.619 86.6545 417.767 93.568 417.767 97.8712Z" fill="black"/>
<path d="M419.367 88.1019C416.292 77.8539 412.224 67.8808 407.212 58.3027C403.408 50.8465 399.633 41.5035 393.766 35.2103C390.018 31.1914 383.141 28.0254 381.583 28.6069C380.025 29.1884 373.161 31.76 373.161 35.2103C373.161 38.6606 375.66 38.6606 375.66 38.6606C375.66 38.6606 375.028 42.9767 376.909 44.6954C378.79 46.4141 388.46 45.8455 388.46 45.8455C390.188 48.1837 391.624 50.6936 392.741 53.3276C394.608 59.0651 396.264 60.2153 397.513 70.5661C398.748 78.8021 400.52 86.9623 402.819 95.0025C401.615 95.6839 400.555 96.5594 399.689 97.587C397.822 99.6029 385.962 110.509 385.962 110.509C382.531 112.007 378.979 113.256 375.337 114.244C372.142 115.159 369.049 116.353 366.101 117.811C364.178 117.604 362.241 117.41 361.203 117.41C359.013 117.41 343.728 119.995 343.728 119.995C340.195 118.06 336.426 116.516 332.499 115.394C328.857 114.406 325.305 113.157 321.874 111.66C321.874 111.66 310.014 100.74 308.147 98.7371C307.281 97.7095 306.221 96.834 305.017 96.1526C307.316 88.1124 309.088 79.9522 310.323 71.7162C311.333 63.3683 313.944 53.8833 319.39 46.9956C319.39 46.9956 329.061 47.5771 330.941 45.8455C332.822 44.1139 332.177 39.8107 332.177 39.8107C332.177 39.8107 334.675 39.8107 334.675 36.3604C334.675 32.9101 327.811 30.3256 326.253 29.757C324.695 29.1884 317.832 32.3415 314.07 36.3604C310.309 40.3793 310.646 44.4111 306.898 50.1616C303.151 55.9121 290.055 83.76 288.469 89.252C286.883 94.7441 285.044 97.8713 285.353 100.469C285.662 103.066 300.652 117.992 304.4 122.023C308.147 126.055 322.506 139.843 322.506 139.843C322.506 139.843 327.811 163.983 329.369 172.615C330.927 181.247 330.001 205.089 330.001 205.089C330.001 205.089 347.167 201.639 363.406 199.92C379.646 198.201 397.429 192.451 399.619 192.451H401.808C401.808 192.451 389.625 178.65 389.625 176.634C389.625 175.031 390.032 145.749 390.187 133.99C394.72 129.596 401.134 123.341 403.45 120.847C407.198 116.816 422.188 101.877 422.497 99.2927C422.806 96.7082 420.925 93.5681 419.367 88.1019Z" stroke="#263238" stroke-linecap="round" stroke-linejoin="round"/>
<path d="M332.149 39.8104C332.149 39.8104 324.345 33.7757 323.727 36.3601C323.109 38.9446 328.415 42.3949 328.415 42.3949" stroke="#263238" stroke-linecap="round" stroke-linejoin="round"/>
<path d="M321.552 39.2421C321.635 39.9966 321.556 40.7589 321.318 41.4852C321.081 42.2115 320.691 42.8875 320.169 43.4746C319.648 44.0616 319.005 44.5481 318.279 44.9062C317.553 45.2642 316.757 45.4868 315.937 45.5611" stroke="#263238" stroke-linecap="round" stroke-linejoin="round"/>
<path d="M325.931 40.6764L319.685 37.7947L319.994 35.7917L321.86 34.9259" stroke="#263238" stroke-linecap="round" stroke-linejoin="round"/>
<path d="M326.534 31.6047C326.846 33.1973 327.039 34.8078 327.11 36.4248" stroke="#263238" stroke-linecap="round" stroke-linejoin="round"/>
<path d="M330.015 32.4059C330.36 34.3573 330.36 36.3472 330.015 38.2986" stroke="#263238" stroke-linecap="round" stroke-linejoin="round"/>
<path d="M333.215 33.7501C333.354 34.6468 333.24 35.5614 332.884 36.4056C332.527 37.2499 331.94 37.9953 331.18 38.5701" stroke="#263238" stroke-linecap="round" stroke-linejoin="round"/>
<path d="M375.66 38.6606C375.66 38.6606 386.495 36.0761 384.937 38.9449C383.379 41.8137 378.382 42.6924 378.382 42.6924" stroke="#263238" stroke-linecap="round" stroke-linejoin="round"/>
<path d="M391.492 42.9766C390.13 41.9823 388.663 41.1165 387.113 40.3921C385.555 39.8106 385.246 37.8076 385.246 37.8076C385.246 37.8076 388.685 37.239 388.685 35.8046C388.685 34.3702 386.186 33.2201 386.186 33.2201L385.864 34.6674" stroke="#263238" stroke-linecap="round" stroke-linejoin="round"/>
<path d="M381.793 31.0103C381.793 31.0103 380.558 36.7091 385.246 37.7429" stroke="#263238" stroke-linecap="round" stroke-linejoin="round"/>
<path d="M378.298 31.3334C378.298 31.3334 377.428 35.6236 380.333 37.7946" stroke="#263238" stroke-linecap="round" stroke-linejoin="round"/>
<path d="M375.66 32.9488C375.66 32.9488 374.775 36.6963 376.81 38.0273" stroke="#263238" stroke-linecap="round" stroke-linejoin="round"/>
<path d="M363.392 199.92C379.632 198.188 397.415 192.451 399.605 192.451H401.794C401.794 192.451 389.611 178.65 389.611 176.634C389.611 175.031 390.018 145.749 390.173 133.99L397.191 127.128C393.752 126.184 390.032 124.543 388.657 121.713C386.944 118.211 387.772 112.151 388.657 107.938L385.85 110.522C382.419 112.02 378.866 113.269 375.224 114.257C372.029 115.172 368.937 116.366 365.989 117.824C364.066 117.617 362.129 117.423 361.09 117.423C358.901 117.423 343.616 120.007 343.616 120.007C340.082 118.073 336.314 116.529 332.387 115.407C328.745 114.419 325.193 113.17 321.762 111.672L321.313 111.259C321.971 115.972 322.121 120.733 321.762 125.474C321.173 129.725 317.467 131.715 314.899 132.594C318.899 136.471 322.394 139.843 322.394 139.843C322.394 139.843 327.699 163.983 329.257 172.615C330.815 181.247 329.889 205.089 329.889 205.089C329.889 205.089 347.153 201.587 363.392 199.92Z" fill="#0EC505" stroke="#263238" stroke-linecap="round" stroke-linejoin="round"/>
<path d="M356.599 146.485C355.319 145.217 354.145 143.861 353.09 142.428" stroke="#263238" stroke-linecap="round" stroke-linejoin="round"/>
<path d="M389.611 176.634C383.58 170.052 377.011 163.904 369.961 158.245C366.354 155.415 363.448 152.96 361.146 150.866" stroke="#263238" stroke-linecap="round" stroke-linejoin="round"/>
<path d="M337.384 106.904C337.384 106.904 335.686 103.764 331.994 97.4965C328.303 91.2291 331.419 80.2709 345.328 76.084C359.238 71.8971 368.024 79.741 370.003 84.9617C371.982 90.1824 370.284 95.9329 369.147 99.073C368.475 100.926 368.096 102.858 368.024 104.811C367.293 104.001 366.431 103.3 365.47 102.73C363.476 101.438 360.08 87.572 355.532 86.5382C350.985 85.5045 341.356 87.8693 340.57 94.3305C339.784 100.792 339.658 110.82 337.384 106.904Z" fill="#263238" stroke="#263238" stroke-linecap="round" stroke-linejoin="round"/>
<path d="M366.887 103.764C366.887 103.764 368.586 99.3314 370.859 101.425C373.133 103.518 371.982 107.886 370.565 109.773C369.147 111.659 368.024 110.561 367.168 108.481C366.662 106.952 366.566 105.334 366.887 103.764Z" fill="white"/>
<path d="M366.887 103.764C366.887 103.764 368.586 99.3314 370.859 101.425C373.133 103.518 371.982 107.886 370.565 109.773C369.147 111.659 368.024 110.561 367.168 108.481C366.662 106.952 366.566 105.334 366.887 103.764Z" fill="#D9D9D9" stroke="#263238" stroke-linecap="round" stroke-linejoin="round"/>
<path d="M366.887 103.764C366.887 103.764 368.586 99.3314 370.859 101.425C373.133 103.518 371.982 107.886 370.565 109.773C369.147 111.659 368.024 110.561 367.168 108.481C366.662 106.952 366.566 105.334 366.887 103.764V103.764Z" stroke="#263238" stroke-linecap="round" stroke-linejoin="round"/>
<path d="M338.675 106.348C338.675 106.348 335.742 102.471 334.17 105.056C332.598 107.64 334.984 111.633 336.893 113.029C338.802 114.425 339.573 113.158 339.784 110.936C339.819 109.347 339.438 107.774 338.675 106.348Z" fill="white"/>
<path d="M338.675 106.348C338.675 106.348 335.742 102.471 334.17 105.056C332.598 107.64 334.984 111.633 336.893 113.029C338.802 114.425 339.573 113.158 339.784 110.936C339.819 109.347 339.438 107.774 338.675 106.348Z" fill="#D9D9D9" stroke="#263238" stroke-linecap="round" stroke-linejoin="round"/>
<path d="M338.675 106.348C338.675 106.348 335.742 102.471 334.17 105.056C332.598 107.64 334.984 111.633 336.893 113.029C338.802 114.425 339.573 113.158 339.784 110.936C339.819 109.347 339.438 107.774 338.675 106.348V106.348Z" stroke="#263238" stroke-linecap="round" stroke-linejoin="round"/>
<path d="M342.493 118.651C342.365 122.41 342.647 126.172 343.335 129.88C343.943 133.237 344.796 136.553 345.89 139.805L356.108 130.927L368.866 137.194C368.866 137.194 370.859 125.189 366.887 119.956C362.915 114.722 349.862 114.218 346.465 116.079C344.99 116.719 343.646 117.589 342.493 118.651Z" fill="white" stroke="#263238" stroke-linecap="round" stroke-linejoin="round"/>
<path d="M346.184 121.274C346.184 121.274 353.567 139.029 357.539 137.724C361.511 136.419 362.648 120.744 362.648 120.744C362.648 120.744 350.395 123.096 346.184 121.274Z" fill="white"/>
<path d="M346.184 121.274C346.184 121.274 353.567 139.029 357.539 137.724C361.511 136.419 362.648 120.744 362.648 120.744C362.648 120.744 350.395 123.096 346.184 121.274Z" fill="#D9D9D9" stroke="#263238" stroke-linecap="round" stroke-linejoin="round"/>
<path opacity="0.25" d="M346.184 121.274C346.184 121.274 353.567 139.029 357.539 137.724C361.511 136.419 362.648 120.744 362.648 120.744C362.648 120.744 350.395 123.096 346.184 121.274Z" fill="black"/>
<path d="M346.184 121.274C346.184 121.274 353.567 139.029 357.539 137.724C361.511 136.419 362.648 120.744 362.648 120.744C362.648 120.744 350.395 123.096 346.184 121.274Z" stroke="#263238" stroke-linecap="round" stroke-linejoin="round"/>
<path d="M336.528 99.3317C336.528 99.3317 337.931 110.82 339.658 116.04C341.384 121.261 347.939 126.004 356.725 124.698C365.512 123.393 368.642 111.608 368.642 110.82C368.642 110.032 368.08 95.9331 364.67 90.7124C361.259 85.4918 354.746 80.5296 345.665 84.4451C336.584 88.3606 335.686 96.4629 336.528 99.3317Z" fill="white"/>
<path d="M336.528 99.3317C336.528 99.3317 337.931 110.82 339.658 116.04C341.384 121.261 347.939 126.004 356.725 124.698C365.512 123.393 368.642 111.608 368.642 110.82C368.642 110.032 368.08 95.9331 364.67 90.7124C361.259 85.4918 354.746 80.5296 345.665 84.4451C336.584 88.3606 335.686 96.4629 336.528 99.3317Z" fill="#D9D9D9" stroke="#263238" stroke-linecap="round" stroke-linejoin="round"/>
<path opacity="0.25" d="M368.642 110.819C368.642 110.031 368.08 95.9325 364.67 90.7118C363.991 89.6669 363.211 88.6807 362.34 87.7655C363.168 91.0219 367.463 108.558 364.066 114.541C360.318 121.157 352.206 121.739 344.711 118.288C339.096 115.704 337.552 100.701 337.089 93.0895C336.317 95.0909 336.142 97.2464 336.584 99.3311C336.584 99.3311 337.987 110.819 339.714 116.04C341.44 121.26 347.995 126.003 356.781 124.698C365.568 123.393 368.642 111.607 368.642 110.819Z" fill="black"/>
<path d="M336.528 99.3317C336.528 99.3317 337.931 110.82 339.658 116.04C341.384 121.261 347.939 126.004 356.725 124.698C365.512 123.393 368.642 111.608 368.642 110.82C368.642 110.032 368.08 95.9331 364.67 90.7124C361.259 85.4918 354.746 80.5296 345.665 84.4451C336.584 88.3606 335.686 96.4629 336.528 99.3317Z" stroke="#263238" stroke-linecap="round" stroke-linejoin="round"/>
<path d="M344.598 106.051C347.086 106.721 349.721 106.779 352.24 106.219C354.76 105.659 357.076 104.5 358.957 102.859C360.22 103.247 359.743 110.264 352.767 111.284C350.936 111.545 349.066 111.146 347.546 110.172C346.025 109.198 344.97 107.722 344.598 106.051Z" fill="white" stroke="#263238" stroke-linecap="round" stroke-linejoin="round"/>
<path d="M348.627 99.8352C348.627 99.8352 346.886 102.071 347.756 102.859C348.627 103.647 352.079 103.815 353.82 102.071C355.56 100.326 352.781 98.7239 352.781 98.7239" stroke="#263238" stroke-linecap="round" stroke-linejoin="round"/>
<path d="M341.974 100.895C341.974 100.895 342.83 98.3107 347.363 98.3107" stroke="#263238" stroke-linecap="round" stroke-linejoin="round"/>
<path d="M355.251 97.2381C356.081 96.3958 357.215 95.8603 358.442 95.7319C359.669 95.6035 360.905 95.8909 361.918 96.5403" stroke="#263238" stroke-linecap="round" stroke-linejoin="round"/>
<path d="M346.746 93.0382C346.746 93.0382 340.261 91.8494 339.461 97.2639" stroke="#263238" stroke-width="2" stroke-linecap="round" stroke-linejoin="round"/>
<path d="M353.623 92.3663C353.623 92.3663 358.199 88.9548 362.452 92.6119" stroke="#263238" stroke-width="2" stroke-linecap="round" stroke-linejoin="round"/>
<path d="M192.506 97.871C192.506 97.871 192.506 91.7846 185.39 87.3392C178.274 82.8939 161.22 85.4655 154.862 92.9605C148.504 100.456 147.985 105.883 140.616 107.951C133.247 110.018 116.446 112.422 104.768 123.638C93.0907 134.855 98.1576 157.831 103.505 159.705C108.853 161.579 102.228 158.064 102.986 151.951C103.125 150.266 103.769 148.648 104.847 147.279C105.925 145.91 107.394 144.844 109.092 144.198C109.092 144.198 102.228 154.265 116.727 167.381C131.226 180.497 147.255 177.46 160.743 174.876C174.232 172.291 190.752 163.168 192.029 152.391C193.306 141.614 188.969 135.527 192.029 130.617C195.089 125.706 206.275 126.391 207.805 117.035C209.335 107.679 205.223 95.2995 192.506 97.871Z" fill="#263238" stroke="#263238" stroke-linecap="round" stroke-linejoin="round"/>
<path d="M241.505 265.23C241.505 265.23 248.607 256.959 251.33 256.688C254.053 256.417 258.096 262.102 259.864 266.444C261.633 270.786 265.745 279.703 265.745 284.045C265.745 291.63 262.208 294.06 260.748 292.703C259.289 291.346 255.443 282.959 253.394 281.331C252.088 280.327 250.567 279.587 248.93 279.16C248.93 279.16 244.411 268.628 241.505 265.23Z" fill="white" stroke="#263238" stroke-linecap="round" stroke-linejoin="round"/>
<path d="M248.706 258.756C248.706 258.756 257.31 266.677 260.369 274.263C263.429 281.848 264.37 289.253 261.605 292.354" stroke="#263238" stroke-linecap="round" stroke-linejoin="round"/>
<path d="M225.673 323.859C225.673 323.859 234.193 324.401 237.14 324.673C240.088 324.944 240.088 331.444 238.909 336.045C237.73 340.645 236.256 343.63 237.505 348.773C238.754 353.916 235.442 359.602 233.673 362.045C231.905 364.487 228.059 363.944 227.792 362.045C227.526 360.145 228.677 349.045 224.564 342.816C220.452 336.587 220.957 328.227 225.673 323.859Z" fill="white" stroke="#263238" stroke-linecap="round" stroke-linejoin="round"/>
<path d="M233.659 324.35C235.455 327.368 236.102 330.853 235.498 334.249C234.572 340.18 235.807 349.523 235.807 351.784C235.807 354.046 232.424 362.807 231.203 363.092" stroke="#263238" stroke-linecap="round" stroke-linejoin="round"/>
<path d="M264.243 45.225C262.713 45.225 256.608 46.6336 256.103 48.2747C255.597 49.9159 254.839 65.8363 254.839 65.8363C254.839 65.8363 244.144 84.5739 240.593 91.6037C237.042 98.6335 227.61 115.497 227.61 115.497L203.96 138.215C203.96 138.215 200.394 139.856 194.289 143.126C193.713 143.436 193.11 143.785 192.506 144.133L181.278 146.408L171.649 144.728C167.082 141.45 162.326 138.4 157.403 135.592C151.297 132.322 147.732 130.681 147.732 130.681L124.082 107.964C124.082 107.964 114.664 91.1644 111.099 84.0699C107.534 76.9755 96.8523 58.3026 96.8523 58.3026C96.8523 58.3026 96.0944 42.3821 95.5891 40.741C95.0838 39.0998 88.9642 37.6913 87.4483 37.6913C85.9324 37.6913 83.1253 45.1863 84.1359 46.8274C85.1464 48.4686 87.9255 48.4557 87.9255 48.4557C87.796 50.3275 87.796 52.2051 87.9255 54.0769C88.1782 55.2529 91.9959 57.5918 91.9959 57.5918C91.9959 57.5918 97.3436 77.9705 100.895 92.0172C104.446 106.064 109.035 115.446 111.071 117.087C113.106 118.728 133.205 137.453 137.275 143.785C140.56 148.47 144.402 152.804 148.729 156.707C148.729 156.707 146.441 167.045 146.441 172.627C146.441 178.21 152.546 190.189 154.582 195.578C156.617 200.966 159.157 226.023 159.157 226.734C159.157 227.445 160.42 242.887 160.42 242.887C160.42 242.887 146.693 270.528 142.37 290.196C138.047 309.864 140.069 321.119 149.992 325.332C159.915 329.545 204.942 335.399 206.219 336.807C207.497 338.216 208.507 339.146 210.29 339.146C212.072 339.146 214.36 338.216 215.904 339.146C217.448 340.077 217.42 340.787 219.202 340.787C220.054 340.893 220.866 341.182 221.574 341.631C222.281 342.08 222.863 342.677 223.273 343.372C223.778 344.302 226.838 342.428 227.849 335.399C228.859 328.369 227.343 325.061 225.813 324.867C224.283 324.673 224.55 322.282 222.01 322.282C219.278 322.443 216.559 322.758 213.869 323.226C212.543 322.858 211.179 322.624 209.798 322.528C208.269 322.528 206.486 321.352 205.461 321.119C204.437 320.887 187.664 314.555 187.664 314.555L187.018 314.245C204.002 305.328 228.087 289.55 228.087 289.55C228.087 289.55 235.007 289.149 238.038 286.759C240.093 285.066 241.973 283.202 243.653 281.189L248.846 279.199C248.78 276.069 247.727 273.025 245.814 270.438C242.797 266.858 241.491 265.269 241.491 265.269C241.491 265.269 233.28 268.848 230.684 269.649C228.087 270.45 224.199 270.838 222.038 272.828C219.876 274.818 214.262 278.798 214.262 278.798L195.243 287.947C195.243 287.947 219.455 259.298 222.473 247.358C225.069 237.123 221.069 225.816 214.444 217.559C209.434 211.356 202.402 206.626 197.068 200.618C194.513 197.762 192.562 195.642 192.745 194.415C193.04 192.515 195.454 182.953 197.643 174.811L204.465 162.768C206.149 161.152 213.672 152.43 214.374 151.318C218.445 144.986 238.544 126.249 240.579 124.608C242.614 122.966 247.19 113.611 250.755 99.551C254.32 85.4914 259.654 65.1256 259.654 65.1256C259.654 65.1256 263.471 62.7867 263.724 61.6107C263.854 59.7389 263.854 57.8613 263.724 55.9894C263.724 55.9894 266.531 55.9894 267.542 54.3483C268.552 52.7071 265.773 45.225 264.243 45.225Z" fill="white" stroke="#263238" stroke-linecap="round" stroke-linejoin="round"/>
<path d="M241.505 265.23C241.505 265.23 233.294 268.809 230.698 269.611C228.101 270.412 224.213 270.799 222.052 272.789C219.89 274.779 214.276 278.76 214.276 278.76L195.257 287.909C195.257 287.909 219.469 259.26 222.487 247.319C225.083 237.085 221.083 225.778 214.458 217.52C211.933 214.535 209.145 211.747 206.121 209.185C200.809 213.452 195.038 217.211 188.899 220.402C179.922 225.248 169.486 227.296 159.143 226.243C159.143 226.488 159.143 226.643 159.143 226.695C159.143 227.393 160.406 242.848 160.406 242.848C160.406 242.848 146.679 270.489 142.356 290.157C138.033 309.825 140.055 321.081 149.978 325.293C159.901 329.506 204.928 335.36 206.205 336.768C207.483 338.177 208.493 339.107 210.276 339.107C212.058 339.107 214.346 338.177 215.89 339.107C217.434 340.038 217.406 340.749 219.188 340.749C220.04 340.854 220.852 341.143 221.56 341.592C222.267 342.041 222.849 342.638 223.259 343.333C223.764 344.264 226.824 342.39 227.834 335.36C228.845 328.33 227.329 325.022 225.799 324.828C224.269 324.634 224.536 322.244 221.996 322.244C219.263 322.404 216.545 322.719 213.855 323.187C212.529 322.82 211.165 322.586 209.784 322.489C208.254 322.489 206.472 321.313 205.447 321.081C204.423 320.848 187.65 314.516 187.65 314.516L187.004 314.206C203.988 305.289 228.073 289.511 228.073 289.511C228.073 289.511 234.993 289.11 238.024 286.72C240.079 285.028 241.959 283.163 243.639 281.15L248.832 279.16C248.766 276.031 247.713 272.986 245.8 270.399C242.811 266.819 241.505 265.23 241.505 265.23Z" fill="#263238" stroke="#263238" stroke-linecap="round" stroke-linejoin="round"/>
<path d="M176.548 241.245L181.544 243.416C181.544 243.416 160.659 289.731 157.683 303.002C154.708 316.273 158.273 322.773 163.859 322.773C169.446 322.773 185.334 315.188 185.334 315.188" stroke="white" stroke-linecap="round" stroke-linejoin="round"/>
<path d="M195.257 287.909C195.257 287.909 182.723 304.966 179.158 308.96" stroke="white" stroke-linecap="round" stroke-linejoin="round"/>
<path d="M93.3012 44.0102C93.3012 44.0102 88.2062 37.4456 87.4483 36.037C86.6904 34.6285 85.1604 38.6215 86.4237 40.9605C87.2323 42.4147 88.2627 43.755 89.4835 44.9406C89.4835 44.9406 87.4483 50.5618 90.4941 52.9008" fill="white"/>
<path d="M93.3012 44.0102C93.3012 44.0102 88.2062 37.4456 87.4483 36.037C86.6904 34.6285 85.1604 38.6215 86.4237 40.9605C87.2323 42.4147 88.2627 43.755 89.4835 44.9406C89.4835 44.9406 87.4483 50.5618 90.4941 52.9008" stroke="#263238" stroke-linecap="round" stroke-linejoin="round"/>
<path d="M256.945 52.7846C256.945 52.7846 262.026 46.2329 262.798 44.8244C263.57 43.4158 265.085 47.4088 263.808 49.7478C263.002 51.2 261.976 52.5399 260.762 53.7279C260.762 53.7279 262.798 59.3492 259.738 61.6882" fill="white"/>
<path d="M256.945 52.7846C256.945 52.7846 262.026 46.2329 262.798 44.8244C263.57 43.4158 265.085 47.4088 263.808 49.7478C263.002 51.2 261.976 52.5399 260.762 53.7279C260.762 53.7279 262.798 59.3492 259.738 61.6882" stroke="#263238" stroke-linecap="round" stroke-linejoin="round"/>
<path d="M148.757 156.668C148.757 156.668 146.469 167.006 146.469 172.589C146.469 178.171 152.574 190.15 154.61 195.539C156.645 200.928 159.185 225.984 159.185 226.695C159.185 226.889 159.284 228.272 159.438 230.158C168.435 232.471 186.99 233.26 209.111 211.912C205.096 208.151 200.689 204.649 197.082 200.579C194.527 197.723 192.576 195.604 192.759 194.376C193.054 192.476 195.468 182.914 197.657 174.773L204.479 162.729C206.163 161.114 213.686 152.391 214.388 151.28C218.459 144.948 238.558 126.21 240.593 124.569C242.628 122.928 247.204 113.572 250.769 99.5122C252.074 94.3432 253.576 88.2826 255.078 82.713C252.208 82.1638 249.432 81.2596 246.825 80.0252C244.369 84.4446 241.954 88.8641 240.593 91.552C237.028 98.5818 227.61 115.446 227.61 115.446L203.96 138.163C203.96 138.163 200.394 139.804 194.289 143.074C193.713 143.384 193.11 143.733 192.506 144.082L181.278 146.356L171.649 144.728C167.081 141.45 162.326 138.4 157.403 135.592C151.297 132.322 147.732 130.681 147.732 130.681L124.082 107.964C124.082 107.964 114.664 91.1643 111.099 84.0699C109.456 80.8393 106.312 75.1146 103.393 69.8552C100.934 70.8066 98.423 71.639 95.8698 72.3492C97.512 78.6295 99.3787 85.9049 100.923 91.9914C104.488 106.051 109.063 115.42 111.099 117.061C113.134 118.702 133.233 137.427 137.303 143.759C140.589 148.44 144.431 152.77 148.757 156.668Z" fill="#0EC505"/>
<path d="M149.458 131.482C148.336 130.94 147.732 130.668 147.732 130.668L146.328 129.311L134.861 140.606C135.682 141.56 136.45 142.552 137.163 143.578L149.458 131.482Z" fill="#263238"/>
<path d="M138.721 122.01L136.012 119.426L123.38 128.613C124.264 129.479 125.163 130.358 126.033 131.198L138.721 122.01Z" fill="#263238"/>
<path d="M159.157 136.561L157.403 135.579L155.761 134.7L141.725 149.509C142.595 150.504 143.451 151.435 144.265 152.275L159.157 136.561Z" fill="#263238"/>
<path d="M127.45 111.13L112.853 118.573L115.66 121.157L130.173 113.74L127.45 111.13Z" fill="#263238"/>
<path d="M163.27 139.068L157.192 145.31C156.915 145.39 156.66 145.527 156.448 145.71C156.181 145.95 156.004 146.263 155.943 146.602L147.381 155.389C148.223 156.19 148.785 156.681 148.785 156.681C148.785 156.681 148.364 158.568 147.887 161.178L149.444 159.007C153.248 160.506 163.831 163.207 190.724 163.207C193.475 163.207 196.399 163.177 199.496 163.117C199.778 163.111 200.056 163.049 200.31 162.936C201.266 163.641 202.385 164.136 203.581 164.383L204.507 162.742C204.844 162.419 205.419 161.799 206.121 161.023C205.654 161.051 205.185 161.051 204.718 161.023C199.875 160.481 196.914 150.982 195.636 142.441L194.233 143.151C193.657 143.462 193.054 143.811 192.45 144.159L191.945 144.263C192.155 145.555 192.394 146.847 192.703 148.14C174.105 152.546 164.435 148.967 160.828 146.964L166.442 141.226C165.473 140.489 164.393 139.779 163.27 139.068ZM176.351 153.774C182.198 153.699 188.012 152.952 193.657 151.551C194.435 154.355 195.62 157.05 197.18 159.563C168.21 159.989 156.238 157.418 151.971 156.048L158.245 149.587C160.912 151.189 166.61 153.774 176.351 153.774Z" fill="#263238"/>
<path d="M113.836 89.2775L101.47 94.0976C101.807 95.3123 102.13 96.4753 102.467 97.6125L115.576 92.4435L113.836 89.2775Z" fill="#263238"/>
<path d="M108.123 78.4354L98.298 81.7823C98.5927 82.9583 98.9015 84.1213 99.1963 85.2843L109.849 81.666L108.123 78.4354Z" fill="#263238"/>
<path d="M121.457 103.221C120.91 102.252 120.32 101.167 119.689 100.029L105.877 107.486C106.369 108.713 106.846 109.837 107.281 110.845L121.457 103.221Z" fill="#263238"/>
<path d="M233.659 104.487C233.042 105.637 232.424 106.762 231.835 107.821C235.666 111.013 240.074 114.515 244.649 117.733C245.127 116.673 245.604 115.51 246.053 114.231C241.66 111.052 237.365 107.602 233.659 104.487Z" fill="#263238"/>
<path d="M193.489 191.055C193.741 189.982 194.05 188.703 194.401 187.307C173.923 189.892 158.863 187.63 150.329 185.498C150.932 186.932 151.536 188.341 152.125 189.672C160.022 191.355 168.106 192.179 176.211 192.127C181.989 192.118 187.761 191.76 193.489 191.055Z" fill="#263238"/>
<path d="M238.389 95.7519C242.1 98.2434 245.946 100.56 249.913 102.691C250.208 101.657 250.488 100.598 250.769 99.5123C250.769 99.3572 250.769 99.1893 250.881 99.0342C247.173 97.0125 243.58 94.8171 240.116 92.4567C239.625 93.4388 239.035 94.5501 238.389 95.7519Z" fill="#263238"/>
<path d="M146.483 172.007C146.483 172.201 146.483 172.408 146.483 172.589C146.511 173.602 146.647 174.611 146.89 175.6C155.185 175.031 172.351 174.669 196.773 178.184C197.068 177.047 197.377 175.91 197.671 174.799V174.682C172.505 170.999 155.003 171.387 146.483 172.007Z" fill="#263238"/>
<path d="M204.282 207.544C203.314 206.691 202.373 205.825 201.475 204.96C186.836 214.005 169.417 217.701 158.455 219.174C158.61 220.466 158.736 221.759 158.848 222.793C170.302 221.306 188.717 217.443 204.282 207.544Z" fill="#263238"/>
<path d="M156.392 203.874C156.575 205.037 156.757 206.265 156.94 207.518C158.343 207.518 159.971 207.518 161.656 207.518C174.338 207.636 186.967 205.994 199.117 202.646C198.429 201.948 197.714 201.251 197.082 200.514L196.324 199.674C181.418 203.783 165.824 204.171 156.392 203.874Z" fill="#263238"/>
<path d="M224.733 118.198C228.087 122.075 231.75 125.809 235.4 129.298L238.207 126.714C234.558 123.186 230.838 119.374 227.498 115.562L224.733 118.198Z" fill="#263238"/>
<path d="M225.827 138.564L228.494 135.979C224.234 132.978 220.362 129.535 216.957 125.719L214.234 128.303C217.671 132.11 221.56 135.552 225.827 138.564Z" fill="#263238"/>
<path d="M214.388 151.28C214.847 150.574 215.348 149.892 215.89 149.238C213.714 145.464 210.542 139.856 207.735 134.519L204.928 137.285C208.03 143.138 211.455 149.121 213.462 152.546C213.897 151.926 214.248 151.473 214.388 151.28Z" fill="#263238"/>
<path opacity="0.25" d="M254.713 82.7001C248.706 94.8989 237.224 118.211 234.951 122.85C231.849 129.208 207.356 152.068 203.216 154.291C199.075 156.513 196.661 161.915 194.935 167.626C193.292 173.067 188.534 177.357 188.085 183.237C185.727 181.583 181.067 180.2 174.583 179.696C162.161 178.74 150.441 181.609 150.441 171.128C150.441 160.648 157.683 150.453 158.034 147.299C158.385 144.146 151.48 149.884 148.027 147.623C144.574 145.361 121.12 120.628 114.215 112.732C109.821 107.666 102.017 86.7061 96.9365 72.1683L95.8698 72.4785C97.512 78.7588 99.3787 86.0341 100.923 92.1206C104.488 106.18 109.063 115.549 111.099 117.177C113.134 118.805 133.233 137.556 137.303 143.888C140.588 148.574 144.43 152.908 148.757 156.81C148.757 156.81 146.469 167.148 146.469 172.731C146.469 178.313 152.574 190.292 154.61 195.681C156.645 201.07 159.185 226.126 159.185 226.837C159.185 227.031 159.284 228.414 159.438 230.3C160.68 230.615 161.941 230.865 163.214 231.05C162.975 221.229 161.206 200.76 164.238 196.288C167.537 191.43 183.453 191.21 188.099 188.432C188.296 193.616 190.31 198.603 193.84 202.646C196.352 205.683 202.079 209.831 207.567 213.462L209.055 212.067C205.04 208.306 200.633 204.804 197.026 200.734C194.471 197.878 192.52 195.759 192.703 194.531C192.998 192.631 195.412 183.069 197.601 174.928L204.423 162.884C206.107 161.269 213.63 152.546 214.332 151.435C218.402 145.103 238.502 126.365 240.537 124.724C242.572 123.083 247.148 113.727 250.713 99.6673C252.018 94.4983 253.52 88.4377 255.022 82.8681L254.713 82.7001Z" fill="black"/>
<path d="M148.757 156.668C148.757 156.668 146.469 167.006 146.469 172.589C146.469 178.171 152.574 190.15 154.61 195.539C156.645 200.928 159.185 225.984 159.185 226.695C159.185 226.889 159.284 228.272 159.438 230.158C168.435 232.471 186.99 233.26 209.111 211.912C205.096 208.151 200.689 204.649 197.082 200.579C194.527 197.723 192.576 195.604 192.759 194.376C193.054 192.476 195.468 182.914 197.657 174.773L204.479 162.729C206.163 161.114 213.686 152.391 214.388 151.28C218.459 144.948 238.558 126.21 240.593 124.569C242.628 122.928 247.204 113.572 250.769 99.5122C252.074 94.3432 253.576 88.2826 255.078 82.713C252.208 82.1638 249.432 81.2596 246.825 80.0252C244.369 84.4446 241.954 88.8641 240.593 91.552C237.028 98.5818 227.61 115.446 227.61 115.446L203.96 138.163C203.96 138.163 200.394 139.804 194.289 143.074C193.713 143.384 193.11 143.733 192.506 144.082L181.278 146.356L171.649 144.728C167.081 141.45 162.326 138.4 157.403 135.592C151.297 132.322 147.732 130.681 147.732 130.681L124.082 107.964C124.082 107.964 114.664 91.1643 111.099 84.0699C109.456 80.8393 106.312 75.1146 103.393 69.8552C100.934 70.8066 98.423 71.639 95.8698 72.3492C97.512 78.6295 99.3787 85.9049 100.923 91.9914C104.488 106.051 109.063 115.42 111.099 117.061C113.134 118.702 133.233 137.427 137.303 143.759C140.589 148.44 144.431 152.77 148.757 156.668V156.668Z" stroke="#263238" stroke-linecap="round" stroke-linejoin="round"/>
<path d="M169.109 126.442C169.109 126.442 169.361 141.2 168.084 144.715C166.807 148.23 159.663 155.053 162.75 160.648C165.838 166.244 176.997 159.937 180.997 153.153C184.997 146.369 183.046 144.25 183.046 144.25V133.912L169.109 126.442Z" fill="white"/>
<path d="M183.102 133.937L169.067 126.442C169.067 126.442 169.319 141.2 168.042 144.715C167.856 145.201 167.626 145.672 167.354 146.123C170.019 146.917 172.878 146.975 175.579 146.291C178.419 145.19 180.969 143.542 183.06 141.458L183.102 133.937Z" fill="#0EC505"/>
<path opacity="0.5" d="M183.102 133.937L169.067 126.442C169.067 126.442 169.319 141.2 168.042 144.715C167.856 145.201 167.626 145.672 167.354 146.123C170.019 146.917 172.878 146.975 175.579 146.291C178.419 145.19 180.969 143.542 183.06 141.458L183.102 133.937Z" fill="white"/>
<path d="M169.109 126.442C169.109 126.442 169.361 141.2 168.084 144.715C166.807 148.23 159.663 155.053 162.75 160.648C165.838 166.244 176.997 159.937 180.997 153.153C184.997 146.369 183.046 144.25 183.046 144.25V133.912L169.109 126.442Z" stroke="#263238" stroke-linecap="round" stroke-linejoin="round"/>
<path d="M166.301 116.609C166.301 116.609 161.473 112.396 160.196 115.446C158.919 118.495 162.231 122.941 164.014 123.406L165.796 123.871C166.586 127.209 168.347 130.287 170.891 132.775C174.962 136.522 179.537 138.396 184.618 136.057C189.699 133.718 193.784 127.851 195.047 120.834C195.815 117.367 196.075 113.821 195.819 110.29C195.819 109.114 193.531 100.688 186.906 98.5819C180.281 96.4756 181.053 99.0471 175.972 104.436C172.454 108.288 169.224 112.355 166.301 116.609Z" fill="white"/>
<path d="M194.429 105.961C194.85 109.837 195.552 119.891 192.52 124.711C188.731 130.733 184.927 136.458 177.348 133.602C169.768 130.746 167.34 123.432 167.34 123.432C167.34 123.432 165.277 123.755 162.161 121.209C161.842 120.934 161.471 120.715 161.066 120.563C161.683 121.786 162.718 122.789 164.014 123.419L165.796 123.884C166.586 127.222 168.347 130.3 170.891 132.788C174.962 136.535 179.537 138.409 184.618 136.07C189.699 133.731 193.784 127.864 195.047 120.847C195.815 117.38 196.075 113.833 195.819 110.303C195.593 108.8 195.125 107.336 194.429 105.961Z" fill="#0EC505"/>
<path opacity="0.5" d="M194.429 105.961C194.85 109.837 195.552 119.891 192.52 124.711C188.731 130.733 184.927 136.458 177.348 133.602C169.768 130.746 167.34 123.432 167.34 123.432C167.34 123.432 165.277 123.755 162.161 121.209C161.842 120.934 161.471 120.715 161.066 120.563C161.683 121.786 162.718 122.789 164.014 123.419L165.796 123.884C166.586 127.222 168.347 130.3 170.891 132.788C174.962 136.535 179.537 138.409 184.618 136.07C189.699 133.731 193.784 127.864 195.047 120.847C195.815 117.38 196.075 113.833 195.819 110.303C195.593 108.8 195.125 107.336 194.429 105.961Z" fill="white"/>
<path d="M166.301 116.609C166.301 116.609 161.473 112.396 160.196 115.446C158.919 118.495 162.231 122.941 164.014 123.406L165.796 123.871C166.586 127.209 168.347 130.287 170.891 132.775C174.962 136.522 179.537 138.396 184.618 136.057C189.699 133.718 193.784 127.851 195.047 120.834C195.815 117.367 196.075 113.821 195.819 110.29C195.819 109.114 193.531 100.688 186.906 98.5819C180.281 96.4756 181.053 99.0471 175.972 104.436C172.454 108.288 169.224 112.355 166.301 116.609V116.609Z" stroke="#263238" stroke-linecap="round" stroke-linejoin="round"/>
<path d="M187.425 111.931C187.425 111.931 185.643 114.967 186.401 115.678C187.159 116.389 189.713 117.784 188.436 118.482C187.231 118.962 185.931 119.204 184.618 119.193" stroke="#263238" stroke-linecap="round" stroke-linejoin="round"/>
<path d="M177.249 120.175C177.249 120.175 180.295 123.457 189.966 122.281C189.966 122.281 184.113 127.67 181.544 127.67C178.976 127.67 177.249 120.175 177.249 120.175Z" stroke="#263238" stroke-linecap="round" stroke-linejoin="round"/>
<path d="M175.467 112.629C175.467 112.629 179.032 111.466 181.081 113.339" stroke="#263238" stroke-linecap="round" stroke-linejoin="round"/>
<path d="M188.183 114.502C188.183 114.502 192.254 113.339 193.012 115.911" stroke="#263238" stroke-linecap="round" stroke-linejoin="round"/>
<path d="M175.214 108.648C176.012 107.799 177.083 107.207 178.272 106.956C179.46 106.705 180.705 106.809 181.825 107.253" stroke="#263238" stroke-linecap="round" stroke-linejoin="round"/>
<path d="M188.689 109.837C188.689 109.837 192.001 107.02 194.303 112.176" stroke="#263238" stroke-linecap="round" stroke-linejoin="round"/>
</svg>
